<svg id="Assets" xmlns="http://www.w3.org/2000/svg" width="1112" height="958" viewBox="0 0 1112 958">
  <title>Apple_name</title>
  <path id="Apple_1" d="M521,292c-75-30.58-195-14-280,27-76.39,32.54-135,135-135,248s71,215,103.5,244.5S358,933,457.5,943.5s162.57.7,242-25c65.57-24.82,127.89-60.3,184-116,47.72-40.56,76.07-103,89-183,13.65-47.73,12.5-105.5,0-160s-42.5-104.5-95-144-91.23-54.76-138-62c-66.87-3.18-129.32,2.06-183.87,33.47l19.22-170.31a.44.44,0,0,0-.88-.12l-12.47,73C467.06,102.42,407.88,86.18,305.17,94.79Q298.71,95.33,292,96" fill="none" stroke="#fff" stroke-miterlimit="10" stroke-width="30"/>
  <path id="Apple_2" d="M509,190.5s-181.5-2-236-.5S138,132.91,88,63C191.49,17.12,341.5,2.5,410,16s121,97,121,97" fill="none" stroke="#fff" stroke-miterlimit="10" stroke-width="15"/>
  <path id="Apple_3" d="M651,341c-93.69,33.14-190.53,37.93-290,19C448.17,360.72,545.8,353.67,651,341Z" fill="none" stroke="#f9f9f9" stroke-miterlimit="10" stroke-width="12"/>
</svg>
