<svg id="Assets" xmlns="http://www.w3.org/2000/svg" width="1112" height="978" viewBox="0 0 1112 978">
  <title>Apple_name</title>
  <path id="Apple_1" d="M482,283c-77-32.3-171-12-241,36S106,457,106,567s35,170,103.5,244.5S358,933,457.5,943.5s162.57.7,242-25c65.57-24.82,127.89-60.3,184-116,47.72-40.56,74.5-115.5,89-183s12.5-105.5,0-160-42.5-104.5-95-144-91.23-54.76-138-62c-66.87-3.18-129.32,2.06-183.87,33.47l19.22-170.31a.44.44,0,0,0-.88-.12l-12.47,73C468.68,65.92,362.17,76.72,357,93" fill="none" stroke="#fff" stroke-miterlimit="10" stroke-width="40"/>
  <path id="Apple_2" d="M476.3,170.63c1.66,11-107.72,47.66-168.61-8.59S199.79,121.36,158.29,68C238.23,28.66,355.7,12.49,410,21s101.35,69,101.35,69" fill="none" stroke="#fff" stroke-miterlimit="10" stroke-width="20"/>
  <path id="Apple_3" d="M676,334c-93.75,45.56-190.58,48.71-290,19C473.18,360.12,570.47,352.66,676,334Z" fill="none" stroke="#fff" stroke-miterlimit="10" stroke-width="15"/>
</svg>
