<svg id="Assets" xmlns="http://www.w3.org/2000/svg" width="410" height="357" viewBox="0 0 410 357">
  <title>blood</title>
  <g>
    <ellipse cx="127.93" cy="219.79" rx="176.68" ry="177.89" fill="#fefefe"/>
    <path d="M124,280c-2.53-2.76-1.82-5.55-.89-8.83l2.12,3.07a2.72,2.72,0,0,0,.52-3.93c-.66-.85-2.23-1-3.4-1.42l-.54.68c-.43-1.39-1-2.76-1.28-4.18a2.78,2.78,0,0,0-3.39-2.42,10.17,10.17,0,0,1-7.5-1.91,3.52,3.52,0,0,0-4.13-.38c-.57.31-1.46,0-2.21,0a36.57,36.57,0,0,1-5.43.1c-3.24-.43-5.11-3-7.18-5.19-1.51-1.58-2.75-3.43-4.15-5.12-1.07-1.29-1-2.46.64-2.92,2.37-.69,1.34-2,.79-3.22a18.66,18.66,0,0,1-1.31-2.85,3.7,3.7,0,0,0-2.47-3c-4.23-1.62-4.62-4-1.51-7.32,1-1.1,2.12-2.28,1.32-4.07a1.38,1.38,0,0,1,.27-1.29c2.23-1.42,1.33-3.84,1.79-5.78.13-.54-1-1.66-1.83-2.12-2.23-1.28-4.56-2.37-6.88-3.48a10.69,10.69,0,0,0-1.88-.54l.9-.91a61.86,61.86,0,0,0,7.23-.94c4.16-1,5.24-3,4.33-7.08a3.19,3.19,0,0,1-.1-1.4c1-3.64-1-6.38-2.73-9.21-.76-1.24-2-2.69.91-3,.59-.06,1.16-1,1.63-1.56a14.84,14.84,0,0,1,7.69-5.46c5.1-1.61,10.17-1.37,15.32-1.44a79.46,79.46,0,0,0,8.85-.65c1.65-.2,3.13-.89,3.33-2.94a2.8,2.8,0,0,1,.64-1.51,15.62,15.62,0,0,1,1.82-1.61c.58.73,1.49,1.38,1.69,2.2.54,2.17,5.13,7.15,7.25,7.88a6,6,0,0,1,2.76,2c2,2.81,2.76,3.24,6.08,2.69.58,2.28,2.26,2.53,4.23,2.2l-.45-.55,2.69-2.41c.53.64,1.55,1.32,1.5,1.91-.23,2.41-2.25,1.55-3.68,1.64-.34,2.28.59,3.36,3.44,4.52a17.49,17.49,0,0,1,4.54,2.42,8.44,8.44,0,0,1,2.43,3.55c.59,1.63,1.57,2.56,3.1,2,2.94-1.05,6.08-1.88,8.32-4.27,2.79-3,4.52-1.84,6.2.53.83,1.17,2.41,1.9,3,3.14a4.29,4.29,0,0,1-.38,3.63c-1.19,1.63-2.28,4-4.82,3.62a4,4,0,0,1-3.24-3.72,2.6,2.6,0,0,0-1.08-1.83,2.75,2.75,0,0,0-2.31.22c-.45.32-.39,1.34-.56,2.06l.69.31c-.62.25-1.22.56-1.86.75a4.87,4.87,0,0,0-3.52,6.68,5.21,5.21,0,0,0,.65,1.46c2.19,2.89.72,6.35,1.47,9.46.07.27-.53.7-.8,1.06-.42.55-1.1,1.07-1.18,1.67a50.62,50.62,0,0,0-.71,7.45c0,4.38,1.79,5.74,6.81,5.65a3.33,3.33,0,0,0,.95-.09c1.65-.48,2.89.32,3,1.77s-.89,2.72-2.63,3.08a5.61,5.61,0,0,0-2.66,1.14,2.8,2.8,0,0,1-4.22.06c-1.27-1.22-2.25-1.35-3.68-.42-.52.33-1.42,0-2,.3a21,21,0,0,0-4.53,2.59c-.44.36-.2,1.88.13,2.71a26.33,26.33,0,0,1,1.61,3.56l-.81-.7c-3.16-2.69-4.28-2.74-6.85-.32-1.35,1.28-1.22,4.83.27,7,.09.13.26.22.31.36a26.07,26.07,0,0,1,.87,2.58c0,.06-.88.52-1,.42a9.27,9.27,0,0,1-1.7-2.11c-.79-1.5-1.29-3.16-2.19-4.57a2.72,2.72,0,0,0-2.23-.74c-1.54.2-3,1-4.56,1.06-4.69.18-6.32,3.26-7,7.15a34.42,34.42,0,0,0-.27,6.66c.06,1.88.21,3.52-2.49,3.35C125.34,278.94,124.7,279.61,124,280Z" fill="#e53621"/>
    <path d="M188.1,190.11c-.74-.26-2.07-.34-2.72-1.05s-1.85-2.13-.07-3.3c2.33-1.51,4.54-3.2,6.92-4.62a2.61,2.61,0,0,1,2.44,0,4.24,4.24,0,0,1,1.17,2.85C195.76,185.65,190.2,190.06,188.1,190.11Z" fill="#e53621"/>
    <path d="M69.45,215.36c-3.37-1.17-6.45-2.25-9.54-3.31A37.47,37.47,0,0,1,56,210.7c-.43-.2-.92-1.25-.75-1.57.31-.56,1.2-1.31,1.67-1.2q6.33,1.42,12.57,3.19c1.23.35,2.79.95,1.57,2.8A8.78,8.78,0,0,1,69.45,215.36Z" fill="#e53621"/>
    <path d="M71.29,161c1.27.18,2.35,0,3.08.48,2.91,1.74,5.65,3.77,7,7a18.81,18.81,0,0,1,.8,4.12C78.44,172.1,73.72,167.16,71.29,161Z" fill="#e53621"/>
    <path d="M166.39,126.35c-1.31,3.4-2.54,6.75-3.93,10-.23.56-1.13.84-1.72,1.26-.41-.63-1.06-1.22-1.19-1.9-.57-3.09,1-5.67,2.24-8.31a10.17,10.17,0,0,1,1.05-1.81c.51-.69,1.13-1.3,1.69-2Z" fill="#e53621"/>
    <path d="M119.24,171.51a19.74,19.74,0,0,1,3.29-8.72l.72.18a6.13,6.13,0,0,0-.06,1.65c.22.91.36,2.06,1,2.6a5.74,5.74,0,0,1,1.87,5.26c-.07.68-.74,1.76-1.26,1.83a4.63,4.63,0,0,1-2.37-.88C121.45,172.91,120.53,172.3,119.24,171.51Z" fill="#e53621"/>
    <path d="M144.24,188.67c-1.24-1.5-2-3.31-3.23-3.68s-2.78.8-4.48,1.38a4.3,4.3,0,0,1,3.6-3.45c1.61-.38,3.14-1.15,4.75-1.52.8-.19,2.36-.08,2.48.28.4,1.16.81,2.8.27,3.7C146.78,186.82,145.18,187.81,144.24,188.67Z" fill="#e53621"/>
    <path d="M189.74,252c1.55-1.34,2.84-1.57,4.6.09s3.9,2.49,5.81,3.82c.52.36.73,1.16,1.09,1.76-.69.12-1.46.49-2.05.31C195.61,256.81,192.16,255.42,189.74,252Z" fill="#e53621"/>
    <path d="M93.32,274.14c4-2.81,6.07-7.05,9.7-10.53,1.25,2.82.32,4-1,5.24a23.18,23.18,0,0,0-3.42,3.92A3.85,3.85,0,0,1,93.32,274.14Z" fill="#e53621"/>
    <path d="M199.88,225.37c-2,3.43-7.09,4.44-10.57,2.23C191,224.62,195.76,223.56,199.88,225.37Z" fill="#e53621"/>
    <path d="M149.87,293.52c-3-.51-5.34-5.71-4.5-10.1C147.85,283.87,150.42,289.61,149.87,293.52Z" fill="#e53621"/>
    <path d="M82.56,228.06a12.37,12.37,0,0,1-2.26.61c-2,.12-3.93.17-5.89.15a1.65,1.65,0,0,1-1.15-.77c-.11-.16.31-.92.62-1a38.7,38.7,0,0,1,4.74-1.32C80.27,225.38,81.76,225.68,82.56,228.06Z" fill="#e53621"/>
    <path d="M146.82,270.57c2.92,1.38,4.1,3.16,4.55,7-2.35.41-3.08-1.63-4.18-2.84S145.47,272.08,146.82,270.57Z" fill="#e53621"/>
    <path d="M168,280.64c-1.9.33-5.52-3.08-6.43-6.06C163.75,273.65,167,276.7,168,280.64Z" fill="#e53621"/>
    <path d="M79,248.3c-1.8,1.17-3.55,2.36-5.37,3.44a1.46,1.46,0,0,1-1.3-.33,1.15,1.15,0,0,1,0-1.16c1.19-1.1,2.44-2.15,3.73-3.14S78.16,246.75,79,248.3Z" fill="#e53621"/>
    <path d="M37,234.49c2.92-2.36,5.72-1.68,8.51-1.3C44.77,235.67,42.07,236.17,37,234.49Z" fill="#e53621"/>
    <path d="M82.71,193.87c-1.32.18-2.33.52-2.47.3-1.57-2.46-3.8-4.63-3.55-8Z" fill="#e53621"/>
    <path d="M164.91,195.86c2.68.21,5.37.41,8.05.68.25,0,.56.47.64.78a1,1,0,0,1-.36.8C172.2,198.78,165.7,197.47,164.91,195.86Z" fill="#e53621"/>
    <path d="M156.82,263.57a14.51,14.51,0,0,1,3.54,1.63c.6.5.63,1.69.91,2.57a10,10,0,0,1-2.39-.08C157,267.16,156.38,265.76,156.82,263.57Z" fill="#e53621"/>
    <path d="M166,174.06c.32-2.46,4.37-6.61,6.95-6.33Z" fill="#e53621"/>
    <path d="M114.31,170.68c-2.81-1.06-2.41-3.39-3.13-5-.2-.45.49-1.29.78-1.94l.7.16C113.18,166,113.69,168.12,114.31,170.68Z" fill="#e53621"/>
    <path d="M76.51,240.28a8.62,8.62,0,0,1-2.28.79,13.1,13.1,0,0,1-2.67-.46c.2-.42.34-1.16.61-1.21a20.1,20.1,0,0,1,3.38-.27C75.75,239.13,76,239.58,76.51,240.28Z" fill="#e53621"/>
    <path d="M129.62,285.44c2.23.07,2.74.89,2.47,4.36Z" fill="#e53621"/>
    <path d="M137.28,273.06l-1.39-3.8c2.21.91,3,1.84,2.22,3.51Z" fill="#e53621"/>
    <path d="M177.79,217.05l-3.95.35-.06-.68,3.93-.31Z" fill="#e53621"/>
  </g>
  <g>
    <path d="M143.54,54.52c-.33.87-.67,1.74-1,2.62a1.26,1.26,0,0,0,.9,1.81c1.39.44,2,1.76,3,2.58a9.1,9.1,0,0,0,3,1.3c.9.29,1.54-.28,2.05-1A21.51,21.51,0,0,1,153.65,59c.42-.41,1.68-.73,1.84-.52a3.15,3.15,0,0,1,.84,2.29,7,7,0,0,0-.36,3c.13,1.07-.67,1.72-1.69,1.94s-1.68.7-1.54,1.92a1.88,1.88,0,0,1-.54,1.17c-.72.86-.9,3.45-.14,4.27a2.15,2.15,0,0,0,1.29.54c.93.1,1.88.08,2.83.13a2,2,0,0,1,.43.2c-1.13.32-2.17.6-3.19.92-.27.09-.63.29-.71.53-.89,2.6.25,4.49,3.07,5.11.49.11,1,0,1.54,0a9.67,9.67,0,0,1,1.43.49c-.12.32-.15.79-.37.92a1.49,1.49,0,0,1-1.19.13,5.62,5.62,0,0,0-3.46-.45,2.1,2.1,0,0,0-1.52.81c-.68,1.53-1.1,3.17-1.73,4.72a3.49,3.49,0,0,0,.69,3.75,14.38,14.38,0,0,0,2.15,2.5,23.09,23.09,0,0,0,3.13,1.83c.32.19.77.32.91.6a3.59,3.59,0,0,1,.32,1.49c0,.24-.32.47-.37.72-.33,1.71-.66,2-2.28,1.22a21.19,21.19,0,0,1-3.23-2.27l.15-.43c.56,0,1.12,0,1.68,0a4.11,4.11,0,0,0,.74-.21c-.07-.22-.07-.55-.22-.64a9.12,9.12,0,0,0-2-1.09,1,1,0,0,0-1.45.9c-.2,1-.8,1.23-1.72.88a16.5,16.5,0,0,1-1.72-.57,1.76,1.76,0,0,0-2.55.88,8,8,0,0,1-4.32,3.91c-.89.34-2,.84-1.4,2.26a.16.16,0,0,1,0,.12c-2,1.53-2.24,4.62-4.75,5.56a26.39,26.39,0,0,1-5.13.94c-1.09.17-2.2.17-3.28.38-1.47.28-2-.17-1.69-1.63.22-1-.51-1.58-1.91-1.55a4.82,4.82,0,0,1-2.18-.35,2,2,0,0,0-2.26.24,6.67,6.67,0,0,1-2.07,1c-1.54.39-2.58-.41-2.91-2A11.11,11.11,0,0,0,112,103c-.15-.31-.75-.38-1.08-.65a2.11,2.11,0,0,1-.76-.93c-.27-1-2.08-3-3.09-3.15a1.75,1.75,0,0,0-1.07.1c-1.72.94-3.4,2-5.11,2.9a4.84,4.84,0,0,1-1.16.32l-.2-.31c.23-.34.48-.68.7-1,1.24-2,2.47-4,1.83-6.5a2.59,2.59,0,0,0-2-2.05,11.2,11.2,0,0,1-2.07-1.2,8.21,8.21,0,0,0-2.26-.94c-1.47-.26-3-.31-4.47-.49a5.05,5.05,0,0,1-1.11-.45c1.25-1.41.13-2.63,0-3.9s-.35-2.43-.52-3.64a1.16,1.16,0,0,1,.08-.48,30,30,0,0,1,1.59-4.44c1-2,2.42-3.82,3.57-5.77,1.29-2.2,2.57-4.42,3.7-6.71a1.82,1.82,0,0,0-.58-2.41A2.69,2.69,0,0,1,97,60c-.15-.46-.28-1.25-.06-1.42a2.74,2.74,0,0,1,1.59-.28c.77,0,1.54.2,2.31.25a9.22,9.22,0,0,1,1.47-.06c1.89.45,3.2-.51,4.5-1.64a2.42,2.42,0,0,1,1.49-.42c2.46,0,3.43-.35,3.94-2.39,1.75,0,1.75,0,3.16-1.66-.69-.71-2-1.36-.8-2.54a1.63,1.63,0,0,1,1.59,0c1.12,1,.26,1.79-.56,2.47,1.8,1.37,2.52,1.25,4.48-.3,1.72-1.36,3.55-2.43,5.94-1.52,1.26.48,2.24-.35,2.39-1.69.07-.67.43-1.31.47-2,.07-1.28,0-2.57,0-3.86,0-1-.61-2.15.59-2.92.13-.08.24-.27.38-.3a40.47,40.47,0,0,1,4.19-.87,2.47,2.47,0,0,1,2.71,2c.06.24.11.48.17.72.76,2.74.57,3.83-2.82,4.12-.21,0-.43-.27-.66-.31-.59-.1-1.47-.4-1.73-.14-.43.45-.46,1.28-.67,2l1.62.48-.32.89a3.61,3.61,0,0,0,2.91,5.1,24.66,24.66,0,0,1,2.75.47,4.34,4.34,0,0,1,1.76,1c.75.77,1.46,1,2.37.37.45-.33.91-.63,1.37-1Z" fill="#de3221"/>
    <path d="M129.79,25.05a2.82,2.82,0,0,1-1.62,3,2.61,2.61,0,0,1-1.74.19c-.32-.08-.68-.72-.71-1.13-.13-1.85-.09-3.71-.22-5.56-.08-1.13.34-1.71,1.41-1.88a2,2,0,0,1,2.17,1.44C129.36,22.39,129.56,23.72,129.79,25.05Z" fill="#de3221"/>
    <path d="M98.32,105.87a2.2,2.2,0,0,1-.35.64,19.9,19.9,0,0,1-2.22,2.09c-1.07.8-2.27,1.41-3.35,2.19-.62.44-1.08,1.08-1.66,1.57s-1,.78-1.6.11-.48-1.29.33-2c1-.79,1.81-1.7,2.74-2.54,1.39-1.24,2.74-2.53,4.22-3.67C97.21,103.71,98.32,104.55,98.32,105.87Z" fill="#de3221"/>
    <path d="M78.49,82.61a15.88,15.88,0,0,1-6.72,2.15,12.14,12.14,0,0,1-3-.05A1.66,1.66,0,0,1,67.67,84c-.27-.54.1-.9.68-1.18,2.23-1.09,4.53-1.94,7-1.59A13.72,13.72,0,0,1,78.49,82.61Z" fill="#de3221"/>
    <path d="M88.19,22c0,1.06-.51,1.51-1.31,1.07A9,9,0,0,1,84.11,21a35.46,35.46,0,0,1-2.85-4.55,1.26,1.26,0,0,1,0-1.12,1.07,1.07,0,0,1,1-.15,17.74,17.74,0,0,1,3.07,2.5,30.5,30.5,0,0,1,2.52,3.7A2.9,2.9,0,0,1,88.19,22Z" fill="#de3221"/>
    <path d="M92.45,61.11c-1.47-1.65-2.71-3-3.9-4.42-.22-.25-.2-.7-.36-1-.26-.5-.59-1-.88-1.44a3.66,3.66,0,0,1-.4-.82c0-.08.34-.37.42-.33a2.07,2.07,0,0,1,.71.54,9.17,9.17,0,0,0,1.38,1.78,2.61,2.61,0,0,0,1.87.39,3.92,3.92,0,0,1,3.71.93c.38.35.8,1.24.62,1.5a2.33,2.33,0,0,1-1.62.91C92.87,59.19,92.28,59.55,92.45,61.11Z" fill="#de3221"/>
    <path d="M111.53,52.78c-1.1-.27-1.93-.51-2.78-.65-.66-.12-1.4,1-1.32,1.7a4.37,4.37,0,0,1-.26,2c-1.19-1.18-1-2.4-.42-3.73.36-.79.47-1.7.78-2.53a5.63,5.63,0,0,1,.9-1.74c.87.25,2.08.55,2.41,1.22A13.57,13.57,0,0,1,111.53,52.78Z" fill="#de3221"/>
    <path d="M174.2,45.17c-1,2.42-4.77,4.88-8,4.88a1.88,1.88,0,0,1,1.36-2.49c1.56-.58,3-1.32,4.6-1.94A13.69,13.69,0,0,1,174.2,45.17Z" fill="#de3221"/>
    <path d="M142,108.66a5.76,5.76,0,0,0,.66,2c.83,1,.64,2.07.62,3.14,0,.32-.49.63-.76,1-.25-.24-.62-.44-.75-.73a3.53,3.53,0,0,1-.35-1.54c.17-1.88-.86-3.34-1.53-4.93a2.31,2.31,0,0,1-.11-1.25c.19-1,.87-1.23,1.48-.42a13.07,13.07,0,0,1,1.18,2.57Z" fill="#de3221"/>
    <path d="M150.81,39.63c.57-1.18,1-2.14,1.5-3.1a10.2,10.2,0,0,1,1-1.8,4.05,4.05,0,0,1,1.14-.76,4.7,4.7,0,0,1,.42,1.39,6.33,6.33,0,0,1-.4,2.79A16.59,16.59,0,0,1,152,40.9Z" fill="#de3221"/>
    <path d="M175.31,89.61c-.5.28-.84.66-1.16.64-2.07-.13-4.25.15-6-1.27a3.83,3.83,0,0,1-.64-1c.38-.18.79-.57,1.12-.51,1.92.34,3.81.76,5.7,1.22C174.62,88.81,174.88,89.22,175.31,89.61Z" fill="#de3221"/>
    <path d="M110.82,103.93a17.59,17.59,0,0,1-.83,1.68c-.46.76-1,1.49-1.48,2.24a5.75,5.75,0,0,1-.61,1.06,1.06,1.06,0,0,1-.86.18c-.13,0-.32-.5-.25-.69a28.59,28.59,0,0,1,1.56-4c.25-.47,1.1-.67,1.71-.88C110.22,103.42,110.52,103.74,110.82,103.93Z" fill="#de3221"/>
    <path d="M163.27,81.51a22.48,22.48,0,0,1,2.36.52,1,1,0,0,1,.57.77c0,.18-.42.52-.7.57a21.93,21.93,0,0,1-2.91.42,2.87,2.87,0,0,1-1.41-.3,1.13,1.13,0,0,1-.55-.85,1.14,1.14,0,0,1,.68-.75A17.79,17.79,0,0,1,163.27,81.51Z" fill="#de3221"/>
    <path d="M80.8,91.63a9.85,9.85,0,0,1,1.73-.71,15.77,15.77,0,0,1,2.07-.11c1.68-.1,3.35-.25,5-.28.29,0,.6.49.9.76-.35.26-.7.74-1.06.76-1.38,0-2.76,0-4.14-.11a.55.55,0,0,1-.34-.11c-1.21-1.14-2.53-.64-3.84-.27a2.23,2.23,0,0,1-.36,0Z" fill="#de3221"/>
    <path d="M172.72,73.3c.62.27,1.76.52,1.77.81,0,1-1,.75-1.66.9a16,16,0,0,1-2.86.6c-.5,0-1-.46-1.53-.72.46-.37.88-.93,1.41-1.07a18.32,18.32,0,0,1,2.79-.3Z" fill="#de3221"/>
    <path d="M121.39,116a14,14,0,0,1-.17,2.08,1.1,1.1,0,0,1-.72.64.8.8,0,0,1-.67-.49,22.36,22.36,0,0,1-.29-3.74c0-.33.75-.63,1.16-.95a6.39,6.39,0,0,1,.6,1.16A7,7,0,0,1,121.39,116Z" fill="#de3221"/>
    <path d="M97.18,132.66c-.11-.6-.37-1.1-.22-1.4.64-1.22,1.37-2.39,2.12-3.56.12-.17.47-.2.71-.3a2.21,2.21,0,0,1,.28.76C100,130.06,98.94,131.39,97.18,132.66Z" fill="#de3221"/>
    <path d="M127.36,38.13c1,.41.93.88.45,1.49-.69.89-1.28,1.87-2,2.72a10.41,10.41,0,0,1-1.7,1.29l-.41-.43Z" fill="#de3221"/>
    <path d="M160,73.89c1-.57,1.86-1.1,2.74-1.57a1.06,1.06,0,0,1,1.6.6c.1.31-.38.93-.74,1.25C162.48,75.2,161.34,74.8,160,73.89Z" fill="#de3221"/>
    <path d="M110.18,27.61l1.41,6.48c-1.44-1.1-2.38-5.14-1.79-6.41Z" fill="#de3221"/>
    <path d="M89.17,62.86a1.44,1.44,0,0,1-2.09.44c-.66-.36-1.47-.41-2.18-.71a.64.64,0,0,1,.38-1.22C86.56,61.81,87.81,62.33,89.17,62.86Z" fill="#de3221"/>
    <path d="M113.79,115.05c-.13-.5-.47-1.07-.33-1.49a3.24,3.24,0,0,1,1.16-1.59c.47-.32,1.12.42.86,1a21.06,21.06,0,0,1-1.15,2Z" fill="#de3221"/>
    <path d="M166.33,98.48a6.09,6.09,0,0,1-3.66-.77A2.8,2.8,0,0,1,166.33,98.48Z" fill="#de3221"/>
    <path d="M158.67,88.42a2,2,0,0,1-2.73-.24C156.74,87.23,157.16,87.26,158.67,88.42Z" fill="#de3221"/>
    <path d="M139.28,45.75l1.51-2.45.37.22L139.7,46Z" fill="#de3221"/>
    <path d="M144.34,52.74l.95-1.16.66.6-1.09,1Z" fill="#de3221"/>
    <path d="M73.82,95.76l2.85-1.27.2.55-3,.72Z" fill="#de3221"/>
    <path d="M101.94,112.45l-1.42,2.2-.3-.18,1.34-2.23Z" fill="#de3221"/>
    <path d="M104.67,51.16l-.31-2.56.44-.09.52,2.57Z" fill="#de3221"/>
    <path d="M179.43,74.17a2.93,2.93,0,0,1-1,.44c-.21,0-.44-.37-.89-.79h1.75Z" fill="#de3221"/>
    <path d="M157.89,51.77l-1.48,1.9-.31-.3,1.77-1.58Z" fill="#de3221"/>
    <path d="M86.43,119.24l-1.76,1.18,0,0,1.74-1.2Z" fill="#de3221"/>
    <path d="M86.43,119.25l.18-.12-.08-.07-.1.18Z" fill="#de3221"/>
    <path d="M80.79,91.61l-.4.17,0-.15h.44Z" fill="#de3221"/>
    <polygon points="141.27 42.72 141.26 42.79 141.37 42.76 141.27 42.72" fill="#de3221"/>
    <path d="M143.56,54.54l0-.12,0,.1Z" fill="#de3221"/>
    <polygon points="73.83 95.76 73.8 95.79 73.82 95.76 73.83 95.76" fill="#de3221"/>
    <polygon points="157.87 51.79 157.88 51.74 157.89 51.77 157.87 51.79" fill="#de3221"/>
    <path d="M84.67,120.42v.08l0,0Z" fill="#de3221"/>
  </g>
  <g>
    <path d="M321,136.7c-.09.61-.19,1.23-.25,1.85-.35,3.45.42,4.59,4.09,6a4.75,4.75,0,0,1-.48,2.52c1.07,1,2.56,1.42,3.43,2.82,1.36-1.1,2.36-3.51,4.44-1.49a1.53,1.53,0,0,1,0,2.5c-1.49,1.23-2.26,1.16-4.06-.61-2.32,2.53-1.92,5.71,1,7.8a8.47,8.47,0,0,1,2.79,8.22c-.92,3.08.45,4.59,3.57,5.14a33.45,33.45,0,0,0,12.38-.16,2,2,0,0,1,2.16,1.62c0,2.65,1.61,4.9,1.65,7.48s-.81,3.6-3.45,4.36A12.78,12.78,0,0,0,345,185.8c-1.59.92-4-.87-4.11-2.88-.07-1,0-2.1-.85-2.95,1.17-.88,1.91-2,1-3.43a2.83,2.83,0,0,0-3.31-1.14c-1.69.39-.3,1.75-.6,2.58-.6.5-1.17.24-1.77.05-4.43-1.37-7.94.86-8.33,5.46-.14,1.78-1,3.45-.63,5.29.15.69-.33,1.1-.88,1.51-2.44,1.83-2.55,2.36-1.17,4.91-.69,1.12-1.64.61-2.52.38-1.66-.44-2.83-.35-3.18,1.79s-2.36,3.26-4,4.45c-2.32,1.72-2.77,6.63-.53,8.46,1.68,1.37,2.91,3.26,5.17,4,1.6.52,1.42,2.26.91,3.37a2.65,2.65,0,0,1-3.56,1.26,7.36,7.36,0,0,0-4.76-.72,2.84,2.84,0,0,1-3.4-2c-.64-1.83-1.52-3.45-4-3a1.13,1.13,0,0,1-1-.26c-1.84-2.4-4.33-1-6.53-1.1-1.22-.05-2,.74-2,2.15a30.62,30.62,0,0,1-.33,6.31c-.89-1.65-1.1-3.61-1.65-5.46-.31-1-.78-1.66-1.65-1.32a8.35,8.35,0,0,1-3.43.2c-2.07,0-3.94,2-4.48,5-.16.84-.71,1.74.11,2.74s-.5,1.92-.84,2.87a.66.66,0,0,1-1.06.23c-.85-.62-.73-1.42-.59-2.38.33-2.3.47-4.62.6-6.94,0-.86-.32-1.79-1.31-1.8a10.85,10.85,0,0,1-5.07-1.7c-4.8-2.61-8.24-.65-12,2.4-2.55,2.07-3,4.92-4.43,7.41s-1.41,2.63-4.13,1.5a2.34,2.34,0,0,0-.4-.1c-.9-.16-2.21.43-2.59-.73a4.19,4.19,0,0,1,.39-3.38c1.09-1.77,1.95-3.74,3.75-5.1a2.65,2.65,0,0,1,.49,2.46,1.45,1.45,0,0,0,.68,1.8c.85.34,1.09-.46,1.51-1a5.81,5.81,0,0,0,1.05-2.65c.2-1.26-.16-2.2-1.55-2.47-1.73-.33-2.06-1.31-1.52-2.89.41-1.19.6-2.45.9-3.68.4-1.6-.53-2.65-1.61-3.5a12.36,12.36,0,0,0-3.22-1.83,4,4,0,0,1-2.26-2.49c-.69-1.68-2.06-2.92-2.91-4.49a1.23,1.23,0,0,0-1.39-.72c-1.44.53-2.27-.42-3.28-1.09a22.11,22.11,0,0,0-4.64-2.73c-1.59-.59-2.28-2.39-3-3.81-1.71-3.18-2.08-6.72-2.16-10.28,0-1.41-.71-2.66-1-4a1.89,1.89,0,0,1,2.24-2.37c2.54.44,3.9-.82,3.1-3.27a3.85,3.85,0,0,1,.41-3.63,2.3,2.3,0,0,0-.29-3.21c-1.56-1.42-1.63-3.45-2.35-5.2-.5-1.2,1.4-3.1,3.17-3.53,2.5-.61,5.18-1,5.78-4.27,0-.24.33-.61.51-.61,2.24-.05,3.18-1.8,4.46-3.22,1.88-2.1,1.89-3.5,0-6-1.72-2.23-2.56-5-4.49-7.17a1.17,1.17,0,0,1,.12-1.41c1-.43,1.42.47,2.05.93,3.11,2.24,6.42,3.67,10.39,2.71,2.62-.64,3.16-1.23,3.58-4a3.25,3.25,0,0,1,1.08-2c3-2.31,2.71-5.64,3-8.84.14-1.72-.66-3.6.71-5.23,2.56,1.2,4.73-.25,7-.91,1.87-.56,3.84-.07,5.67-1,1-.51,1.31,1.19,2.35,1.32,1.3.16,2.56.67,3.86.78,3.76.32,6.44,2.83,9.48,4.58,3.44,2,6.67,4.36,10.25,6a11.63,11.63,0,0,0,4.86,1.28,3.18,3.18,0,0,0,2.69-1.17,6.46,6.46,0,0,1,4.73-2.09,2.74,2.74,0,0,1,.05,3.47,2.47,2.47,0,0,0-.2,2.57,10,10,0,0,1,.57,4.86c-.25,3.3,2.26,4.95,4.26,6.89Z" fill="#de3221"/>
    <path d="M374.25,171.7c-2.45.65-3.9-1.06-5.18-2.95a2.37,2.37,0,0,1,1.76-3.76c2.16-.23,4.31-1,6.5-.07,1.06.48,1.89-.54,2.92-.67,2.25-.28,2.72,1.25,3.12,2.79a2.41,2.41,0,0,1-1.71,3.09C379.25,170.58,377.05,172,374.25,171.7Z" fill="#de3221"/>
    <path d="M224.8,110.44c2.24-1.86,2.79-1.83,4,.41.42.77,1.19.89,1.72,1.4a105.28,105.28,0,0,1,8.26,8.24c.94,1.13,1.7,2.42.31,3.6s-2.33.08-3.67-.73a15.86,15.86,0,0,1-5.67-6.55C228.48,114.32,225.43,113.42,224.8,110.44Z" fill="#de3221"/>
    <path d="M274.83,89.15c-1.12-.15-1.48-.93-1.77-1.68a32.21,32.21,0,0,1-2.64-13.2c0-.85,0-1.89,1.06-2.25a1.88,1.88,0,0,1,2.45,1.35c1,3.24,2.93,6.16,2.94,9.77C276.88,85.46,275.76,87.19,274.83,89.15Z" fill="#de3221"/>
    <path d="M376.93,102.14c-1.91-.08-2.7-.62-2.14-2.1a11,11,0,0,1,3.76-5.26c2.25-1.59,4.55-3.1,6.83-4.64a1.79,1.79,0,0,1,2.13-.19c.74.52.61,1.3.32,2a3.21,3.21,0,0,1-.39.93,46.35,46.35,0,0,1-8.42,8.14A5.33,5.33,0,0,1,376.93,102.14Z" fill="#de3221"/>
    <path d="M312,111.49c1.83-1.43,3-3.51,5.22-4.37a1.33,1.33,0,0,0,.92-1.27,1.32,1.32,0,0,1,1.27-1.38c1.48-.26,3-.4,3.71-2.11a.82.82,0,0,1,1.41-.07c.49.62.24,1.21-.44,1.52-1.07.48-2.19.79-2.86,1.91s-1.33,2.45-.64,4c.78,1.78-.65,5.81-2.24,6.91-1.36.94-3.32-.17-3.56-2C314.43,112,314.43,112,312,111.49Z" fill="#de3221"/>
    <path d="M321,136.72a4.09,4.09,0,0,1,5.17-2.11c2.43,1,4.72,2.27,7.52,1.78a1.23,1.23,0,0,1,1.3,1.34c-.11,1.45.13,3.05-1.52,4a10.74,10.74,0,0,1-6.86,1.17c1.24-1.27.66-2.79,1.2-4.11.32-.78-1.85-2.92-2.66-2.51-1.41.71-2.8.24-4.17.44Z" fill="#de3221"/>
    <path d="M343.16,247.45c-2.39-.79-8.46-8.37-7.93-12.78,2.91-.65,3.52-.33,4.28,2.41a26.9,26.9,0,0,0,3.68,7.27C344,245.54,344.06,246.43,343.16,247.45Z" fill="#de3221"/>
    <path d="M235.56,198.27a4.36,4.36,0,0,0-3.9,1.38c-1.57,1.67-3.62.86-5.47.92-.76,0-1-.87-1.09-1.56s.56-.86,1.12-1a5.44,5.44,0,0,1,1.2-.31c3.71.15,6.75-1.68,9.84-3.32,1.4-.74,2.82-.5,3.41.62s-.62,2-1.72,2.61A5,5,0,0,1,235.56,198.27Z" fill="#de3221"/>
    <path d="M361.12,213.65c-.26,1.07-1,1.51-2,1a6.17,6.17,0,0,0-4.59-.62c-.73.22-1.32-.37-1.79-.87s-.68-.93-1.25-1c-1.28-.22-2.17-1.1-2-2.21.22-1.4,1.87-1.45,2.87-1.42a5.6,5.6,0,0,1,4.17,1.51,8.14,8.14,0,0,0,3,1.79A2.17,2.17,0,0,1,361.12,213.65Z" fill="#de3221"/>
    <path d="M269.69,252.18c-1.4-.84-1.28-2.21-1.3-3.38-.06-2.93-.1-5.9,1.89-8.38.46-.56.88-1.43,1.81-1a1.64,1.64,0,0,1,.77,2c-.54,2.34-.47,4.77-1.21,7.09C271.22,249.81,271.6,251.5,269.69,252.18Z" fill="#de3221"/>
    <path d="M242.15,144.21c-.27.63-.5,1.4-1.4,1.16s-1.88-.33-2.35-1.18c-.71-1.3-2-1.56-3.17-2.06l-1.9-.79c-.83-.35-1.55-.83-1.12-1.86.5-1.2,1.41-.56,2.07-.23,1.89,1,4.13.85,5.92,2.15A7.14,7.14,0,0,1,242.15,144.21Z" fill="#de3221"/>
    <path d="M282.3,232.45c.28,1.22-.44,2.27-.62,3.42a1.23,1.23,0,0,1-1.41.95c-.72,0-.82-.53-.93-1.13-.33-1.81-.52-3.65-1-5.44a2.22,2.22,0,0,1,1.47-2.86c1.4-.4,1.66.8,1.86,1.85S282.56,231.28,282.3,232.45Z" fill="#de3221"/>
    <path d="M296.41,247.49c-.44.68.63,2.4-1.05,2.49s-1.23-1.48-1.47-2.5c-.37-1.58-.81-3.15-1.26-4.71-.33-1.13-.08-2.2,1-2.58s1.66.62,1.79,1.51C295.66,243.59,296.73,245.32,296.41,247.49Z" fill="#de3221"/>
    <path d="M217.71,163.94c-1.23-1.46-.11-2.26.84-2.59,1.92-.66,3.95-1.23,6-.4.82.34,1.68.68,1.49,1.89s-1.22.89-1.95,1C222,164.29,219.9,163.49,217.71,163.94Z" fill="#de3221"/>
    <path d="M261.05,99c1,2.69,0,5.76,1.46,8.45.24.45-.09,1.21-.18,1.81-.13.81-.37,1.52-1.42,1.39-.88-.1-1.14-.78-1.18-1.47-.14-2.38.16-4.77-.25-7.15C259.26,100.71,260.93,100.17,261.05,99Z" fill="#de3221"/>
    <path d="M192.2,125.43c1.69-1.7,2.8-1.73,5.3-.05,1,.65,1.93,1.29,2.93,1.89.5.29,1.18.66.91,1.43s-1,.63-1.61.58a8.34,8.34,0,0,1-4.66-2A14.3,14.3,0,0,0,192.2,125.43Z" fill="#de3221"/>
    <path d="M352.25,169.09c-.32.65-.91,1.49-1.75.68-1.71-1.62-4.07-2.13-5.8-3.65a4.6,4.6,0,0,1-1.3-3.17C346.74,164.71,349.9,166.18,352.25,169.09Z" fill="#de3221"/>
    <path d="M295,226c.95,1.56,1.94,3,2.71,4.48a2.14,2.14,0,0,1-1.12,2.8c-.87.49-1.48-.37-2.07-1.16C293,230.07,293.31,228.17,295,226Z" fill="#de3221"/>
    <path d="M368.87,138.92c-3.67.86-7.06,2.72-11.19,3C359.68,139.59,366.81,137.63,368.87,138.92Z" fill="#de3221"/>
    <path d="M308.52,106.53c-1.9-2.38-1.18-5.87,1.22-8.18.62.12,1.18.66,1,1.1A54.83,54.83,0,0,0,308.52,106.53Z" fill="#de3221"/>
    <path d="M223.47,150.61a4.92,4.92,0,0,1,4.24,1.19c1.13.86.7,1.93-.29,2.22-1.43.43-2.45-.89-3.62-1.53C222.79,151.94,223.3,151.27,223.47,150.61Z" fill="#de3221"/>
    <path d="M255.87,232.07a10.11,10.11,0,0,1-1.09,6C253.68,234.35,254,232.69,255.87,232.07Z" fill="#de3221"/>
    <path d="M271.12,219.65c1.47,1.92.68,3.28-.64,4.87C269.38,222.62,269.45,221.15,271.12,219.65Z" fill="#de3221"/>
    <path d="M339.64,189.49c2.36,0,3.54,1.59,5.69,2C342.69,192.26,341.56,190.57,339.64,189.49Z" fill="#de3221"/>
    <path d="M328.75,198.6c1.46-.26,2.28.23,2.63,1.31a.93.93,0,0,1-.91.94C329.28,200.74,329,199.82,328.75,198.6Z" fill="#de3221"/>
    <path d="M252.59,83.38c.89,1.41,2,2.72,1.48,4.62C254.09,86.24,251.88,85.39,252.59,83.38Z" fill="#de3221"/>
    <path d="M329,132.32c1.41-1.76,3.06-.87,4.64-1.11C332.36,132.49,331.6,132.67,329,132.32Z" fill="#de3221"/>
    <path d="M222.22,128.72c1.89.35,3.17.87,4.11,2.1C225,130.35,223.55,130.22,222.22,128.72Z" fill="#de3221"/>
    <path d="M296.26,255.54a4,4,0,0,1,0,2.45c-1.07.35-1.12-.49-1.28-1.1C294.8,256,295.22,255.63,296.26,255.54Z" fill="#de3221"/>
    <path d="M213.85,105.82a5.57,5.57,0,0,1-2-3l0,0a7.73,7.73,0,0,1,2,2.94Z" fill="#de3221"/>
    <path d="M213.83,105.82l.21.31.12-.14-.31-.17Z" fill="#de3221"/>
    <polygon points="345.8 192.13 345.85 192.31 345.93 192.14 345.8 192.13" fill="#de3221"/>
    <path d="M211.85,102.86l-.13,0,.1,0Z" fill="#de3221"/>
  </g>
</svg>
