<svg id="Assets" xmlns="http://www.w3.org/2000/svg" width="410" height="357" viewBox="0 0 410 357">
  <title>blood</title>
  <g>
    <path d="M3,94H252.86V345.58H3Z" fill="#fefefe"/>
    <path d="M124,280c-2.52-2.76-1.82-5.55-.89-8.83l2.12,3.07a2.72,2.72,0,0,0,.52-3.93c-.67-.84-2.23-1-3.4-1.41l-.54.68c-.43-1.39-1-2.76-1.28-4.18a2.78,2.78,0,0,0-3.39-2.42,10.15,10.15,0,0,1-7.51-1.91,3.52,3.52,0,0,0-4.13-.38c-.56.31-1.46,0-2.2,0a36.53,36.53,0,0,1-5.44.09c-3.24-.43-5.11-3-7.17-5.19-1.52-1.58-2.76-3.42-4.16-5.12-1.07-1.29-1-2.46.65-2.92,2.37-.69,1.34-2,.79-3.21a18.65,18.65,0,0,1-1.31-2.86,3.68,3.68,0,0,0-2.47-3c-4.23-1.62-4.62-4-1.52-7.32,1-1.1,2.13-2.28,1.33-4.08a1.38,1.38,0,0,1,.27-1.29c2.23-1.42,1.33-3.84,1.79-5.77.13-.55-1-1.66-1.83-2.12-2.23-1.28-4.56-2.37-6.88-3.48a11.29,11.29,0,0,0-1.88-.54l.9-.91a62.54,62.54,0,0,0,7.23-.94c4.16-1,5.24-3,4.33-7.08a3.13,3.13,0,0,1-.1-1.4c1-3.64-1-6.38-2.73-9.21-.76-1.24-2-2.69.91-3,.59-.06,1.16-1,1.63-1.56a14.87,14.87,0,0,1,7.69-5.45c5.1-1.62,10.17-1.37,15.32-1.44a82.22,82.22,0,0,0,8.85-.66c1.64-.2,3.13-.89,3.32-2.94a2.87,2.87,0,0,1,.64-1.51,16.44,16.44,0,0,1,1.82-1.61c.59.73,1.49,1.38,1.69,2.21.54,2.17,5.13,7.14,7.25,7.88a6,6,0,0,1,2.76,2c2,2.81,2.76,3.24,6.08,2.69.58,2.28,2.26,2.53,4.23,2.2l-.45-.54,2.69-2.42c.53.64,1.55,1.33,1.49,1.91-.23,2.41-2.25,1.55-3.68,1.65-.34,2.28.59,3.36,3.44,4.52a17.65,17.65,0,0,1,4.54,2.41,8.45,8.45,0,0,1,2.43,3.55c.59,1.63,1.57,2.56,3.1,2,2.94-1.06,6.08-1.88,8.32-4.28,2.79-3,4.52-1.84,6.2.53.83,1.17,2.4,1.9,2.95,3.14a4.28,4.28,0,0,1-.38,3.63c-1.19,1.63-2.28,4-4.82,3.62a4,4,0,0,1-3.24-3.73,2.57,2.57,0,0,0-1.08-1.83,2.75,2.75,0,0,0-2.31.22c-.45.32-.39,1.35-.56,2.06l.69.31a19.22,19.22,0,0,1-1.86.75,4.87,4.87,0,0,0-3.52,6.68,5,5,0,0,0,.65,1.46c2.18,2.89.71,6.35,1.47,9.46.07.27-.53.7-.8,1.06-.42.55-1.1,1.07-1.18,1.67a51.25,51.25,0,0,0-.71,7.46c0,4.37,1.79,5.74,6.81,5.65a3.67,3.67,0,0,0,1-.1c1.65-.48,2.89.32,3,1.77s-.88,2.72-2.63,3.09a5.66,5.66,0,0,0-2.66,1.13,2.8,2.8,0,0,1-4.22.07c-1.27-1.22-2.26-1.35-3.68-.43-.52.34-1.43,0-2,.3a21.19,21.19,0,0,0-4.53,2.59c-.43.36-.2,1.88.13,2.71a27.33,27.33,0,0,1,1.62,3.56l-.81-.7c-3.16-2.69-4.28-2.74-6.85-.32-1.35,1.28-1.22,4.82.27,7,.09.13.26.22.31.36.32.85.64,1.71.87,2.59,0,.06-.88.51-1,.42a9.39,9.39,0,0,1-1.71-2.11c-.79-1.5-1.29-3.16-2.19-4.57a2.71,2.71,0,0,0-2.23-.74c-1.54.2-3,1-4.56,1.06-4.69.18-6.32,3.26-7,7.15a34.67,34.67,0,0,0-.26,6.66c.05,1.88.21,3.52-2.49,3.35C125.34,278.94,124.7,279.61,124,280Z" fill="#e53621"/>
    <path d="M188.1,190.11c-.74-.26-2.07-.35-2.72-1.05s-1.85-2.13-.06-3.3c2.32-1.52,4.54-3.2,6.91-4.63a2.65,2.65,0,0,1,2.44,0,4.22,4.22,0,0,1,1.17,2.85C195.76,185.65,190.2,190.06,188.1,190.11Z" fill="#e53621"/>
    <path d="M69.45,215.36c-3.36-1.17-6.45-2.25-9.54-3.31a39,39,0,0,1-4-1.35c-.43-.2-.92-1.25-.75-1.57.31-.56,1.2-1.31,1.67-1.21q6.32,1.43,12.57,3.19c1.24.35,2.79,1,1.57,2.8A8.8,8.8,0,0,1,69.45,215.36Z" fill="#e53621"/>
    <path d="M71.29,161c1.28.18,2.35,0,3.08.49,2.91,1.74,5.65,3.77,7.05,7a19.07,19.07,0,0,1,.8,4.12C78.44,172.1,73.72,167.16,71.29,161Z" fill="#e53621"/>
    <path d="M166.39,126.35c-1.31,3.4-2.55,6.75-3.93,10-.24.56-1.13.85-1.72,1.26-.41-.63-1.06-1.21-1.19-1.89-.58-3.1,1-5.67,2.24-8.32a10.23,10.23,0,0,1,1-1.81c.51-.69,1.13-1.3,1.69-1.94Z" fill="#e53621"/>
    <path d="M119.24,171.51a19.57,19.57,0,0,1,3.29-8.72l.72.17a5.93,5.93,0,0,0-.06,1.65c.22.91.36,2.06,1,2.61a5.71,5.71,0,0,1,1.86,5.26c-.07.68-.74,1.75-1.26,1.83a4.64,4.64,0,0,1-2.37-.88C121.45,172.91,120.53,172.3,119.24,171.51Z" fill="#e53621"/>
    <path d="M144.24,188.67c-1.23-1.5-2-3.31-3.22-3.68s-2.78.79-4.48,1.38a4.3,4.3,0,0,1,3.6-3.46c1.61-.38,3.14-1.15,4.75-1.52.8-.18,2.36-.07,2.48.28.4,1.17.81,2.8.27,3.7C146.78,186.82,145.18,187.81,144.24,188.67Z" fill="#e53621"/>
    <path d="M189.74,252c1.55-1.35,2.84-1.57,4.6.09s3.91,2.49,5.81,3.82c.52.36.73,1.16,1.09,1.76-.69.12-1.46.5-2.05.31C195.61,256.81,192.16,255.42,189.74,252Z" fill="#e53621"/>
    <path d="M93.32,274.14c4-2.81,6.08-7,9.7-10.53,1.25,2.82.32,4-1,5.24a23.47,23.47,0,0,0-3.42,3.91A3.84,3.84,0,0,1,93.32,274.14Z" fill="#e53621"/>
    <path d="M199.88,225.37c-2,3.43-7.09,4.44-10.57,2.23C191,224.62,195.76,223.56,199.88,225.37Z" fill="#e53621"/>
    <path d="M149.87,293.52c-3-.51-5.35-5.72-4.51-10.1C147.85,283.87,150.42,289.61,149.87,293.52Z" fill="#e53621"/>
    <path d="M82.56,228.06a12,12,0,0,1-2.26.61c-2,.13-3.93.18-5.89.15a1.68,1.68,0,0,1-1.16-.77c-.1-.16.31-.92.62-1a39.71,39.71,0,0,1,4.74-1.32C80.27,225.38,81.76,225.68,82.56,228.06Z" fill="#e53621"/>
    <path d="M146.82,270.57c2.92,1.38,4.11,3.16,4.55,7-2.35.41-3.08-1.62-4.18-2.84S145.47,272.08,146.82,270.57Z" fill="#e53621"/>
    <path d="M168,280.64c-1.9.33-5.52-3.08-6.42-6.06C163.75,273.65,167,276.7,168,280.64Z" fill="#e53621"/>
    <path d="M79,248.3c-1.8,1.17-3.55,2.37-5.37,3.44a1.47,1.47,0,0,1-1.3-.32,1.18,1.18,0,0,1,0-1.17c1.19-1.1,2.45-2.14,3.73-3.14S78.16,246.75,79,248.3Z" fill="#e53621"/>
    <path d="M37,234.49c2.93-2.37,5.73-1.68,8.52-1.3C44.77,235.67,42.07,236.17,37,234.49Z" fill="#e53621"/>
    <path d="M82.71,193.87c-1.32.18-2.32.52-2.46.3-1.58-2.46-3.8-4.63-3.55-8Z" fill="#e53621"/>
    <path d="M164.91,195.86c2.68.22,5.37.41,8,.68.25,0,.57.48.64.78a1,1,0,0,1-.36.8C172.2,198.78,165.7,197.47,164.91,195.86Z" fill="#e53621"/>
    <path d="M156.82,263.57a14.68,14.68,0,0,1,3.54,1.63c.6.5.63,1.69.91,2.57a9.94,9.94,0,0,1-2.39-.07C157,267.16,156.38,265.76,156.82,263.57Z" fill="#e53621"/>
    <path d="M166,174.06c.31-2.47,4.37-6.61,6.95-6.33Z" fill="#e53621"/>
    <path d="M114.31,170.68c-2.81-1.05-2.41-3.39-3.13-5-.2-.45.49-1.28.78-1.94l.7.16Z" fill="#e53621"/>
    <path d="M76.51,240.28a8.54,8.54,0,0,1-2.29.8,13.13,13.13,0,0,1-2.66-.47c.2-.42.34-1.15.61-1.2a18.85,18.85,0,0,1,3.38-.27C75.75,239.13,75.95,239.58,76.51,240.28Z" fill="#e53621"/>
    <path d="M129.62,285.44c2.22.08,2.73.89,2.47,4.36Z" fill="#e53621"/>
    <path d="M137.28,273.06l-1.39-3.8c2.21.9,3,1.84,2.22,3.51Z" fill="#e53621"/>
    <path d="M177.79,217.05l-4,.35-.06-.68,3.93-.32Z" fill="#e53621"/>
  </g>
  <g>
    <path d="M143.54,54.52c-.33.87-.67,1.74-1,2.61a1.27,1.27,0,0,0,.9,1.82c1.4.44,2,1.76,3,2.57a9.19,9.19,0,0,0,3,1.31c.91.29,1.54-.28,2.06-1A21,21,0,0,1,153.65,59c.42-.41,1.68-.73,1.84-.52a3.15,3.15,0,0,1,.83,2.29,7.13,7.13,0,0,0-.36,3c.14,1.08-.67,1.73-1.69,1.94s-1.68.7-1.54,1.93a1.87,1.87,0,0,1-.53,1.17c-.72.86-.9,3.45-.14,4.27a2.18,2.18,0,0,0,1.28.53c.94.11,1.89.09,2.83.13.11,0,.22.1.44.2-1.13.32-2.17.59-3.19.92a1.17,1.17,0,0,0-.71.53c-.89,2.61.24,4.49,3.07,5.11.49.11,1,0,1.54,0a9.09,9.09,0,0,1,1.43.49c-.12.32-.15.79-.37.92a1.44,1.44,0,0,1-1.19.13,5.62,5.62,0,0,0-3.46-.45,2.08,2.08,0,0,0-1.52.81c-.69,1.52-1.1,3.16-1.74,4.71a3.52,3.52,0,0,0,.69,3.75,14.61,14.61,0,0,0,2.16,2.5,23.33,23.33,0,0,0,3.12,1.83c.32.18.77.32.91.6a3.73,3.73,0,0,1,.32,1.49c0,.23-.32.46-.37.72-.33,1.7-.66,2-2.27,1.22a22.27,22.27,0,0,1-3.23-2.27l.15-.44c.56,0,1.12,0,1.68,0a3.47,3.47,0,0,0,.75-.21c-.07-.22-.07-.54-.22-.64a9.23,9.23,0,0,0-2-1.09,1,1,0,0,0-1.45.9c-.2,1-.8,1.23-1.72.88a17.82,17.82,0,0,1-1.73-.57,1.76,1.76,0,0,0-2.55.88,8,8,0,0,1-4.31,3.91c-.89.34-2,.84-1.41,2.26a.13.13,0,0,1,0,.12c-2,1.53-2.23,4.62-4.75,5.56a26.19,26.19,0,0,1-5.12.94c-1.09.17-2.2.17-3.28.38-1.47.28-2-.16-1.69-1.62.22-1.05-.51-1.58-1.91-1.55a4.82,4.82,0,0,1-2.18-.35,2,2,0,0,0-2.26.24,6.52,6.52,0,0,1-2.07,1c-1.55.39-2.58-.41-2.92-2A10.7,10.7,0,0,0,112,103c-.16-.32-.75-.39-1.08-.65a2.1,2.1,0,0,1-.76-.93c-.27-1-2.08-3-3.09-3.15a1.77,1.77,0,0,0-1.07.1c-1.72.94-3.4,2-5.11,2.9a4.89,4.89,0,0,1-1.16.31l-.2-.3c.23-.34.48-.68.7-1,1.24-2,2.47-4,1.83-6.5a2.59,2.59,0,0,0-2-2.05,10.78,10.78,0,0,1-2.07-1.2,8.38,8.38,0,0,0-2.26-.94c-1.47-.26-3-.31-4.47-.49a5.07,5.07,0,0,1-1.11-.45c1.25-1.41.13-2.63,0-3.91s-.35-2.42-.51-3.63a1.11,1.11,0,0,1,.08-.48,31,31,0,0,1,1.59-4.44c1.05-2,2.42-3.82,3.57-5.77,1.3-2.2,2.58-4.42,3.71-6.71a1.82,1.82,0,0,0-.59-2.41A2.71,2.71,0,0,1,97,60c-.15-.45-.28-1.24-.06-1.42a2.66,2.66,0,0,1,1.59-.28c.77,0,1.54.19,2.32.24a9.2,9.2,0,0,1,1.47-.06c1.89.46,3.19-.51,4.5-1.64a2.44,2.44,0,0,1,1.48-.42c2.47,0,3.43-.35,3.95-2.39,1.75,0,1.75,0,3.15-1.65-.68-.72-2-1.36-.8-2.55a1.62,1.62,0,0,1,1.59,0c1.12,1,.26,1.79-.55,2.48,1.8,1.36,2.51,1.25,4.47-.3,1.72-1.36,3.56-2.43,5.95-1.52,1.25.48,2.23-.36,2.39-1.7.08-.67.43-1.31.47-2,.07-1.28,0-2.57,0-3.86,0-1-.61-2.15.59-2.92.14-.09.24-.27.38-.3a41,41,0,0,1,4.2-.87,2.48,2.48,0,0,1,2.7,2c.07.24.11.48.18.72.76,2.75.57,3.83-2.83,4.13-.21,0-.42-.27-.65-.31-.59-.1-1.48-.41-1.73-.14-.43.45-.47,1.28-.67,1.95l1.62.49-.32.89a3.61,3.61,0,0,0,2.91,5.09,25.11,25.11,0,0,1,2.75.47,4.31,4.31,0,0,1,1.76,1.06c.75.77,1.45,1,2.37.36.45-.32.92-.63,1.37-.94Z" fill="#de3221"/>
    <path d="M129.79,25a2.83,2.83,0,0,1-1.62,3,2.61,2.61,0,0,1-1.74.19c-.32-.08-.69-.72-.71-1.14-.13-1.85-.08-3.71-.22-5.56-.08-1.13.34-1.72,1.42-1.88a2,2,0,0,1,2.16,1.44C129.36,22.39,129.56,23.72,129.79,25Z" fill="#de3221"/>
    <path d="M98.32,105.87a2.06,2.06,0,0,1-.35.64,20,20,0,0,1-2.23,2.09c-1.07.79-2.27,1.41-3.35,2.19-.61.44-1.08,1.08-1.66,1.57s-1,.78-1.6.11-.48-1.29.33-1.95c1-.79,1.82-1.71,2.74-2.54,1.39-1.25,2.74-2.53,4.21-3.67C97.21,103.71,98.32,104.55,98.32,105.87Z" fill="#de3221"/>
    <path d="M78.49,82.61a15.92,15.92,0,0,1-6.72,2.15,12.11,12.11,0,0,1-3,0A1.63,1.63,0,0,1,67.67,84c-.28-.54.1-.9.68-1.19a12.05,12.05,0,0,1,7-1.59A13.77,13.77,0,0,1,78.49,82.61Z" fill="#de3221"/>
    <path d="M88.19,22c0,1.06-.51,1.51-1.31,1.06A9,9,0,0,1,84.11,21a35.86,35.86,0,0,1-2.84-4.55,1.24,1.24,0,0,1,0-1.12,1.07,1.07,0,0,1,1-.15,17.54,17.54,0,0,1,3.07,2.5,31,31,0,0,1,2.52,3.7A2.69,2.69,0,0,1,88.19,22Z" fill="#de3221"/>
    <path d="M92.45,61.11c-1.47-1.65-2.71-3-3.9-4.41-.22-.26-.19-.71-.36-1-.26-.5-.59-1-.88-1.44a3.47,3.47,0,0,1-.4-.82c0-.07.34-.37.42-.33a2,2,0,0,1,.71.54,9.07,9.07,0,0,0,1.39,1.78,2.62,2.62,0,0,0,1.86.4,3.93,3.93,0,0,1,3.71.92c.38.36.8,1.24.63,1.5a2.35,2.35,0,0,1-1.63.92C92.87,59.19,92.28,59.55,92.45,61.11Z" fill="#de3221"/>
    <path d="M111.53,52.78c-1.09-.26-1.93-.5-2.78-.65-.66-.11-1.39,1-1.31,1.71a4.57,4.57,0,0,1-.26,2c-1.2-1.19-1-2.41-.43-3.73.36-.8.47-1.71.78-2.54a5.67,5.67,0,0,1,.9-1.74c.88.25,2.09.55,2.42,1.22A13.4,13.4,0,0,1,111.53,52.78Z" fill="#de3221"/>
    <path d="M174.2,45.17c-1,2.42-4.77,4.88-8,4.89a1.89,1.89,0,0,1,1.36-2.5c1.56-.58,3.06-1.32,4.6-1.94A14.18,14.18,0,0,1,174.2,45.17Z" fill="#de3221"/>
    <path d="M142,108.66a5.77,5.77,0,0,0,.66,2c.83,1,.64,2.07.61,3.14,0,.32-.49.63-.75.95-.26-.24-.62-.44-.75-.73a3.34,3.34,0,0,1-.35-1.54c.17-1.87-.86-3.34-1.53-4.93a2.26,2.26,0,0,1-.12-1.25c.2-1,.88-1.23,1.48-.42a13.17,13.17,0,0,1,1.19,2.57Z" fill="#de3221"/>
    <path d="M150.81,39.63c.57-1.18,1-2.14,1.49-3.1a10.82,10.82,0,0,1,1-1.81,4.21,4.21,0,0,1,1.14-.76,4.57,4.57,0,0,1,.42,1.39,6.31,6.31,0,0,1-.4,2.79A16.42,16.42,0,0,1,152,40.9Z" fill="#de3221"/>
    <path d="M175.31,89.61c-.49.28-.84.65-1.16.63-2.07-.13-4.25.15-6-1.27a3.77,3.77,0,0,1-.64-1c.38-.18.79-.57,1.13-.51,1.91.34,3.81.76,5.7,1.22C174.62,88.81,174.88,89.22,175.31,89.61Z" fill="#de3221"/>
    <path d="M110.82,103.93c-.33.67-.54,1.2-.83,1.68-.47.76-1,1.49-1.48,2.24a5.92,5.92,0,0,1-.61,1.05,1.07,1.07,0,0,1-.86.19c-.13,0-.32-.5-.25-.69a28.35,28.35,0,0,1,1.56-4c.25-.47,1.1-.67,1.71-.89C110.22,103.42,110.52,103.74,110.82,103.93Z" fill="#de3221"/>
    <path d="M163.27,81.51a21.55,21.55,0,0,1,2.35.51,1.06,1.06,0,0,1,.58.78c0,.18-.42.51-.7.57a22.17,22.17,0,0,1-2.91.41,2.85,2.85,0,0,1-1.41-.3.83.83,0,0,1,.12-1.59A14.64,14.64,0,0,1,163.27,81.51Z" fill="#de3221"/>
    <path d="M80.8,91.63a9.51,9.51,0,0,1,1.73-.71,14.66,14.66,0,0,1,2.07-.11c1.67-.1,3.35-.25,5-.28.3,0,.6.49.9.75-.35.27-.7.75-1.06.76-1.38,0-2.76,0-4.14-.1a.57.57,0,0,1-.35-.12c-1.21-1.14-2.52-.64-3.83-.26a2.25,2.25,0,0,1-.37,0Z" fill="#de3221"/>
    <path d="M172.72,73.3c.62.27,1.76.52,1.77.81,0,1-1,.75-1.66.9a16.43,16.43,0,0,1-2.86.6c-.5,0-1-.46-1.54-.72.47-.37.88-.93,1.41-1.07a17,17,0,0,1,2.8-.3Z" fill="#de3221"/>
    <path d="M121.39,116a14.15,14.15,0,0,1-.16,2.09,1.1,1.1,0,0,1-.73.64.84.84,0,0,1-.67-.49,22.7,22.7,0,0,1-.28-3.74c0-.33.75-.64,1.15-1a5.59,5.59,0,0,1,.6,1.16A6.15,6.15,0,0,1,121.39,116Z" fill="#de3221"/>
    <path d="M97.18,132.66c-.1-.6-.36-1.11-.21-1.4.63-1.22,1.37-2.39,2.12-3.56.11-.18.47-.21.71-.3a2.15,2.15,0,0,1,.28.76C100,130.06,98.94,131.39,97.18,132.66Z" fill="#de3221"/>
    <path d="M127.36,38.13c1,.41.93.88.45,1.49-.69.89-1.28,1.87-2,2.72a10.3,10.3,0,0,1-1.7,1.29l-.41-.43Z" fill="#de3221"/>
    <path d="M160,73.89c1-.58,1.85-1.11,2.74-1.58a1.06,1.06,0,0,1,1.59.6c.1.31-.38.93-.74,1.25C162.48,75.2,161.34,74.8,160,73.89Z" fill="#de3221"/>
    <path d="M110.18,27.61l1.41,6.48c-1.44-1.1-2.38-5.14-1.79-6.41Z" fill="#de3221"/>
    <path d="M89.17,62.86a1.46,1.46,0,0,1-2.1.44,22.49,22.49,0,0,0-2.17-.71.64.64,0,0,1,.38-1.22C86.56,61.81,87.81,62.33,89.17,62.86Z" fill="#de3221"/>
    <path d="M113.79,115.05c-.13-.5-.47-1.08-.33-1.5a3.23,3.23,0,0,1,1.16-1.58c.47-.32,1.12.42.86,1a21.26,21.26,0,0,1-1.15,2Z" fill="#de3221"/>
    <path d="M166.33,98.48a6.09,6.09,0,0,1-3.66-.77A2.81,2.81,0,0,1,166.33,98.48Z" fill="#de3221"/>
    <path d="M158.67,88.42a2,2,0,0,1-2.73-.23C156.74,87.23,157.16,87.26,158.67,88.42Z" fill="#de3221"/>
    <path d="M139.28,45.75l1.51-2.45.37.22L139.7,46Z" fill="#de3221"/>
    <path d="M144.34,52.74l.95-1.16.66.6-1.09,1Z" fill="#de3221"/>
    <path d="M73.82,95.76l2.85-1.27.19.55-3,.72Z" fill="#de3221"/>
    <path d="M101.94,112.45l-1.42,2.2-.3-.18,1.34-2.23Z" fill="#de3221"/>
    <path d="M104.67,51.16l-.31-2.56.44-.08.52,2.57Z" fill="#de3221"/>
    <path d="M179.43,74.17a3,3,0,0,1-1,.45c-.21,0-.44-.37-.9-.79h1.75Z" fill="#de3221"/>
    <path d="M157.89,51.77l-1.48,1.89-.31-.29,1.77-1.58Z" fill="#de3221"/>
    <path d="M86.43,119.24l-1.75,1.18v0l1.75-1.19Z" fill="#de3221"/>
    <path d="M86.43,119.25l.18-.12-.08-.07-.1.19Z" fill="#de3221"/>
    <path d="M80.79,91.61l-.39.18,0-.15h.44Z" fill="#de3221"/>
    <polygon points="141.27 42.72 141.26 42.79 141.37 42.76 141.27 42.72" fill="#de3221"/>
    <path d="M143.56,54.54l0-.12,0,.1Z" fill="#de3221"/>
    <polygon points="73.83 95.76 73.8 95.79 73.82 95.76 73.83 95.76" fill="#de3221"/>
    <polygon points="157.87 51.79 157.88 51.74 157.89 51.77 157.87 51.79" fill="#de3221"/>
    <path d="M84.67,120.42l0,.08,0-.06Z" fill="#de3221"/>
  </g>
  <g>
    <path d="M321,136.7c-.08.62-.19,1.23-.25,1.85-.34,3.45.43,4.59,4.09,6a4.8,4.8,0,0,1-.48,2.51c1.07,1,2.55,1.42,3.43,2.82,1.37-1.1,2.36-3.5,4.44-1.49a1.53,1.53,0,0,1,0,2.5c-1.49,1.23-2.27,1.16-4.07-.61-2.32,2.53-1.91,5.71,1,7.8a8.47,8.47,0,0,1,2.79,8.22c-.92,3.08.45,4.59,3.56,5.15a33.6,33.6,0,0,0,12.38-.16,2,2,0,0,1,2.16,1.62c0,2.66,1.61,4.9,1.65,7.49s-.81,3.59-3.45,4.35A13.36,13.36,0,0,0,345,185.8c-1.58.92-4-.87-4.11-2.88-.07-1,.06-2.1-.85-2.95,1.17-.88,1.92-2,1-3.43a2.84,2.84,0,0,0-3.31-1.14c-1.69.4-.31,1.75-.6,2.59-.6.49-1.17.23-1.77,0-4.44-1.37-7.94.86-8.33,5.46-.15,1.77-1,3.45-.63,5.29.14.68-.34,1.1-.88,1.51-2.44,1.83-2.55,2.36-1.17,4.91-.69,1.12-1.65.61-2.53.38-1.65-.44-2.83-.35-3.18,1.79s-2.36,3.26-4,4.45c-2.32,1.71-2.77,6.63-.54,8.46,1.68,1.37,2.91,3.26,5.17,4,1.6.52,1.42,2.27.91,3.37a2.64,2.64,0,0,1-3.56,1.26,7.35,7.35,0,0,0-4.76-.72,2.85,2.85,0,0,1-3.4-2c-.64-1.82-1.51-3.45-4-3a1.16,1.16,0,0,1-1-.26c-1.84-2.41-4.33-1-6.53-1.1-1.21,0-2,.74-2,2.15a30.94,30.94,0,0,1-.33,6.31c-.89-1.65-1.1-3.61-1.66-5.46-.3-1-.78-1.66-1.65-1.31a8.37,8.37,0,0,1-3.43.19c-2.06,0-3.94,2-4.48,5-.15.84-.7,1.74.12,2.74s-.5,1.92-.84,2.87a.67.67,0,0,1-1.06.23c-.85-.63-.73-1.42-.59-2.39.33-2.29.47-4.62.6-6.93,0-.86-.31-1.79-1.3-1.8a10.88,10.88,0,0,1-5.07-1.7c-4.81-2.61-8.24-.65-12,2.4-2.56,2.07-3,4.92-4.43,7.41s-1.41,2.63-4.13,1.51a2,2,0,0,0-.4-.1c-.91-.16-2.21.43-2.59-.74a4.18,4.18,0,0,1,.4-3.38c1.08-1.77,1.94-3.74,3.74-5.1a2.67,2.67,0,0,1,.5,2.46,1.45,1.45,0,0,0,.67,1.8c.85.34,1.09-.46,1.51-1a5.86,5.86,0,0,0,1.05-2.65c.2-1.26-.16-2.21-1.55-2.47-1.73-.33-2.06-1.31-1.52-2.89.41-1.19.6-2.45.9-3.67.4-1.6-.53-2.66-1.61-3.5a12.57,12.57,0,0,0-3.22-1.83,4,4,0,0,1-2.26-2.48c-.69-1.69-2.05-2.92-2.91-4.49a1.23,1.23,0,0,0-1.39-.73c-1.44.53-2.27-.42-3.28-1.09a22.66,22.66,0,0,0-4.63-2.73c-1.6-.59-2.28-2.39-3-3.81-1.7-3.18-2.08-6.72-2.16-10.28,0-1.41-.71-2.66-.95-4a1.9,1.9,0,0,1,2.24-2.37c2.53.44,3.9-.82,3.1-3.28a3.85,3.85,0,0,1,.41-3.63,2.32,2.32,0,0,0-.29-3.21c-1.56-1.42-1.64-3.45-2.36-5.2-.49-1.2,1.41-3.1,3.18-3.53,2.5-.61,5.18-1,5.78-4.27,0-.24.33-.61.51-.61,2.25-.05,3.19-1.8,4.46-3.22,1.88-2.1,1.89-3.5,0-6-1.72-2.23-2.56-5-4.49-7.17a1.17,1.17,0,0,1,.12-1.41c1-.44,1.41.47,2,.93,3.11,2.24,6.42,3.67,10.39,2.71,2.62-.64,3.15-1.23,3.57-4a3.3,3.3,0,0,1,1.09-2c3-2.31,2.71-5.64,3-8.84.14-1.71-.66-3.59.71-5.23,2.57,1.21,4.74-.25,7-.91,1.87-.56,3.84-.07,5.67-1,1-.51,1.31,1.19,2.35,1.32,1.3.16,2.56.67,3.86.78,3.76.32,6.44,2.83,9.48,4.58,3.44,2,6.67,4.36,10.25,6a11.69,11.69,0,0,0,4.86,1.28,3.2,3.2,0,0,0,2.7-1.17,6.43,6.43,0,0,1,4.72-2.09,2.75,2.75,0,0,1,.06,3.47,2.48,2.48,0,0,0-.2,2.57,9.85,9.85,0,0,1,.57,4.86c-.25,3.31,2.26,5,4.27,6.89Z" fill="#de3221"/>
    <path d="M374.25,171.7c-2.45.65-3.89-1.06-5.18-2.95a2.37,2.37,0,0,1,1.76-3.77c2.16-.23,4.31-1,6.5-.06,1.06.47,1.89-.55,2.91-.67,2.25-.28,2.72,1.25,3.12,2.79a2.41,2.41,0,0,1-1.71,3.09C379.25,170.58,377,172,374.25,171.7Z" fill="#de3221"/>
    <path d="M224.8,110.44c2.24-1.86,2.79-1.83,4,.41.42.77,1.19.89,1.72,1.4a104.46,104.46,0,0,1,8.25,8.23c.94,1.13,1.7,2.42.31,3.6s-2.33.08-3.66-.74a15.78,15.78,0,0,1-5.67-6.54C228.48,114.32,225.43,113.42,224.8,110.44Z" fill="#de3221"/>
    <path d="M274.83,89.15c-1.12-.15-1.48-.94-1.77-1.68a32.33,32.33,0,0,1-2.64-13.21c0-.85,0-1.89,1.06-2.25a1.88,1.88,0,0,1,2.45,1.35c1,3.24,2.93,6.16,2.94,9.77C276.88,85.46,275.76,87.19,274.83,89.15Z" fill="#de3221"/>
    <path d="M376.93,102.14c-1.92-.08-2.7-.62-2.14-2.1a10.9,10.9,0,0,1,3.76-5.26c2.24-1.59,4.55-3.09,6.82-4.64a1.79,1.79,0,0,1,2.14-.18c.74.51.61,1.29.32,2a3.22,3.22,0,0,1-.39.93,46.35,46.35,0,0,1-8.42,8.15A5.44,5.44,0,0,1,376.93,102.14Z" fill="#de3221"/>
    <path d="M312,111.49c1.83-1.43,3-3.51,5.22-4.37a1.32,1.32,0,0,0,.92-1.27,1.33,1.33,0,0,1,1.27-1.39c1.48-.26,3-.4,3.71-2.11a.82.82,0,0,1,1.42-.07.92.92,0,0,1-.44,1.52c-1.07.48-2.19.8-2.86,1.91-.77,1.28-1.33,2.46-.64,4,.78,1.78-.65,5.81-2.24,6.91-1.36.94-3.32-.18-3.56-2C314.43,112,314.43,112,312,111.49Z" fill="#de3221"/>
    <path d="M321,136.72a4.09,4.09,0,0,1,5.17-2.11c2.43,1,4.72,2.27,7.52,1.77a1.23,1.23,0,0,1,1.3,1.34c-.11,1.45.13,3.06-1.53,4a10.7,10.7,0,0,1-6.85,1.17c1.24-1.27.66-2.79,1.2-4.11.32-.78-1.85-2.92-2.66-2.51-1.41.71-2.8.24-4.17.44Z" fill="#de3221"/>
    <path d="M343.16,247.45c-2.38-.79-8.46-8.37-7.93-12.78,2.92-.65,3.52-.34,4.29,2.41a26.51,26.51,0,0,0,3.68,7.27C344,245.54,344.06,246.43,343.16,247.45Z" fill="#de3221"/>
    <path d="M235.56,198.27a4.38,4.38,0,0,0-3.9,1.38c-1.56,1.67-3.62.87-5.47.92-.76,0-1-.87-1.09-1.55s.56-.86,1.12-1a4.82,4.82,0,0,1,1.19-.31c3.71.15,6.76-1.68,9.84-3.32,1.4-.74,2.82-.5,3.41.61s-.62,2-1.72,2.61A5,5,0,0,1,235.56,198.27Z" fill="#de3221"/>
    <path d="M361.12,213.65c-.27,1.08-1,1.52-2,1.05a6.2,6.2,0,0,0-4.59-.62c-.74.23-1.32-.36-1.79-.87s-.68-.93-1.26-1c-1.28-.22-2.17-1.09-2-2.2.22-1.41,1.87-1.45,2.87-1.42a5.59,5.59,0,0,1,4.17,1.5,8.16,8.16,0,0,0,3,1.8A2.18,2.18,0,0,1,361.12,213.65Z" fill="#de3221"/>
    <path d="M269.69,252.18c-1.4-.84-1.28-2.21-1.3-3.38-.06-2.93-.1-5.9,1.89-8.37.46-.57.88-1.43,1.8-1a1.63,1.63,0,0,1,.77,2c-.53,2.34-.47,4.77-1.2,7.09C271.22,249.81,271.6,251.5,269.69,252.18Z" fill="#de3221"/>
    <path d="M242.15,144.21c-.27.63-.5,1.4-1.4,1.17s-1.88-.34-2.35-1.19c-.71-1.3-2-1.56-3.17-2.06l-1.91-.79c-.83-.35-1.55-.83-1.12-1.86.5-1.21,1.42-.56,2.08-.23,1.89,1,4.13.84,5.92,2.14A7.23,7.23,0,0,1,242.15,144.21Z" fill="#de3221"/>
    <path d="M282.3,232.45c.28,1.22-.45,2.27-.63,3.42-.11.69-.73,1-1.41.94s-.82-.53-.93-1.13c-.33-1.81-.52-3.65-1-5.44a2.23,2.23,0,0,1,1.47-2.86c1.4-.4,1.66.8,1.87,1.85S282.56,231.28,282.3,232.45Z" fill="#de3221"/>
    <path d="M296.41,247.49c-.44.69.62,2.41-1.06,2.49-1.52.08-1.22-1.48-1.46-2.5-.37-1.58-.82-3.15-1.27-4.71-.33-1.13-.07-2.2,1-2.58s1.66.62,1.79,1.51C295.66,243.59,296.73,245.32,296.41,247.49Z" fill="#de3221"/>
    <path d="M217.71,163.94c-1.24-1.46-.11-2.26.84-2.59,1.92-.66,4-1.23,6-.4.82.33,1.68.68,1.48,1.89s-1.22.89-1.95,1C222,164.29,219.9,163.49,217.71,163.94Z" fill="#de3221"/>
    <path d="M261.05,99c1,2.69,0,5.76,1.46,8.46.24.45-.09,1.2-.18,1.81-.13.8-.37,1.51-1.42,1.39-.88-.1-1.14-.78-1.18-1.47-.14-2.38.16-4.77-.25-7.15C259.26,100.71,260.93,100.17,261.05,99Z" fill="#de3221"/>
    <path d="M192.2,125.43c1.68-1.69,2.8-1.73,5.3,0,1,.65,1.92,1.29,2.92,1.88.5.3,1.18.66.92,1.44s-1,.62-1.62.58a8.4,8.4,0,0,1-4.66-1.95A14.24,14.24,0,0,0,192.2,125.43Z" fill="#de3221"/>
    <path d="M352.25,169.09c-.33.65-.91,1.49-1.75.68-1.71-1.63-4.07-2.13-5.8-3.66a4.63,4.63,0,0,1-1.3-3.16C346.74,164.71,349.9,166.18,352.25,169.09Z" fill="#de3221"/>
    <path d="M295,226c1,1.56,1.94,3,2.71,4.49a2.12,2.12,0,0,1-1.11,2.79c-.87.5-1.49-.37-2.07-1.15C293,230.07,293.31,228.17,295,226Z" fill="#de3221"/>
    <path d="M368.87,138.92c-3.67.86-7.06,2.72-11.19,3C359.68,139.59,366.81,137.63,368.87,138.92Z" fill="#de3221"/>
    <path d="M308.52,106.53c-1.9-2.38-1.18-5.87,1.22-8.18.62.11,1.18.66,1,1.09A54.59,54.59,0,0,0,308.52,106.53Z" fill="#de3221"/>
    <path d="M223.47,150.61a4.91,4.91,0,0,1,4.24,1.19c1.13.86.7,1.93-.3,2.22-1.43.43-2.44-.89-3.61-1.53C222.79,151.94,223.3,151.27,223.47,150.61Z" fill="#de3221"/>
    <path d="M255.87,232.07a10.13,10.13,0,0,1-1.09,6C253.68,234.35,254,232.69,255.87,232.07Z" fill="#de3221"/>
    <path d="M271.12,219.65c1.47,1.92.68,3.28-.64,4.88C269.38,222.62,269.45,221.15,271.12,219.65Z" fill="#de3221"/>
    <path d="M339.64,189.49c2.36,0,3.54,1.59,5.69,2.06C342.69,192.26,341.56,190.57,339.64,189.49Z" fill="#de3221"/>
    <path d="M328.75,198.6c1.46-.26,2.28.23,2.63,1.32a.93.93,0,0,1-.91.94C329.28,200.74,329,199.82,328.75,198.6Z" fill="#de3221"/>
    <path d="M252.59,83.38c.89,1.41,2,2.72,1.48,4.61C254.09,86.24,251.88,85.39,252.59,83.38Z" fill="#de3221"/>
    <path d="M329,132.32c1.41-1.77,3.06-.87,4.64-1.12C332.36,132.49,331.6,132.67,329,132.32Z" fill="#de3221"/>
    <path d="M222.22,128.72c1.89.35,3.17.87,4.11,2.1C225,130.35,223.55,130.22,222.22,128.72Z" fill="#de3221"/>
    <path d="M296.26,255.54a4,4,0,0,1,0,2.45c-1.06.34-1.12-.49-1.27-1.11C294.8,256,295.22,255.63,296.26,255.54Z" fill="#de3221"/>
    <path d="M213.85,105.82a5.53,5.53,0,0,1-2-3l0,0a7.7,7.7,0,0,1,2,2.95Z" fill="#de3221"/>
    <path d="M213.83,105.82l.2.3.13-.14-.31-.17Z" fill="#de3221"/>
    <polygon points="345.8 192.13 345.85 192.31 345.93 192.14 345.8 192.13" fill="#de3221"/>
    <path d="M211.85,102.86l-.13,0,.1.05Z" fill="#de3221"/>
  </g>
</svg>
