<svg id="Layer_1" data-name="Layer 1" xmlns="http://www.w3.org/2000/svg" width="1283.74" height="3878.57" viewBox="0 0 1283.74 3878.57">
  <title>Book_v2</title>
  <path id="Black_right" d="M1217.28,72.23c22.81,43.21,37.76,114.43,36.87,242.63l-1.52,3242.45c-3.67,64.57-16.6,101.13-41.05,103-173.69,84.89-372.8,49-585.6-22.08-432.45,139.53-594.06-84.05-569.36-139.83L88,148.67C97,37.09,116.43,12.4,139.74,19c8.33,2.56,19.73,1.45,30.36,6.36,132.77,61.36,333.7,76.13,448.49,60.66,7-.95-.89-2.24,6.06-.79C811.67,124.15,1065.61,110.51,1217.28,72.23Z" stroke="#000" stroke-miterlimit="3.33" stroke-width="0.33"/>
  <path id="Right_side" d="M631.66,91.3c214.85,75.49,404.81,37.91,563.7-1,22.56,43.21,37.35,114,36.61,241.2l2.59,3212.07c-3.45,64.1-16.15,100.18-40.31,101.13-169.93,68.55-372.78,76.49-575.65-14.31-155.4,67.08-331.27,55.58-531.77-13.22-21-36.09-28.35-91.16-30.2-153.36L83.37,145.82C92.12,35.19,111.23,11.45,134,18.57,328.18,120.18,477.45,122.16,631.66,91.3Z" fill="#ffffe1" stroke="#000" stroke-miterlimit="3.33" stroke-width="0.33"/>
  <path id="Middle_line" d="M623.93,85.62V517.4l-.33,634.69V3000.59l-5,243.11c23.68,103.32,43,96.38,9.34,256.13-9,42.54,2.33,137.18,14,212.29-29.12,63.22,145.86,201.68,241.48,109.83-187.55,11.59-231.62-46.19-245.15-113.74" stroke="#000" stroke-miterlimit="3.33" stroke-width="15"/>
</svg>
