<svg id="Layer_1" data-name="Layer 1" xmlns="http://www.w3.org/2000/svg" width="2016.2" height="1842" viewBox="0 0 2016.2 1842">
  <title>Book_v2</title>
  <path id="Black_right" d="M1931.74,56.91c37.36,18.37,61.85,48.66,60.4,103.18L1989.65,1539c-6,27.46-27.19,43-67.25,43.82-303.1,62.6-628.38,47.81-963.6-1.69-607.1,114.07-924.52-20.22-928.26-67.16L82,89.42C96.75,42,128.5,31.47,166.69,34.3c119.26-3.18,439,11,777.29,13.53C1335.75,50.81,1753.54,43.37,1931.74,56.91Z" stroke="#000" stroke-miterlimit="3.33" stroke-width="0.33"/>
  <path id="Right_side" d="M972.47,65c351.94,32.1,663.09,16.12,923.36-.44,37,18.37,61.18,48.46,60,102.57l4.24,1366c-5.65,27.26-26.45,42.6-66,43-325.9,47-639.87,43.5-942.94-6.09C663,1624.77,372.59,1622,80,1564.41c-34.33-15.35-46.44-38.77-49.47-65.22l43.82-1411c14.34-47,45.63-57.14,83-54.11C475.36,77.31,719.88,78.15,972.47,65Z" fill="#ffffe1" stroke="#000" stroke-miterlimit="3.33" stroke-width="0.33"/>
  <path id="Middle_line" d="M954.3,53.88v211.2l-.2,295.2V1420l-3,113.07c14.34,48.06,26,44.83,5.65,119.13-5.45,19.79,1.41,63.8,8.48,98.74,5.45,27.26,11.11,48.66,11.11,48.66,56.33,42.4,100.76,41.59,135.08,2.42-62.8-.81-126-23.22-148.41-52.9" stroke="#000" stroke-miterlimit="3.33" stroke-width="15"/>
</svg>
