<svg id="Layer_1" data-name="Layer 1" xmlns="http://www.w3.org/2000/svg" width="1200" height="1000" viewBox="0 0 3000 3000">
  <title>Book</title>
  <path d="M1000.47,387.89C734,459.5,439.07,485.62,161.1,513.51c-63.74-1.74-99.42,41.22-106,130.61L419.7,2714.84c-46.79,220.38,741,157,1027.86-55.57Z" stroke="#000" stroke-miterlimit="10"/>
  <path d="M2785.07,26.55c58.51,15.64,102.49,52.38,116.91,132.09l418.25,2005.5c0,41.77-25.15,70.7-81.63,83.58L632.32,2791c-54-12-78.26-42.55-90.71-80.49L178.79,624C185.14,550.54,227,526,281.59,518.77,643.67,432,2307.71,88.45,2785.07,26.55Z" stroke="#000" stroke-miterlimit="10"/>
  <path d="M996.68,388.89c521.55-61.1,1363.07-236,1736.26-339.87,59.29,15.48,103.86,51.84,118.46,130.72L3275.23,2164.6c0,41.33-25.49,70-82.72,82.72L551.49,2785c-54.69-11.89-79.3-42.12-91.92-79.66L91.91,640.34c6.44-72.72,48.9-97.06,104.18-104.17C671.42,502,633.19,485.28,996.68,388.89Z" fill="#ffffe1" stroke="#000" stroke-miterlimit="10"/>
  <path d="M1000.47,387.89C734,457.94,464.07,510.41,186.1,537.7,122.36,536,86.68,578,80.14,665.48L444.7,2691.29c-46.79,215.6,741,153.57,1027.86-54.36Z" fill="#fcfbd9" stroke="#000" stroke-miterlimit="10"/>
  <line x1="1460.78" y1="2599.89" x2="3192.51" y2="2247.32" fill="#fff" stroke="#000" stroke-miterlimit="10"/>
  <path d="M1000.47,387.89,1065,695.11l90.1,429.27,76.06,362.33,57.51,274,75.07,357.65,53.81,256.36,30,165.22c35.62,65.34,51.67,57.17,44.53,171.58-1.91,30.43,21.54,92.44,42.46,140.94,16.3,37.81,31.07,67.4,31.07,67.4,94.8,44.54,159.35,29.68,197.1-37.79-91.53,18-190.29,4.75-231.83-31.66" fill="none" stroke="#000" stroke-miterlimit="10" stroke-width="45"/>
  <rect x="1579.4" y="2880.67" width="139.4" height="55.66"/>
</svg>
