<svg id="Layer_1" data-name="Layer 1" xmlns="http://www.w3.org/2000/svg" width="1121.93" height="3972" viewBox="0 0 1121.93 3972">
  <title>Book_v2</title>
  <path id="Black_right" d="M1022.56,115.11c19,43.21,31.53,114.43,30.79,242.63l-1.27,3242.45c-3.07,64.57-13.86,101.13-34.28,103-145,84.89-311.3,49-489-22.08C167.7,3820.68,32.76,3597.09,53.38,3541.31L79.62,191.55C87.13,80,103.32,55.28,122.79,61.93c7,2.56,16.48,1.45,25.35,6.36,110.87,61.36,278.64,76.13,374.5,60.66,5.86-.95-.74-2.24,5.06-.79C683.86,167,895.92,153.39,1022.56,115.11Z" stroke="#000" stroke-miterlimit="3.33" stroke-width="0.33"/>
  <path id="Right_side" d="M533.55,134.18c179.41,75.49,338,37.91,470.7-1,18.84,43.21,31.19,114,30.57,241.2L1037,3586.42c-2.88,64.1-13.48,100.18-33.66,101.13C861.43,3756.1,692,3764,522.64,3673.24,392.88,3740.32,246,3728.82,78.6,3660c-17.5-36.09-23.67-91.16-25.22-153.36L75.72,188.7C83,78.07,99,54.33,118,61.46,280.14,163.06,404.79,165,533.55,134.18Z" fill="#ffffe1" stroke="#000" stroke-miterlimit="3.33" stroke-width="0.33"/>
  <path id="Middle_line" d="M527.1,128.5V560.29L526.82,1195V3043.47l-4.18,243.11c19.77,103.32,35.93,96.38,7.8,256.13-7.52,42.54,1.95,137.18,11.7,212.29-24.32,63.22,121.8,201.68,201.64,109.83-156.61,11.59-193.41-46.19-204.7-113.74" stroke="#000" stroke-miterlimit="3.33" stroke-width="15"/>
</svg>
