<?xml version="1.0" encoding="utf-8"?>
<!-- Generator: Adobe Illustrator 23.1.0, SVG Export Plug-In . SVG Version: 6.00 Build 0)  -->
<svg version="1.1" id="Layer_1" xmlns="http://www.w3.org/2000/svg" xmlns:xlink="http://www.w3.org/1999/xlink" x="0px" y="0px"
	 viewBox="0 0 997.8 908.1" style="enable-background:new 0 0 997.8 908.1;" xml:space="preserve">
<style type="text/css">
	.st0{stroke:#000000;stroke-width:0.3333;stroke-miterlimit:3.3333;}
	.st1{fill:#FFFFE1;stroke:#000000;stroke-width:0.3333;stroke-miterlimit:3.3333;}
	.st2{fill:#FCFBD9;stroke:#000000;stroke-width:0.3333;stroke-miterlimit:3.3333;}
	.st3{fill:none;stroke:#000000;stroke-width:0.3333;stroke-miterlimit:3.3333;}
	.st4{fill:none;stroke:#000000;stroke-width:15;stroke-miterlimit:3.3333;}
</style>
<title>Book</title>
<path class="st0" d="M338.6,16.7C246.9,24,148.6,14.7,55.8,6.9c-20.8-4.4-35.1,7.5-42.7,36.4L6.9,744.1
	c-28.7,69.4,233.3,96.5,340.3,44.2L338.6,16.7z"/>
<path class="st0" d="M945.4,6.7c18.2,8.7,30.4,23.4,30.3,50.4L991,739.8c-2.5,13.7-12.5,21.6-31.8,22.4L71.9,782
	c-17-7.2-23.1-18.7-24.8-31.9l7.8-705.9C61.5,20.5,76.7,15,95,16C219,9.5,785.2-2,945.4,6.7z"/>
<path class="st1" d="M337.3,16.8c174.7,11.7,461.1,5.5,589.7-5.9c18.5,8.7,30.9,23.3,30.9,50l18.3,676.3
	c-2.5,13.5-12.6,21.4-32.1,22.1L45.8,775.1c-17.2-7.2-23.4-18.6-25.3-31.7l4.9-699.1C32,20.8,47.4,15.5,65.9,16.5
	C223.8,34.2,212.3,26.4,337.3,16.8z"/>
<path class="st2" d="M338.6,16.7c-91.6,6.8-183.2,7.6-276-0.4c-20.8-4.4-35,7.2-42.5,35.4l-3.6,686.1
	c-28.4,67.8,233.5,95.3,340.2,44.6L338.6,16.7z"/>
<line class="st3" x1="355.1" y1="769.7" x2="944.1" y2="759.3"/>
<path class="st4" d="M338.6,16.7l2.5,104.6l3.5,146.2l2.9,123.4l2.2,93.3l2.9,121.8l2.1,87.3l-0.2,56c7.7,23.6,13.5,21.9,4.2,58.9
	c-2.5,9.9,1.4,31.6,5.4,48.8c3,13.4,6.1,24,6.1,24c28.4,20.4,50.4,19.4,66.9-0.4c-31.1,0.3-62.7-10-74.1-24.5"/>
<rect x="388.8" y="859" transform="matrix(0.1822 -0.9833 0.9833 0.1822 -541.9971 1112.8741)" width="18.6" height="46.5"/>
</svg>
