<svg id="Layer_1" data-name="Layer 1" xmlns="http://www.w3.org/2000/svg" width="2069.5" height="3609.52" viewBox="0 0 2069.5 3609.52">
  <title>Book_v2</title>
  <path id="Black_right" d="M1941.5,115.72c37.36,35.77,61.85,94.73,60.4,200.87L1999.41,3001c-6,53.46-27.19,83.73-67.25,85.3-303.1,121.87-628.38,93.08-963.6-3.29C361.45,3305,44,3043.61,40.3,2952.22L91.77,179C106.51,86.64,138.27,66.2,176.46,71.7,295.72,65.51,615.45,93,953.75,98,1345.51,103.83,1763.3,89.36,1941.5,115.72Z" stroke="#000" stroke-miterlimit="3.33" stroke-width="0.33"/>
  <path id="Right_side" d="M982.23,131.51c351.94,62.5,663.09,31.38,923.36-.85,37,35.77,61.18,94.34,60,199.69l4.24,2659.21c-5.65,53.07-26.45,82.94-66,83.73-325.9,91.48-639.87,84.68-942.94-11.85C672.74,3168,382.35,3162.67,89.77,3050.49c-34.33-29.87-46.44-75.47-49.47-127L84.12,176.65c14.34-91.59,45.63-111.24,83-105.35C485.12,155.42,729.64,157.06,982.23,131.51Z" fill="#ffffe1" stroke="#000" stroke-miterlimit="3.33" stroke-width="0.33"/>
  <path id="Middle_line" d="M964.06,109.83V521l-.2,574.69V2769.43l-3,220.13c14.34,93.55,26,87.26,5.65,231.92C961,3260,967.9,3345.69,975,3413.7c5.45,53.07,11.11,94.73,11.11,94.73,56.33,82.55,100.76,81,135.08,4.72-62.8-1.57-126-45.2-148.41-103" stroke="#000" stroke-miterlimit="3.33" stroke-width="15"/>
</svg>
