<svg id="Assets" xmlns="http://www.w3.org/2000/svg" width="381.83" height="382.33" viewBox="0 0 381.83 382.33">
  <title>Cross</title>
  <g>
    <g>
      <path d="M0,382Q0,191,0,0H382q0,191,0,382Zm167.18-68.8c-7.15-2.65-10.52,2.25-12.88,7.57A37.13,37.13,0,0,0,151.88,342a13.94,13.94,0,0,0,7.48,10.58c5.76,2.75,8.9,7.33,12.15,12.42,7.93,12.39,26.37,12.93,34.46.65a56.38,56.38,0,0,1,14-15c10.82-8,10.1-26.55-1.09-33.76-7.65-4.94-10.63-10.86-10.45-20.21.48-24.38-.32-48.79-.51-73.19q-.25-33.42-.26-66.84c0-8.43,1.42-10.11,9.79-10.75,6.76-.52,13.57-.44,20.35-.45,3.85,0,6.94,1.45,8.68,5.25,8.55,18.62,31,14.1,37.73,1,2.11-4.1,5.48-6,9.41-7.94,13.93-6.7,16.33-26.59,3.54-35.1-6.92-4.61-13.49-8.82-17.86-16-.88-1.45-3-2.32-4.72-3-10-4.22-21.77.48-27.63,10.71-1.59,2.77-2.22,6.66-6.75,6.62-8.91-.08-17.82,0-26.73-.11-3.66-.05-6-1.75-5.92-5.87.07-8.7,0-17.4-.07-26.1,0-3.2,1.26-5,4.39-6,7.71-2.61,13.57-7,13.83-16.15.29-10.09-3.47-17.8-12.89-22.09-3-1.36-4.43-3.44-5.55-6.43-3.48-9.31-10.51-14.18-19.79-14.19-8.7,0-16,5-19.43,13.84-1.13,2.88-2.37,5.32-5.4,6.65-8.75,3.82-12.9,10.68-12.75,20.13.14,9.12,4.91,15.07,13.19,18.37,3.26,1.3,5.21,3.26,5.17,7.08-.1,8.49.07,17,.05,25.46,0,3.68-1.4,5.69-5.67,5.94-7.84.44-15.67.61-23.52.79-5.11.12-8.11-1.42-10.2-6.42-3.19-7.64-8.59-13-17.75-13.19C102.28,88.35,96.22,92.81,92,100c-2.14,3.61-4.57,6.24-8.58,7.95-7.68,3.27-11.76,9.46-12.28,17.85C70.56,134.53,74.3,141.08,82,145a18.82,18.82,0,0,1,8.57,8.78c7.28,14,28.46,16.06,35.65,2.73,4.65-8.61,10.34-10.59,18.79-9.83a91.77,91.77,0,0,0,9.54-.07c13.81-.21,14.31.16,14.4,14q.44,71.3.74,142.6C169.73,306.6,169.58,310,167.19,313.2Z" fill="#fff"/>
      <path d="M167.19,313.2c2.39-3.23,2.54-6.59,2.52-10q-.36-71.3-.74-142.6c-.09-13.8-.59-14.17-14.4-14a91.77,91.77,0,0,1-9.54.07c-8.45-.76-14.15,1.23-18.79,9.83-7.19,13.33-28.38,11.3-35.65-2.73A18.82,18.82,0,0,0,82,145c-7.71-3.94-11.45-10.49-10.91-19.25.52-8.39,4.61-14.58,12.28-17.85,4-1.71,6.43-4.34,8.58-7.95,4.26-7.16,10.31-11.62,19.18-11.45,9.16.17,14.56,5.55,17.75,13.19,2.09,5,5.09,6.53,10.2,6.42,7.85-.18,15.68-.34,23.52-.79,4.27-.24,5.66-2.25,5.67-5.94,0-8.49-.15-17-.05-25.46,0-3.81-1.91-5.78-5.17-7.08-8.28-3.3-13-9.25-13.19-18.37-.15-9.45,4-16.31,12.75-20.13,3-1.32,4.27-3.77,5.4-6.65,3.47-8.8,10.74-13.85,19.43-13.84,9.28,0,16.31,4.89,19.79,14.19,1.11,3,2.56,5.07,5.55,6.43,9.42,4.29,13.18,12,12.89,22.09-.26,9.18-6.12,13.54-13.83,16.15-3.13,1.06-4.42,2.82-4.39,6,.09,8.7.13,17.4.07,26.1,0,4.12,2.26,5.82,5.92,5.87,8.91.13,17.82,0,26.73.11,4.53,0,5.16-3.85,6.75-6.62C252.8,90,264.61,85.29,274.57,89.51c1.72.73,3.84,1.6,4.72,3,4.37,7.23,10.94,11.44,17.86,16,12.79,8.52,10.39,28.4-3.54,35.1-3.94,1.89-7.3,3.84-9.41,7.94-6.76,13.14-29.18,17.65-37.73-1-1.75-3.8-4.83-5.26-8.68-5.25-6.79,0-13.6-.06-20.35.45-8.37.64-9.79,2.32-9.79,10.75q0,33.42.26,66.84c.19,24.4,1,48.81.51,73.19-.18,9.35,2.8,15.27,10.45,20.21,11.18,7.22,11.9,25.78,1.09,33.76a56.38,56.38,0,0,0-14,15c-8.09,12.28-26.53,11.74-34.46-.65-3.25-5.08-6.39-9.66-12.15-12.42A13.94,13.94,0,0,1,151.88,342a37.13,37.13,0,0,1,2.43-21.23C156.67,315.45,160,310.55,167.19,313.2Zm-8.64-202c-8.42-2.5-16.86-1-25.32,0Z"/>
      <path d="M158.55,111.18H133.22C141.69,110.16,150.12,108.69,158.55,111.18Z" fill="#fff"/>
      <path d="M109.5,88.49c-.08,13,1,26-1.91,38.84" fill="none" stroke="#000" stroke-linecap="round" stroke-linejoin="round" stroke-width="2"/>
      <path d="M224.74,334.57c-11.26,1.22-22.49-.92-33.74-.32" fill="none" stroke="#000" stroke-linecap="round" stroke-linejoin="round" stroke-width="2"/>
      <path d="M165.53,113.32c-1.88-3.67-4.27-5-8.93-4.72-8.43.48-17,1.21-25.45-.39-2.93-.56-5.46,1.27-8.28,1.28" fill="none" stroke="#000" stroke-linecap="round" stroke-linejoin="round" stroke-width="2"/>
    </g>
    <rect x="129" y="109" width="35" height="5"/>
  </g>
</svg>
