<svg id="Assets" xmlns="http://www.w3.org/2000/svg" width="398.83" height="386.33" viewBox="0 0 398.83 386.33">
  <title>deathBySuicide</title>
  <path d="M202,3H192l1,152s-11.5,4.5-15,10,8.5,13.5,8.5,13.5a12.23,12.23,0,0,0-6,8c2.72,22.05,8.47,38.63,16,52,1.36,16.89-8.56,31.9-30,45-11.75,5.18-24,13.52-32,23-3.52,8.18-3.29,17.56,10,30,10.2,11.64,22.67,15.5,37,13,15.68-2.41,26.92-10.45,33-25,6.86-9.93,10.22-21.76,11-35-.22-11.89-2.18-24.71-5-38l-4-15s6-1,7-4-1-8-1-8a23.2,23.2,0,0,0-1.18-17.74l-.82-12.26c-.32-16.5-6.66-21.55-17-19Z"/>
  <path d="M204,243l7-1c4.81,15.75,6.83,33.29,7,52-2.38,23.17-14.87,38.46-36,47-11.11.37-20.88-1.56-28-8-11-6.61-12.07-14.43-7-23,6.42-10.24,15.49-19,31-24,0,0,17-7,18-16C200,260,204,243,204,243Z" fill="#f4f4bd"/>
</svg>
