<svg xmlns="http://www.w3.org/2000/svg" xmlns:xlink="http://www.w3.org/1999/xlink" width="1368" height="385" viewBox="0 0 1368 385">
  <defs>
    <clipPath id="clip-path">
      <path d="M192.55,123.34q-1.38,1.59-6,4.13c-6.35,3.11-10,5.43-10.8,7-.71.56-2.29,1.76-4.76,3.59s-5.54,4.1-9.21,6.78q-8.25,5.5-14.28,10.37c-4,3.25-6.67,5.71-7.94,7.41a3.1,3.1,0,0,0-1.59.63,1.86,1.86,0,0,1-1.59.42c-.28.15-.92.57-1.9,1.27a10.17,10.17,0,0,0-2.12,1.91,10.73,10.73,0,0,1-2,3.28A3.63,3.63,0,0,1,127,171.5q-4,2.12-15.87,11.64,1.47,16.29,8.25,28.57,6.14,13.54,12.49,19.89a52.23,52.23,0,0,0,8.36,7.62c2.61,1.84,4.62,2.75,6,2.75a24.28,24.28,0,0,1,5.29,3q3.39,2.33,3.6,3.81a4.4,4.4,0,0,1,.21,1.69,8.08,8.08,0,0,1-1.06,4.66,14.78,14.78,0,0,1-1.48,2.22,2.66,2.66,0,0,1-2.11.74,13.36,13.36,0,0,1-5.72-1.69q-3.39.21-11.64-6.35A81.78,81.78,0,0,1,120.69,238q-5.72-8.25-9.84-15a55.18,55.18,0,0,1-6.24-14.82q-.85-3.81-3.18-11.43A30.09,30.09,0,0,1,99.74,191v-4l-2.54,6.34c-.14.43-1,2.76-2.65,7S90.64,212,87.67,222.71l-3.38,11Q79.42,249,77.83,253t-3.28,4a4.35,4.35,0,0,1-2.22-.95l-2-1.38a8.7,8.7,0,0,1-2.33-1.9,3.47,3.47,0,0,1-.64-2.12,24.14,24.14,0,0,1,1.06-5.29,16.31,16.31,0,0,1,.43-5.29,22.62,22.62,0,0,0,.63-3c1,0,1.48-1.13,1.48-3.39q0-1.69,1.91-7.41l1.9-6.56,2.54-6.14a62.28,62.28,0,0,0,2.33-6.35q0-2.74,2.75-7a52,52,0,0,0,1.48-5.5,23.83,23.83,0,0,0,.64-4.87q.42-1.07,2.33-4.87a33.33,33.33,0,0,0,2.75-7.62,12.85,12.85,0,0,1,.74-2.33c.35-.84.74-1.9,1.16-3.17l7-19,3.17-7.2c.28-.7,1.24-2.89,2.86-6.56s2.71-5.5,3.28-5.5v-2.33c0-.56.77-2.4,2.33-5.5l2.54-5.08a28.53,28.53,0,0,0,2.64-5.4c.64-1.76,1-2.93,1.17-3.49.14-.28.42-.77.84-1.48a10,10,0,0,1,1.49-1.91,7.41,7.41,0,0,1,4.23-1.69c2,0,3.67,1.41,5.08,4.23a12.2,12.2,0,0,1,1.48,5.29,9.86,9.86,0,0,1-1.9,5.08q-7.2,15.45-14.5,31.75t-7.3,18.84l7.19-5.29A178.92,178.92,0,0,1,130.64,152l26-21.16a84.86,84.86,0,0,0,14-9.32,27.79,27.79,0,0,0,3.39-2.32,11.39,11.39,0,0,1,2.11-1.48c.85-.71,2.54-1.94,5.08-3.71s4.16-2.57,4.87-2.43c1.55-.71,3.25,0,5.08,2.11s2.61,4.1,2.33,5.93A4.15,4.15,0,0,1,192.55,123.34Z" fill="none"/>
    </clipPath>
    <clipPath id="clip-path-2">
      <path d="M176.57,242.82a31.89,31.89,0,0,1-4.24-3.17q-7-7.41-7-13.55a7.58,7.58,0,0,1,.21-2.12,6.32,6.32,0,0,0,.53-3c-.07-1-.11-1.62-.11-1.9q-.84-.85-.84-1.17a.85.85,0,0,1,.42-.63,2.24,2.24,0,0,0,.64-.74c.84,0,1.12-.78.84-2.33-.28-1.13.28-3.63,1.7-7.52A51.86,51.86,0,0,1,174,196.05a97.73,97.73,0,0,1,6.88-9.53,59,59,0,0,1,8.14-8.68,49.65,49.65,0,0,1,9.11-6.56,35,35,0,0,1,8.88-3.17,29.22,29.22,0,0,1,5.72-1.06,4.87,4.87,0,0,1,2.65.74,20.92,20.92,0,0,1,3.06,2.65q5.72,2.53,7.94,6.45t2.22,12.17q0,13.77-11.21,29.84a59,59,0,0,1-9.11,10.69,80.92,80.92,0,0,1-11.21,7.94,36,36,0,0,1-8.15,4.55,27.43,27.43,0,0,1-8.36,1.59A8,8,0,0,1,176.57,242.82Zm32.49-32.38a71.21,71.21,0,0,0,5.82-12.91,31.28,31.28,0,0,0,1.05-8.68q0-6.34-1.69-7.2A9.44,9.44,0,0,0,210,180.6q-4.66,0-9.74,4.23a57.41,57.41,0,0,0-11,13,152.26,152.26,0,0,0-10,19.15,20.13,20.13,0,0,0-2.12,8.68,7.68,7.68,0,0,0,1.59,5.08,5.34,5.34,0,0,0,4.34,1.9q7,0,17.78-11.43A75.27,75.27,0,0,0,209.06,210.44Z" fill="none"/>
    </clipPath>
    <clipPath id="clip-path-3">
      <path d="M242.39,237.11a6.37,6.37,0,0,1-.63-3.18,18.74,18.74,0,0,1,.21-3.17A100.23,100.23,0,0,1,245.14,214l1.06-4.24q.63-5.28,7.41-22.22t11-23.07a6.73,6.73,0,0,1,3.6-1.06,6.35,6.35,0,0,1,4.66,1.91,3.55,3.55,0,0,1,1.27,3.17,19.44,19.44,0,0,1-1.59,6.25q-1.59,4.13-5.4,12.17-.84,1.7-2.85,6.34c-1.35,3.11-2,5-2,5.51,0,.28.06.42.21.42a1.34,1.34,0,0,0,.84-.32,7.33,7.33,0,0,1,.85-.53q2.32-4,11.32-11t12.38-8.68a25,25,0,0,1,3.82-1.69c1.55-.56,2.6-1,3.17-1.27a17.76,17.76,0,0,1,8-1.7,13,13,0,0,1,5.19,1,5.57,5.57,0,0,1,3.07,2.85,3.69,3.69,0,0,0,1.16,2.33,7.5,7.5,0,0,0,1.38,1.06.82.82,0,0,1,.84.53,2.54,2.54,0,0,1,.22.74c0,1-.57,1.59-1.7,1.8a52.83,52.83,0,0,1-6.14.53,21.72,21.72,0,0,0-4.86,1.06A38.48,38.48,0,0,0,297,188q-11.87,6.78-17.68,10.59A61.39,61.39,0,0,0,267.58,209a56.55,56.55,0,0,0-6.14,9.1q-1.49,1.49-3.07,7.72a47.08,47.08,0,0,0-1.59,7.73c-.14.42-.42,1.24-.84,2.43a13,13,0,0,1-1.91,3.49q-2.53,3.39-4.23,3.39c-1.27,0-3-1.13-5.08-3.39A8.88,8.88,0,0,1,242.39,237.11Z" fill="none"/>
    </clipPath>
    <clipPath id="clip-path-4">
      <path d="M334.46,239.43a3.94,3.94,0,0,1-2.12-.52,15.12,15.12,0,0,1-2.33-2,17.64,17.64,0,0,1-7.3-6.67q-2.65-4.33-2.22-7.73a73.69,73.69,0,0,1,5.61-21.37,94.31,94.31,0,0,1,11.32-20.53q6.56-8.9,12.7-11a18.21,18.21,0,0,1,6.35-1.48,7.4,7.4,0,0,1,7.19,4.23,11.41,11.41,0,0,1,1.49,4.45q0,2.53-3,3.38a2.57,2.57,0,0,0-1.48.64,1.71,1.71,0,0,0-.85,1.27,4.33,4.33,0,0,0,1.91.21,46.41,46.41,0,0,0,8.89-1.06q5.28-1,6.77-2.33a5,5,0,0,1,2.12-.63l3,.42q3.6,1.06,3.6,2.54a2.4,2.4,0,0,0,.63,1.59,1.93,1.93,0,0,0,1.49.74c.84.14.74.71-.32,1.69s-3.07,2.61-6,4.87c-.71.42-1.73,1.06-3.07,1.91a5.67,5.67,0,0,0-2.33,2.11,3.86,3.86,0,0,0,.1,2.33,11.35,11.35,0,0,1,.85,4.66q0,7-6,15.45a62.43,62.43,0,0,1-15,14.81q-9,6.36-17.25,7.41A26.82,26.82,0,0,1,334.46,239.43Zm7.4-12.48a14.68,14.68,0,0,1,4.45-3.39c1,0,2.33-.74,4-2.22a74.47,74.47,0,0,0,7.83-9,69.27,69.27,0,0,0,6-7.83,11.47,11.47,0,0,0,2-6.14,6.45,6.45,0,0,0-.21-1.9,2.35,2.35,0,0,0-1.37-1.16c-.78-.35-1.52-.67-2.23-1a6.61,6.61,0,0,1-3.49-.95,48.9,48.9,0,0,1-4.55-3.28L351,185.89l-3.59,3.6q-5.08,5.07-10.37,16.61T331.07,224c-.14,2,.18,3.36.95,4.13a5.46,5.46,0,0,0,3.49,1.38Q336.79,229.49,341.86,227Z" fill="none"/>
    </clipPath>
    <clipPath id="clip-path-5">
      <path d="M400.17,228.22q-2-3.81-2.85-11.64-.65-4.87,1.69-14.18a109.67,109.67,0,0,1,6.24-18.1q3.92-8.78,7.73-12.59,2.75-3.6,4.87-3.6a16.49,16.49,0,0,1,5.07,1.69,9,9,0,0,1,2.33,5.93c0,2-.84,4.37-2.54,7.19a58.4,58.4,0,0,0-7.19,14,77.19,77.19,0,0,0-4.24,15.66q-2.11,7-2.11,9.11a3.57,3.57,0,0,0,.95,2.64,5.86,5.86,0,0,0,3.07,1.38q4,.84,9.52-3a47.12,47.12,0,0,0,10.8-11A64.71,64.71,0,0,0,442,196.05a43.37,43.37,0,0,0,1.91-7.2c1-3.39,1.55-5.29,1.69-5.71a14.13,14.13,0,0,1,3.18-6.46,6.15,6.15,0,0,1,4.44-2.22,5,5,0,0,1,3,1.06,4.8,4.8,0,0,1,2,1.37,4.86,4.86,0,0,1,.52,2.65,33.23,33.23,0,0,1-.21,4,23.77,23.77,0,0,1-1.27,8.15,88.3,88.3,0,0,1-4,9,57.17,57.17,0,0,0-3.81,7.83,74.69,74.69,0,0,1-9.95,15.56q-6.56,8.15-12.06,10.48-5.92,3.6-11,3.6a33.91,33.91,0,0,1-9.94-2.12A31.08,31.08,0,0,1,400.17,228.22Z" fill="none"/>
    </clipPath>
    <clipPath id="clip-path-6">
      <path d="M527.27,242.08a16.24,16.24,0,0,1-2.76-8.15,22.82,22.82,0,0,1-.21-3.81,128.25,128.25,0,0,1,1.06-14.81q1.07-8.9,2.12-14.18a3.83,3.83,0,0,0,.95-2.54,5.46,5.46,0,0,0-.11-2.12,26.65,26.65,0,0,1,1.06-4.23,120.43,120.43,0,0,0,3.6-13.13q5.71-17.34,11.22-27.72a151.9,151.9,0,0,1,12.27-19.47q9.1-9.31,14.29-13.66A52.62,52.62,0,0,1,582.3,111q8.25-4.86,11.85-4.87a6.82,6.82,0,0,1,1.9.43q11.85,2.53,17.78,9.63t8.68,21.9a145.68,145.68,0,0,1,1.9,19.48,63.87,63.87,0,0,1-3.81,21.37q-3.81,10.8-13.75,27.09-11.43,22.44-27,36t-29.31,13.55A22.6,22.6,0,0,1,537,251.08Q529.59,245.37,527.27,242.08Zm36.93-2.75q6.45-4.77,16-15.77,8.25-9.52,11.75-14.39a57.14,57.14,0,0,0,6.24-11.64q2.75-6.78,6.77-20.74A139.87,139.87,0,0,0,608,162.92a83.15,83.15,0,0,0,.74-12l-.21-13.75a30,30,0,0,0-1.48-7.52,16.67,16.67,0,0,0-3-5.82,10.52,10.52,0,0,0-8.26-3.59,13.55,13.55,0,0,0-6.14,1.48q-4,1.69-11.85,9.84a159.68,159.68,0,0,0-14.07,16.72q-6.25,8.56-6.25,11.11a10.49,10.49,0,0,1-.21,1.27,4.59,4.59,0,0,1-.85,1.91q-3.6,3.81-8,15.45a221.7,221.7,0,0,0-7.83,25.18,119.24,119.24,0,0,0-3.81,22.65l-.42,7.19a10.93,10.93,0,0,0,.31,3,7.92,7.92,0,0,0,1.38,2.43,25.33,25.33,0,0,1,1.9,2.86,7.49,7.49,0,0,0,3.39,2.75,11.58,11.58,0,0,0,4.87,1.06,10.16,10.16,0,0,0,2.33-.21A28.43,28.43,0,0,0,564.2,239.33Z" fill="none"/>
    </clipPath>
    <clipPath id="clip-path-7">
      <path d="M647.69,244.51a28.63,28.63,0,0,1-5.08-4,28.22,28.22,0,0,1-5-9.42q-1.17-4.33-1.16-13.86,0-5.07,5.71-27.94c-.28,1,.21-1.06,1.48-6.13a2.14,2.14,0,0,0-1.69-3,26.47,26.47,0,0,0-6.56-.63c-2.4,0-3.81-.14-4.24-.43a1,1,0,0,1-.74-.63,2.78,2.78,0,0,1-.1-.64,5.44,5.44,0,0,0-.85-2.54.84.84,0,0,1-.21-.63,3.66,3.66,0,0,1,1.16-2.33,4.56,4.56,0,0,1,2.86-1.48c.7-.14,2.33-.35,4.87-.64a29.57,29.57,0,0,0,7.2-1.69,12.18,12.18,0,0,0,5.29-3.6q2.75-7,7-15.76t5.72-10.48A13.24,13.24,0,0,1,668,137a2.89,2.89,0,0,1,2.12.84,26.09,26.09,0,0,1,2.33,3,10.31,10.31,0,0,0,1,1.49,3.35,3.35,0,0,1,.85,2.11,13.56,13.56,0,0,1-1.59,5.08q-1.57,3.39-6.24,11.85l-2.75,5.3a12.35,12.35,0,0,0,3,.21,28.15,28.15,0,0,0,3.81-.21,48.19,48.19,0,0,1,8.68-.85,14.07,14.07,0,0,1,3,.21q4.88,0,7.09,1.8t2.65,6c.28,1.56,0,2.47-.85,2.75s-3.25.43-7.19.43q-24.55,1.06-24.77,1.9-.84.65-3.17,7.41t-4,12.91a107.27,107.27,0,0,0-2.76,22.44q0,8.88,2.54,11.85c.71.71,2,1.06,4,1.06a20.44,20.44,0,0,0,6.45-1.17,18,18,0,0,0,5.82-3.07q3.81-3.17,6.35-3.17a2.72,2.72,0,0,1,2,.74,2.47,2.47,0,0,1,.74,1.8c0,1.55-.84,3.53-2.54,5.93a25.79,25.79,0,0,1-8.46,8A19.87,19.87,0,0,1,656,246.84a9.93,9.93,0,0,1-3.39-.42A22.77,22.77,0,0,1,647.69,244.51Z" fill="none"/>
    </clipPath>
    <clipPath id="clip-path-8">
      <path d="M706.74,242.82a31.3,31.3,0,0,1-4.23-3.17q-7-7.41-7-13.55a7.21,7.21,0,0,1,.21-2.12,6.32,6.32,0,0,0,.53-3c-.08-1-.11-1.62-.11-1.9-.57-.57-.85-1-.85-1.17a.84.84,0,0,1,.43-.63,2.1,2.1,0,0,0,.63-.74c.85,0,1.13-.78.85-2.33-.29-1.13.28-3.63,1.69-7.52a52.37,52.37,0,0,1,5.29-10.68,99.47,99.47,0,0,1,6.88-9.53,59,59,0,0,1,8.15-8.68,50,50,0,0,1,9.1-6.56,35,35,0,0,1,8.89-3.17,29.1,29.1,0,0,1,5.72-1.06,4.86,4.86,0,0,1,2.64.74,20.88,20.88,0,0,1,3.07,2.65q5.72,2.53,7.94,6.45t2.22,12.17q0,13.77-11.22,29.84a59.36,59.36,0,0,1-9.1,10.69,80.48,80.48,0,0,1-11.22,7.94,36,36,0,0,1-8.14,4.55,27.49,27.49,0,0,1-8.37,1.59A8.06,8.06,0,0,1,706.74,242.82Zm32.49-32.38a69.86,69.86,0,0,0,5.82-12.91,30.88,30.88,0,0,0,1.06-8.68c0-4.23-.57-6.63-1.69-7.2a9.51,9.51,0,0,0-4.24-1.05q-4.65,0-9.73,4.23a57.44,57.44,0,0,0-11,13,152.26,152.26,0,0,0-10,19.15,20.11,20.11,0,0,0-2.11,8.68,7.74,7.74,0,0,0,1.58,5.08,5.35,5.35,0,0,0,4.34,1.9q7,0,17.78-11.43A74.54,74.54,0,0,0,739.23,210.44Z" fill="none"/>
    </clipPath>
    <clipPath id="clip-path-9">
      <path d="M839.87,243a5.89,5.89,0,0,1-2.86-.74,16.25,16.25,0,0,1-3.49-2.86q-.63-.84-2.22-3.06A15.52,15.52,0,0,1,829,231.5a25.39,25.39,0,0,1-.74-6.67c0-2,.07-3.67.21-5.08s.28-2.54.43-3.38l.42-6.14a54.05,54.05,0,0,0,1.48-11.64c0-3.81-.5-5.72-1.48-5.72q-3.18-.63-14,9.42A325.16,325.16,0,0,0,791.83,227l-3.81,5.5c-.29.42-1,1.41-2.12,3s-1.9,2.33-2.33,2.33q-2.33.21-6.35-2.22T773,231.18q0-1.27,3.28-11.75t5.19-16.4l9.31-27.51q1.69-5.29,6.14-15.88l4-10.37,2.54-6.35,9.73-25.82v-.85c0-2.39.5-4.09,1.49-5.08l3-.21c0-.28.56,0,1.69,1a27,27,0,0,1,3.28,3.17,5.08,5.08,0,0,1,1.59,2.86,8.56,8.56,0,0,1,.63,3.38q0,4.88-4.86,16.72-1.9,2.76-5.72,13.34-2.12,5.93-3.17,8.25-2.55,4.67-8.79,19.16a188.44,188.44,0,0,0-8.78,23.81,17.46,17.46,0,0,0-1.69,5.92c0,.71.21,1.06.63,1.06q1.49,0,4.66-4,13.33-14.17,21.38-21.38t12.91-6.77q2.54.63,6.24,4.76a26.49,26.49,0,0,1,5.18,7.94,33,33,0,0,1,1.27,8.68q0,3.6-.63,13.12l-.42,4.87q-1.69,10.59-1.7,12.27a5.48,5.48,0,0,0,.53,2.76,12.15,12.15,0,0,0,2.22,2.32q3.39,2.76,3.39,4.66,0,1.69-3,3.39A16.51,16.51,0,0,1,839.87,243Z" fill="none"/>
    </clipPath>
    <clipPath id="clip-path-10">
      <path d="M881.14,241.13a23.1,23.1,0,0,1-5.08-.53c-1.55-.35-2.32-.81-2.32-1.38a.85.85,0,0,0-1.06-1.05c-.15-.14-.57-.5-1.27-1.06a10.88,10.88,0,0,0-2.54-1.48,11.57,11.57,0,0,1-1.91-6.35,52.08,52.08,0,0,1,1.91-11.22q.63-6.78,6.35-16.93a121.31,121.31,0,0,1,13.44-19.26q7.73-9.1,13.86-12.7a10.88,10.88,0,0,1,8-3.18,14.48,14.48,0,0,1,7.2,1.91,23.88,23.88,0,0,1,6.24,5.71,37.07,37.07,0,0,1,5.19,8.26A23.9,23.9,0,0,1,930,188a90.08,90.08,0,0,1-.84,9.95,69.52,69.52,0,0,0-1.8,9.31,71.81,71.81,0,0,0-.74,9.53,8.39,8.39,0,0,0,.42,4.76,2.59,2.59,0,0,0,2.33,1.8,5.23,5.23,0,0,0,2.33-.64,10.31,10.31,0,0,1,4.65-1.05,5.62,5.62,0,0,1,3.81,1.27,4.72,4.72,0,0,1,1.48,3.81q0,3.81-5.18,7.62t-9.84,3.81q-3.18,0-5.82-5a79.74,79.74,0,0,1-5.19-12.8l-1.27-4.87-9.1,8.68-4.87,4.86a51.75,51.75,0,0,0-3.81,4q-2.33,4-11.64,7.63A19.75,19.75,0,0,1,881.14,241.13Zm16.94-23.28a118.31,118.31,0,0,0,12.27-14.18q6.55-8.68,8.26-17.15a18.33,18.33,0,0,0-2.76-5.08q-1.9-2.53-3.38-2.75-4.25,0-8.89,4.87a137.9,137.9,0,0,0-11,13.54l-7,10.38q-1.27,1.7-4.45,9T878,225.25c0,3.11.91,4.66,2.75,4.66a9.62,9.62,0,0,0,4.87-1.69Q890.66,225.25,898.08,217.85Z" fill="none"/>
    </clipPath>
    <clipPath id="clip-path-11">
      <path d="M953.52,237.11a6.37,6.37,0,0,1-.63-3.18,19.85,19.85,0,0,1,.21-3.17A99.35,99.35,0,0,1,956.28,214l1.05-4.24q.64-5.28,7.41-22.22t11-23.07a6.73,6.73,0,0,1,3.6-1.06,6.33,6.33,0,0,1,4.65,1.91c.85.56,1.27,1.62,1.27,3.17a19.44,19.44,0,0,1-1.59,6.25q-1.57,4.13-5.39,12.17-.85,1.7-2.86,6.34t-2,5.51q0,.42.21.42a1.39,1.39,0,0,0,.85-.32,6.49,6.49,0,0,1,.84-.53q2.34-4,11.33-11T999,178.69a24.88,24.88,0,0,1,3.81-1.69,34.12,34.12,0,0,0,3.17-1.27,17.8,17.8,0,0,1,8-1.7,13,13,0,0,1,5.18,1,5.54,5.54,0,0,1,3.07,2.85,3.65,3.65,0,0,0,1.17,2.33,7.54,7.54,0,0,0,1.37,1.06.83.83,0,0,1,.85.53,2.43,2.43,0,0,1,.21.74c0,1-.57,1.59-1.69,1.8a53.29,53.29,0,0,1-6.14.53,21.68,21.68,0,0,0-4.87,1.06,39,39,0,0,0-5.08,2.11q-11.85,6.78-17.67,10.59A61.43,61.43,0,0,0,978.71,209a57.23,57.23,0,0,0-6.14,9.1q-1.49,1.49-3.07,7.72a47.74,47.74,0,0,0-1.58,7.73c-.15.42-.43,1.24-.85,2.43a13,13,0,0,1-1.9,3.49q-2.55,3.39-4.24,3.39-1.9,0-5.08-3.39A9,9,0,0,1,953.52,237.11Z" fill="none"/>
    </clipPath>
    <clipPath id="clip-path-12">
      <path d="M1032.89,237.53q-4.44-3.18-5.29-7a12.83,12.83,0,0,1-.21-2.76q0-7.81,6-20.21a113.9,113.9,0,0,1,14.71-22.86q8.67-10.47,15.87-13.22c3-1.56,4.87-2.33,5.72-2.33s2.75.77,5.71,2.33a14.92,14.92,0,0,1,4.45,1.9,20.7,20.7,0,0,1,3.81,4.23,46.92,46.92,0,0,1,4,13.55,27.23,27.23,0,0,1,1.27,6.35,4.08,4.08,0,0,1-1.27,3c-.14.14-.39.42-.74.85a1.79,1.79,0,0,0-.53.95c0,.21.14.32.42.32a4.75,4.75,0,0,1-.21.95,11.89,11.89,0,0,1-.85,2,47.08,47.08,0,0,0-2.54,13.76,20,20,0,0,0,.43,4q2.11,5.51,7.19,5.5c2.82,0,5.51-1.27,8-3.81q3.38-2.32,5-3.28c1.06-.63,1.59-.45,1.59.53a7,7,0,0,0,.84.64,2.31,2.31,0,0,0,1.27.42c1,0,1.48.63,1.48,1.9a8.06,8.06,0,0,1-1.48,4.24,32.18,32.18,0,0,0-2.32,2.54,3.06,3.06,0,0,0-.85,1.69l-3.18,3a18.58,18.58,0,0,1-9.52,2.33c-3.81,0-6.85-.77-9.1-2.33a28.6,28.6,0,0,1-9.31-13.33l-1.06-2.12-6.14,4a60.4,60.4,0,0,1-4.87,4.34c-1.83,1.48-3,2.51-3.6,3.07-1.13,1.41-2.11,2.12-3,2.12h-2.12q0,1.49-4.12,3.28a18.66,18.66,0,0,1-7.3,1.8Q1037.34,240.7,1032.89,237.53Zm18-15.77q9.52-6.66,12.07-9.84l6.13-6.35a30.34,30.34,0,0,0,5.4-8.68,23.47,23.47,0,0,0,2-8.89c0-2.39-.35-4.09-1.06-5.08-.56-1.69-1.41-2.54-2.54-2.54a23.48,23.48,0,0,0-4.87,1.49q-4,2.53-11.32,11.64a162.26,162.26,0,0,0-13,18.73q-5.7,9.63-5.71,14.07a2.26,2.26,0,0,0,.42,1.27,5.74,5.74,0,0,0,.64.85Q1041.36,228.43,1050.88,221.76Z" fill="none"/>
    </clipPath>
    <clipPath id="clip-path-13">
      <path d="M1163.9,242.61a28.44,28.44,0,0,1-3.49-5.19,10.93,10.93,0,0,1-1-4.76,28.15,28.15,0,0,1,.21-3.81l.84-9.73c-.28-.29-.81-.22-1.58.21a11.47,11.47,0,0,0-2.12,1.48c-.63.57-1.24,1.06-1.8,1.48l-3.6,3q-9.32,10.59-16.19,15t-12.8,4.45l-2.33-.22a7.88,7.88,0,0,1-6.56-4.33,21.05,21.05,0,0,1-2.12-10.06,36.75,36.75,0,0,1,.21-4.65,59.3,59.3,0,0,1,3.18-13.76A68.63,68.63,0,0,1,1122,198a47.19,47.19,0,0,1,10.48-12.27,42.47,42.47,0,0,1,13.65-8.26,34.63,34.63,0,0,1,11.85-2.33,25.62,25.62,0,0,1,7.2,1.06,9.73,9.73,0,0,0,4,1.27c1.13,0,2-.7,2.54-2.12a20.22,20.22,0,0,0,1.91-4.65,49.33,49.33,0,0,1,2.75-6.56l4.65-13.76,5.51-13.12,6.14-14.4q4.23-8.46,7.19-8.46,1.69,0,4,2.33a6.81,6.81,0,0,1,1.91,4.65,15.87,15.87,0,0,1-1.17,5.29q-1.16,3.18-2.85,7.41a90.81,90.81,0,0,0-5.51,10.59l-3.17,7.19q-5.71,13.55-6.77,16.3l-1.7,5.71a94,94,0,0,0-2.75,10.16q-1.7,9.11-3,9.1-3.81,4-7.2,25-.84,5.07-.84,19.47a32.37,32.37,0,0,1-.32,6,1.48,1.48,0,0,1-1.59,1.17Q1165.38,244.73,1163.9,242.61Zm-31.64-14.29a126.42,126.42,0,0,0,11.11-9.2q5.72-5.51,13.76-17.15t8-13.54c0-.57-.71-1.06-2.12-1.48a15.89,15.89,0,0,0-4.65-.64,14,14,0,0,0-3.39.42,25.44,25.44,0,0,0-9.42,4.34,54.45,54.45,0,0,0-9.63,9.42,76.15,76.15,0,0,0-9.73,15.66q-3.81,8.26-3.81,12.7c0,1.7.49,2.54,1.48,2.54A14.54,14.54,0,0,0,1132.26,228.32Z" fill="none"/>
    </clipPath>
    <clipPath id="clip-path-14">
      <path d="M1197.45,236.58q-1.38-1.38-1.38-1.8a5.46,5.46,0,0,0-1.06-3.6,2.89,2.89,0,0,1-.42-1.9q0-3.39,3.28-11.54a157.78,157.78,0,0,1,8.57-17.67,27.54,27.54,0,0,0,3.28-4.45,16.65,16.65,0,0,1,2.65-3.59,2.4,2.4,0,0,1,.63-1.59,1.9,1.9,0,0,1,1.48-.74v-1.27q0-1.91,7-9.21t11.43-10.05a19,19,0,0,1,10.79-3.6,10.49,10.49,0,0,1,6.56,2.11q1.07,1.27,9.74,9.11l7.83,7L1264,194.35a33.11,33.11,0,0,0-1.9,10.37,28.6,28.6,0,0,0,4.65,15.45,11.29,11.29,0,0,0,4.24,4.45,15,15,0,0,0,6.34,2.54c3.11.56,4.66,2.12,4.66,4.66q0,4.23-3.81,5.08a11.34,11.34,0,0,1-2.54.21q-12.5,0-21.59-17.57a30.26,30.26,0,0,1-2.22-4.66,27,27,0,0,1-1.59-4.65q-1.26,1.7-3.17,4t-3.6,4q-23.07,23.07-36.4,23.07a14,14,0,0,1-7.62-2.12A11,11,0,0,0,1197.45,236.58ZM1209.3,228a21.69,21.69,0,0,0,5.5-2.12,38.87,38.87,0,0,0,6.67-4.45q18.19-15.66,26.24-27.3l4.66-7.62a19.54,19.54,0,0,0-4.45-6.45,6.8,6.8,0,0,0-4.23-2q-4.44,0-14,11.11a137.84,137.84,0,0,0-17.35,26.14,76.24,76.24,0,0,0-3.39,7.3q-1.49,3.7-1.9,4.76C1207.08,228.08,1207.82,228.29,1209.3,228Z" fill="none"/>
    </clipPath>
  </defs>
  <title>Kurou_name</title>
  <g id="Kurou_name">
    <g clip-path="url(#clip-path)">
      <path id="Kurou_k" d="M127.5,101.5l-60,157c20.78-85.73,75.06-115.47,132-152l-98,74c8.28,35.36,28.05,60.69,57,78" fill="none" stroke="#000" stroke-width="25"/>
    </g>
    <g clip-path="url(#clip-path-2)">
      <path id="Kurou_o" d="M224.5,182.5c-3.58-5.58-11.95-8-21-10q-23.94,15.88-35,52c5.9,8.11,12.37,13.64,20,14C209.06,224.05,220.73,205.22,224.5,182.5Z" fill="none" stroke="#000" stroke-width="21"/>
    </g>
    <g clip-path="url(#clip-path-3)">
      <path id="Kurou_r" d="M274.5,158.5l-33,85c18.58-41.12,43.29-62.58,73-68" fill="none" stroke="#000" stroke-width="23"/>
    </g>
    <g clip-path="url(#clip-path-4)">
      <path id="Kurou_o-2" data-name="Kurou_o" d="M390.5,180.5l-28,7c-8.35-4.3-6.23-11.69-1-20-13.78,9-26.32,28.75-38,56l16,16C363.73,216.19,379.26,184.93,390.5,180.5Z" fill="none" stroke="#000" stroke-width="24"/>
    </g>
    <g clip-path="url(#clip-path-5)">
      <path id="Kurou_u" d="M423.5,163.5c-17.52,28.82-23.68,62-11,71,21.1-7.95,35.35-31.52,47-61" fill="none" stroke="#000" stroke-width="20"/>
    </g>
    <g clip-path="url(#clip-path-6)">
      <path id="Kurou_o2" d="M613,183c7.15-28.1,4.75-51.55-10-69-21,0-39.29,18-56,46-22.32,53.08-19.58,76.95-5,87C561.89,256.44,585.63,234.53,613,183Z" fill="none" stroke="#000" stroke-width="23"/>
    </g>
    <g clip-path="url(#clip-path-7)">
      <path id="Kurou_t1" d="M673.5,134.5c-22.32,32.4-30.77,67.78-26,106,12,1.82,23.67-4.59,35-17" fill="none" stroke="#000" stroke-width="17"/>
      <line id="Kurou_t2" x1="697.5" y1="170.5" x2="627.5" y2="176.5" fill="none" stroke="#000" stroke-width="19"/>
    </g>
    <g clip-path="url(#clip-path-8)">
      <path id="Kurou_o3" d="M754.5,188.5c-3.06-8-9.2-12.86-16-17-10.78,3.06-24.89,26.54-39,50,3.11,11.41,7.41,20.17,17,17C732,224.89,750.23,214.25,754.5,188.5Z" fill="none" stroke="#000" stroke-width="20"/>
    </g>
    <g clip-path="url(#clip-path-9)">
      <path id="Kurou_h" d="M823,106,773,240c24.07-26.27,46.55-47.7,67-63-5.79,23.09-4.66,46.43,3,70" fill="none" stroke="#000" stroke-width="21"/>
    </g>
    <g clip-path="url(#clip-path-10)">
      <path id="Kurou_a1" d="M928.5,182.5l-22-13c-12.81,13.5-25,35.15-37,60l14,9c20.59-21.26,39.28-43.43,51-69-19.17,41-16.68,62.63,5,67" fill="none" stroke="#000" stroke-width="32"/>
    </g>
    <g clip-path="url(#clip-path-11)">
      <path id="Kurou_r2" d="M985,155l-32,89c20.11-42.14,46.16-64.15,77-70" fill="none" stroke="#000" stroke-width="24"/>
    </g>
    <g clip-path="url(#clip-path-12)">
      <path id="Kurou_a2" d="M1082.5,194.5c-1-16.27-7.24-21.1-17-18-15.4,12.21-26.6,29.71-34,52l13,6c17.35-17.13,35.58-34.7,41-46-9.81,39.69-5.28,56.94,23,37" fill="none" stroke="#000" stroke-width="21"/>
    </g>
    <g clip-path="url(#clip-path-13)">
      <path id="Kurou_d" d="M1175.5,183.5c-32.32-12.73-71.72,41.65-59,52,17.58,14.31,63.91-38.62,89-123-22.8,48.55-40.67,95.48-42,137" fill="none" stroke="#000" stroke-width="21"/>
    </g>
    <g clip-path="url(#clip-path-14)">
      <path id="Kurou_a3" d="M1259.5,185.5c-2.88-7.38-11.81-13-21-16-15.09,11.21-28.71,31.19-41,59l15,8c20.39-14.78,37.27-36.28,53-60-18.35,36-4.51,51.71,21,60" fill="none" stroke="#000" stroke-width="21"/>
    </g>
  </g>
</svg>
