<svg xmlns="http://www.w3.org/2000/svg" xmlns:xlink="http://www.w3.org/1999/xlink" width="442" height="385" viewBox="0 0 442 385">
  <defs>
    <clipPath id="clip-path">
      <path d="M126.71,339.07q-15.09-13.89-19.32-29.45a239.55,239.55,0,0,1-1.89-31.57q0-11.31,1.42-12.72c.94-.62,1.41-2.51,1.41-5.65q-.48-2.83,3.3-15.55c2.19-5.66,2.83-10.52,1.88-14.61.31-.62.87-1.72,1.65-3.3a27,27,0,0,1,3.07-4.71,8.18,8.18,0,0,0,2.59-4.95,7.55,7.55,0,0,0-.24-3.53v-.47a14.62,14.62,0,0,1,1.18-4.95,20.62,20.62,0,0,1,2.59-5,14.47,14.47,0,0,0,2.59-3.76l1.65-3.3q.47-3.3,7.3-21t9.19-21.44v-.94a59.35,59.35,0,0,1,5.19-9.9q.93-6.58,6.59-18.37,10.83-24,30.39-55.37t30.87-42.17a49.65,49.65,0,0,1,7.77-7.3A10.45,10.45,0,0,1,231.78,17c2.83,0,6.43,2.2,10.84,6.6q5.65,5.64,5.65,15.07,0,5.19-1.88,5.19-6.13,4.23-24.5,30.62a519.92,519.92,0,0,0-29.69,47.12q-6.13,13.2-10.6,22.15t-5.89,11.78l-1.89,4.24q-11.3,24-21.2,51.83a14.16,14.16,0,0,0-3.06,5.89,23.77,23.77,0,0,0-.71,4c-.63-.31-1.18.55-1.65,2.59a36.48,36.48,0,0,1-1.65,5.42q-3.3,2.83-3.29,13.67-5.19,12.72-8.49,32T131.42,304q1.88,15.54,25.91,25,10.85,4.24,16,4.24a39.7,39.7,0,0,0,10.13-.47q6.83-.94,15.79-2.36h-.47q2.35-.45,25.91-5.65a84.41,84.41,0,0,0,18.85-4.24q14.13-4.24,18.38-4.24c1.88,0,3.13.32,3.77.94a8.53,8.53,0,0,1,3.76,7.07l-.94,4.24q-1.41,3.78-15.08,11.31a134.15,134.15,0,0,1-26.38,11.31,107,107,0,0,1-22.85,6.59A141.06,141.06,0,0,1,179,360q-12.72,0-18.85-2.36A77.28,77.28,0,0,1,126.71,339.07Z" fill="none"/>
    </clipPath>
  </defs>
  <title>L_name</title>
  <g id="L">
    <g id="L_mask">
      <g clip-path="url(#clip-path)">
        <path d="M254.5,17.5c-63.09,68.21-113.53,157.31-140,286,10,25.46,30,38,55,44,33.32-.4,78.89-12.95,131-32" fill="none" stroke="#000" stroke-width="33"/>
      </g>
    </g>
  </g>
</svg>
