<svg id="LightName" xmlns="http://www.w3.org/2000/svg" xmlns:xlink="http://www.w3.org/1999/xlink"
 width="100" height="100" viewBox="0 0 100 100">
  <defs>
    <clipPath id="clip-path">
      <path id="L" d="M56,254.64q-9.85-9.06-12.61-19.22a156.9,156.9,0,0,1-1.23-20.61q0-7.38.92-8.3c.62-.41.92-1.64.92-3.69-.2-1.23.51-4.62,2.16-10.15q2.14-5.53,1.23-9.54L48.44,181a17.69,17.69,0,0,1,2-3.08,5.2,5.2,0,0,0,1.69-3.23,4.8,4.8,0,0,0-.15-2.3v-.31a9.67,9.67,0,0,1,.77-3.23,13.6,13.6,0,0,1,1.69-3.23,9.06,9.06,0,0,0,1.69-2.46L57.21,161q.3-2.16,4.77-13.69t6-14v-.62a39.29,39.29,0,0,1,3.39-6.46q.61-4.31,4.3-12A314.29,314.29,0,0,1,95.5,78.1q12.77-20.46,20.15-27.53a32.31,32.31,0,0,1,5.07-4.77,6.82,6.82,0,0,1,3.85-1.38q2.76,0,7.07,4.3a13.32,13.32,0,0,1,3.69,9.85c0,2.25-.41,3.38-1.23,3.38q-4,2.76-16,20A340,340,0,0,0,98.73,112.7q-4,8.61-6.92,14.45L88,134.84l-1.23,2.77Q79.35,153.3,72.9,171.44a9.16,9.16,0,0,0-2,3.85,15.08,15.08,0,0,0-.46,2.61c-.42-.2-.77.36-1.08,1.69a24.12,24.12,0,0,1-1.08,3.54c-1.44,1.23-2.15,4.21-2.15,8.92A101.06,101.06,0,0,0,60.59,213q-2.15,12.61-1.54,18.76Q60.28,241.87,76,248q7.08,2.78,10.46,2.77a26.42,26.42,0,0,0,6.61-.31c3-.41,6.41-.92,10.3-1.54H103q1.53-.3,16.91-3.69a54.77,54.77,0,0,0,12.31-2.77q9.23-2.76,12-2.76a3.56,3.56,0,0,1,2.46.61,5.57,5.57,0,0,1,2.46,4.61l-.61,2.77q-.93,2.47-9.84,7.38a87.77,87.77,0,0,1-17.23,7.39,70,70,0,0,1-14.92,4.3,92.38,92.38,0,0,1-16.45,1.54q-8.31,0-12.3-1.54A50.39,50.39,0,0,1,56,254.64Z" fill="none"/>
    </clipPath>
    <clipPath id="clip-path-2">
      <path id="I" d="M175,233a16.41,16.41,0,0,1,1.53-7.38,13.75,13.75,0,0,1,.62-3.69,13.78,13.78,0,0,0,.61-2.77q-.3-1.85,2.46-10.15,5.55-12.3,14.77-43.37a3.35,3.35,0,0,1,1.23-2.61,6.79,6.79,0,0,1,3.69-1.39,16.87,16.87,0,0,1,3.38-.61,4.43,4.43,0,0,1,3.23,1.38,37.45,37.45,0,0,1,3.85,5.08q1.85,1.85,1.84,5.53,0,5.85-4,14.15A72,72,0,0,0,203,202.51a134.05,134.05,0,0,0-5.84,15.38c-.41,1.23-1,3.69-1.84,7.38a28.38,28.38,0,0,1-3.39,8.92,66.67,66.67,0,0,1-3.38,12c-1,2.26-2.15,3.39-3.38,3.39-1.44,0-3.39-1.43-5.85-4.31Q175,241,175,233ZM205.46,113q-1.54-5.24,0-5.23,2.44-.3,5.69-5.39c2.15-3.38,3.12-6.19,2.92-8.45a3.52,3.52,0,0,1,.92-2.31,4,4,0,0,1,2.15-1.38,8.43,8.43,0,0,1,4.31-1.54q5.22,0,9.53,7.38a17.32,17.32,0,0,1,1.85,7.07,12.21,12.21,0,0,1-1.54,5.69,43.83,43.83,0,0,1-5.54,7.54q-5.22,7.08-9.84,7.07-3.07,0-6.76-3.07Q207,118.24,205.46,113Z" fill="none"/>
    </clipPath>
    <clipPath id="clip-path-3">
      <path id="G" d="M323.25,169.29q0,4.62-3.69,9.23c-.61,1-1.74,2.61-3.38,4.77a51.5,51.5,0,0,0-4.31,6.61,28.3,28.3,0,0,0-2.76,7.69q-1.25,7.08-7.39,30.14l-3.38,12-4.92,19.06q-13.85,47.68-27.68,55.06a21.53,21.53,0,0,1-7.69,1.54q-6.77,0-14-4.46a41.32,41.32,0,0,1-12.45-12.15q-3.07-4.32-6-13.69t-1.08-10.61a3,3,0,0,1,2.16-.61,9.51,9.51,0,0,1,4.61,1.38,6.2,6.2,0,0,1,3.08,3.23,40.1,40.1,0,0,0,5.22,8.92q4,5.53,5.85,5.84a19.42,19.42,0,0,0,8.3,2.46,8.55,8.55,0,0,0,5.23-1.84,35.53,35.53,0,0,0,8.46-10.31q3.52-6.3,7.84-20.14l2.46-8.92q7.38-27.06,10.77-35.06a42.28,42.28,0,0,1,3.07-7.69L286,216.66q-3.69,3.39-7.69,6.46A38.64,38.64,0,0,1,270,228q-2.15,2.76-10.76,2.77A42.57,42.57,0,0,1,247,229q-6.47-3.37-8-5.23t-4.31-8.61q-1.23-2.46-1.23-7.69,0-13.22,6.15-28.3,5.85-12,18.46-25.52t21.84-16.31a15.28,15.28,0,0,1,6.76-1.84,22.37,22.37,0,0,1,7.08,1.23,21.82,21.82,0,0,1,7.69,2.15,69.88,69.88,0,0,1,9.22,7.08,46.15,46.15,0,0,1,10.77,16.3A15.81,15.81,0,0,1,323.25,169.29ZM295,177.44a48.72,48.72,0,0,0,1.54-16.15,16.09,16.09,0,0,0-1.24-6,3.49,3.49,0,0,0-3.38-1.69q-5.85,0-13.53,5.53a75.08,75.08,0,0,0-14.77,14.46,55.44,55.44,0,0,0-7.68,14.76,58.53,58.53,0,0,0-3.69,19.38c0,4.51.81,7.07,2.46,7.69A32.54,32.54,0,0,0,272,209.89q7.84-5.22,15.54-17.22A44.81,44.81,0,0,0,295,177.44Z" fill="none"/>
    </clipPath>
    <clipPath id="clip-path-4">
      <path id="H" d="M429.67,248q-7.69,0-12.46-6.77t-4.76-18.14q0-5.24,2.15-17.38a135.21,135.21,0,0,1,4.92-20.15,24,24,0,0,0,.92-2.46,6,6,0,0,0,.47-2.61c-.11-.51-.37-.77-.77-.77q-1.54,0-5.54,4a186.78,186.78,0,0,0-18.45,18.6,169.19,169.19,0,0,0-16.3,21.54q-6.47,10.31-6.46,14.3a6,6,0,0,1-2.62,5.23,10.13,10.13,0,0,1-6,1.84,8.86,8.86,0,0,1-4-.92,15.82,15.82,0,0,1-6.31-6.15q-1.7-3.39-1.69-9.85,0-5.22.31-8.3a270.41,270.41,0,0,1,4.46-37.37q3.22-16.14,12.45-46,.31-.93,5.85-15.69,9.52-27.06,10.76-29.52,2.14-2.16,6.31-13.38t4.15-13.69a10.42,10.42,0,0,1,3.07-7.69l3.08-3.07a12.64,12.64,0,0,1,6.46,2.3,9.93,9.93,0,0,1,4.61,5.38A18,18,0,0,1,416.45,70a28.92,28.92,0,0,1-2.62,10.61q-2.61,6.3-8.76,18.3a312.16,312.16,0,0,0-16.61,40.9q-3.39,9.86-9.38,30.61t-6,24.14a1.9,1.9,0,0,0,2.15,2.16c1.64,0,3.39-1.23,5.23-3.7q1.23-2.44,11.69-12,1.22-1.23,13.84-12.77t18.14-11.53a11.61,11.61,0,0,1,7.23,2.77,13.66,13.66,0,0,1,4.77,6.46,9.9,9.9,0,0,1,1.85,2.46,6.49,6.49,0,0,0,1.23,1.84c.41.42.61,1.65.61,3.69q0,10.77-6.77,31.07-5.22,20.29-5.22,24.3c0,1.84.51,2.77,1.53,2.77q.93-.61,3.69-2.16t6.46-3.69Q450,219.13,458,219.12q3.69,0,3.69,2.46a5.38,5.38,0,0,1-.92,2.15,5.27,5.27,0,0,0-.93,2.46v1.54q0,1.54-8.3,9.23t-12,8.61A20.57,20.57,0,0,1,429.67,248Z" fill="none"/>
    </clipPath>
    <clipPath id="clip-path-5">
      <path id="T" d="M497.8,264.79q-3.85-4.16-3.85-12.45c0-1.44.2-4,.62-7.69a65.92,65.92,0,0,0,1.84-8.62c1-4.5,2-7.17,3.08-8a3.35,3.35,0,0,0,.61-1.23,1.26,1.26,0,0,0-.61-1.54q0-4,2.77-11.07a37,37,0,0,1,1.53-4.31c.62-1.43,1-2.35,1.23-2.77a2.49,2.49,0,0,1-.61-1.84,4.29,4.29,0,0,1,1.69-3.08,13.72,13.72,0,0,0,2.46-2.77,2,2,0,0,0-.15-2.46c-.42-1,1.54-5.63,5.84-13.84q4-8,4.31-8.92-.31-.92,4.46-11.38t7.53-15.68c1.85-1,1.13-1.74-2.15-2.16a72.78,72.78,0,0,0-12-.3q-10.14-.31-15.68-1.08A26,26,0,0,1,491.8,141q-2.78-3.37-2.77-5.22,0-3.08,7.38-3.39,8-.3,24.61-2.15L536.71,129l.92-5.23a129.19,129.19,0,0,0,6.15-11.53,40.5,40.5,0,0,0,2.77-9.38,46,46,0,0,0,3.23-6.16,32.76,32.76,0,0,0,2.92-9.53q3.38-5.83,6.3-11.23c2-3.58,3.13-5.69,3.54-6.3q3.38-2.77,4.61-2.77,1.85,0,6.15,3.08c5.13,3.49,7.69,6.45,7.69,8.92a5.31,5.31,0,0,1-1.84,3.69,90.47,90.47,0,0,0-3.69,9.84,49.1,49.1,0,0,0-4.62,7.53,37.12,37.12,0,0,0-3.38,9.08q-2.46,5.24-4.77,9.38t-3.23,4.15A3.51,3.51,0,0,0,560.7,125a5.71,5.71,0,0,0,3.07.62,29.38,29.38,0,0,0,3.85-.31,44.79,44.79,0,0,1,5.68-.31,34,34,0,0,0,5.39-.92,17.29,17.29,0,0,1,4.46-.62,9.66,9.66,0,0,1,3.69.93,13.43,13.43,0,0,1,3.07,8.3,5.21,5.21,0,0,1-2.76,4.92c-1,.21-3.29.82-6.77,1.85A48.45,48.45,0,0,1,569,141.3l-16.3,1.54-5.23,10.46a77,77,0,0,0-3.69,7.07,19.32,19.32,0,0,1-2.15,4c0,1-.83,3.08-2.46,6.15s-2.88,5.54-3.7,7.38a67.72,67.72,0,0,1-3.69,8.46c-1.43,2.77-2.36,4.57-2.76,5.38-.62,0-1,.16-1.08.47a4.37,4.37,0,0,0-.15,1.38l.61,2.46a4.42,4.42,0,0,1-1.54,3.08,6.42,6.42,0,0,0-2.31,2.15,20,20,0,0,0-1.38,2.15,2.09,2.09,0,0,1,.62,1.54c0,1.44-.72,3.28-2.16,5.54q0,5.22-4.3,15.68a68,68,0,0,0,.61,7.08c.2,1,.72,1.43,1.54,1.23h1.23l4-.31q4.31-1.84-4.61,21.53l-4.93,8.3c-.2.41-.92,1.59-2.15,3.54s-2.26,2.92-3.07,2.92Q501.64,268.93,497.8,264.79Z" fill="none"/>
    </clipPath>
    <clipPath id="clip-path-6">
      <path id="Yagami_y" d="M799.93,79.05c-.2,1.18-1.19,2.62-3,4.3s-3,2.83-3.56,3.42q-6.54,5.66-20.8,20.5T750,132.52q-11.88,13.68-21.69,24.22t-14.26,15a75.31,75.31,0,0,1-5.94,6.24q-3,10.4-5.35,20.8l-5.94,19.31q-1.49,4.46-4.16,14.11a147,147,0,0,1-4.45,14.11c-.6,2.38-1.19,4.71-1.79,7s-1.18,4.51-1.78,6.69q-1.78,6.82-3.12,11.29T679,277.06q-1.2,1.33-3.57.45-1.19-.3-8.91-5.65c-1.78-2-2.68-3.76-2.68-5.35,0-1.38.6-4.06,1.79-8l2.37-8.91a83.09,83.09,0,0,1,2.83-16.93,65.34,65.34,0,0,1,6.09-16.05q0-4.46,3-13.81t6.24-17.38l5.05-14.26-5.05-6.24a113.18,113.18,0,0,1-9.81-17.38,70.9,70.9,0,0,1-4.75-18.27,93.64,93.64,0,0,1-3.27-25q0-4.15.6-23.17.29-12.78,3-17.83t3-5.94c1.19-1.19,2.17-1.79,3-1.79q3.27,0,5.79,7.43a50,50,0,0,1,2.23,17.53q1.78,65.07,14.86,73.38a17.55,17.55,0,0,0,3,.6q3.26,0,7-3.42t14.7-15.3l6.54-7.13q4.75-5,25.25-28.52,11.88-14,19.17-22t11.43-10.39a6.86,6.86,0,0,1,2.38-2.38,11.25,11.25,0,0,1,2.53-1.19,7.36,7.36,0,0,1,1.33-.3,2.68,2.68,0,0,1,1.79,1.64,33.46,33.46,0,0,1,1.33,3.86A15.59,15.59,0,0,0,799,73.7,10.31,10.31,0,0,1,799.93,79.05Z" fill="none"/>
    </clipPath>
    <clipPath id="clip-path-7">
      <path id="Yagami_a" d="M756.4,242.9c-1.29-1.29-1.93-2.13-1.93-2.53a7.74,7.74,0,0,0-1.48-5.05,4,4,0,0,1-.6-2.67q0-4.76,4.61-16.2a222.21,222.21,0,0,1,12-24.8,38.83,38.83,0,0,0,4.6-6.24q2.82-4.46,3.72-5a3.34,3.34,0,0,1,.89-2.23,2.68,2.68,0,0,1,2.08-1v-1.78q0-2.69,9.8-12.93t16-14.11a26.64,26.64,0,0,1,15.15-5.05,14.69,14.69,0,0,1,9.21,3Q832,148,844.2,159l11,9.81-5.35,14.85a46.6,46.6,0,0,0-2.67,14.56,40.13,40.13,0,0,0,6.53,21.69q1.49,3.27,5.94,6.24a21.1,21.1,0,0,0,8.92,3.56q6.53,1.2,6.53,6.54,0,5.94-5.35,7.13a15.65,15.65,0,0,1-3.56.3q-17.53,0-30.3-24.66a40,40,0,0,1-3.12-6.54,36.47,36.47,0,0,1-2.23-6.53q-1.78,2.37-4.46,5.64c-1.78,2.18-3.47,4.06-5.05,5.65q-32.38,32.38-51.1,32.38a19.79,19.79,0,0,1-10.7-3A14.57,14.57,0,0,0,756.4,242.9Zm16.64-12a29.53,29.53,0,0,0,7.72-3,54.37,54.37,0,0,0,9.36-6.24q25.54-22,36.84-38.32l6.54-10.7q-3-6.24-6.24-9.06t-5.94-2.82q-6.24,0-19.61,15.6A193.09,193.09,0,0,0,777.35,213a105.22,105.22,0,0,0-4.76,10.25c-1.38,3.46-2.28,5.69-2.67,6.68C769.92,231,771,231.26,773,230.86Z" fill="none"/>
    </clipPath>
    <clipPath id="clip-path-8">
      <path id="yagami_g" d="M973.73,174.41a14.28,14.28,0,0,1-3.57,8.92,55.69,55.69,0,0,1-3.27,4.6,49.69,49.69,0,0,0-4.15,6.39,27.65,27.65,0,0,0-2.68,7.43q-1.18,6.84-7.13,29.11l-3.27,11.59-4.75,18.42q-13.36,46-26.74,53.18a20.7,20.7,0,0,1-7.43,1.49q-6.54,0-13.51-4.31a40,40,0,0,1-12-11.74q-3-4.15-5.79-13.22t-1-10.25a2.87,2.87,0,0,1,2.08-.59,9.21,9.21,0,0,1,4.46,1.33,6,6,0,0,1,3,3.12,38.7,38.7,0,0,0,5,8.62c2.57,3.56,4.45,5.45,5.64,5.64a18.72,18.72,0,0,0,8,2.38,8.23,8.23,0,0,0,5-1.78,34.2,34.2,0,0,0,8.17-9.95q3.42-6.1,7.58-19.46l2.38-8.62q7.13-26.14,10.4-33.87a39.74,39.74,0,0,1,3-7.43l-5.35,4.76q-3.57,3.27-7.43,6.24a37.19,37.19,0,0,1-8,4.75q-2.08,2.67-10.4,2.67a41.09,41.09,0,0,1-11.88-1.78q-6.24-3.27-7.73-5.05t-4.16-8.32q-1.18-2.37-1.18-7.43,0-12.76,5.94-27.33,5.64-11.58,17.82-24.66t21.1-15.74a14.74,14.74,0,0,1,6.53-1.79,21.71,21.71,0,0,1,6.84,1.19,21,21,0,0,1,7.42,2.08,66.57,66.57,0,0,1,8.92,6.83A44.85,44.85,0,0,1,972,167.58,15.41,15.41,0,0,1,973.73,174.41Zm-27.34,7.88a46.51,46.51,0,0,0,1.49-15.6,15.47,15.47,0,0,0-1.19-5.79,3.38,3.38,0,0,0-3.27-1.64q-5.64,0-13.07,5.35a72.43,72.43,0,0,0-14.26,14,54,54,0,0,0-7.43,14.26,56.75,56.75,0,0,0-3.56,18.72c0,4.36.79,6.83,2.38,7.43a31.51,31.51,0,0,0,16.78-5.35q7.57-5,15-16.64A42.84,42.84,0,0,0,946.39,182.29Z" fill="none"/>
    </clipPath>
    <clipPath id="clip-path-9">
      <path id="yagami_a-2" data-name="yagami_a" d="M1012.35,249.28a31.86,31.86,0,0,1-7.13-.74c-2.18-.49-3.27-1.14-3.27-1.93a1.71,1.71,0,0,0-.3-1.19,1.75,1.75,0,0,0-1.18-.3c-.2-.19-.8-.69-1.79-1.48a15.38,15.38,0,0,0-3.56-2.08,16.12,16.12,0,0,1-2.68-8.91q0-5.06,2.68-15.75.89-9.51,8.91-23.77a171.08,171.08,0,0,1,18.87-27q10.83-12.78,19.46-17.83a15.3,15.3,0,0,1,11.29-4.46,20.23,20.23,0,0,1,10.1,2.68,33.34,33.34,0,0,1,8.76,8,52.27,52.27,0,0,1,7.28,11.59,33.47,33.47,0,0,1,1.19,8.61,126.15,126.15,0,0,1-1.19,14,99.06,99.06,0,0,0-2.52,13.08,101,101,0,0,0-1,13.37,11.8,11.8,0,0,0,.59,6.68c.79,1.69,1.88,2.53,3.27,2.53a7.46,7.46,0,0,0,3.27-.89,14.38,14.38,0,0,1,6.53-1.49,7.93,7.93,0,0,1,5.35,1.78,6.68,6.68,0,0,1,2.08,5.35q0,5.35-7.28,10.7t-13.81,5.34q-4.47,0-8.17-7a112.27,112.27,0,0,1-7.28-18l-1.79-6.84-12.77,12.18-6.83,6.84A70.25,70.25,0,0,0,1034,238q-3.27,5.65-16.34,10.7A27.34,27.34,0,0,1,1012.35,249.28Zm23.77-32.68a164.06,164.06,0,0,0,17.23-19.9q9.21-12.18,11.59-24.07a25.33,25.33,0,0,0-3.87-7.13c-1.78-2.38-3.37-3.66-4.75-3.86q-5.94,0-12.48,6.83a194.17,194.17,0,0,0-15.45,19l-9.8,14.55q-1.79,2.39-6.24,12.63c-3,6.83-4.46,11-4.46,12.33q0,6.54,3.87,6.54a13.48,13.48,0,0,0,6.83-2.38Q1025.72,227,1036.12,216.6Z" fill="none"/>
    </clipPath>
    <clipPath id="clip-path-10">
      <path id="yagami_m" d="M1117.52,240.37c0-1.58-.5-2.38-1.49-2.38q-1.79-1.78,6.84-20.35t14.85-28.37a5.41,5.41,0,0,0,1.78-2.53c.4-1.08.4-1.63,0-1.63.4-.59,1-1.58,1.79-3a29.07,29.07,0,0,1,2.37-3.57q5.05-9.8,4.16-15.74a2.63,2.63,0,0,0-2.52-.89,4,4,0,0,0-1.64.59,25.37,25.37,0,0,1-3.12,1,15.82,15.82,0,0,0-4.3,1.93q-6.84,4.45-8.62,4.46a3.86,3.86,0,0,1-3.12-1.79,23.61,23.61,0,0,1-2.82-5.94,13.89,13.89,0,0,1-.89-3.86q0-2.07,2.37-4.16a13.16,13.16,0,0,1,4.31-2.82,22.28,22.28,0,0,0,3.42-1.64q6.24-3.56,8.91-4.15a34,34,0,0,1,8.62-1.49q8.91,0,12.47,8.32a17.68,17.68,0,0,1,4.16,11.59q0,5.64-4.16,14.55l-3,4.46a7.25,7.25,0,0,0-.89,2.38c0,.4.1.59.3.59.79,0,1.68-.69,2.67-2.08q1.49-1.48,3.87-3.71c1.58-1.49,2.67-2.23,3.26-2.23a1.76,1.76,0,0,0,.89-.45c.4-.29.6-1,.6-2.22l3-2.68q1.19,0,7.13-5l5.65-4.46a10.41,10.41,0,0,1,5.94-2.37,8.88,8.88,0,0,1,2.67-.3q5.64,0,9.21,6.09t3.57,15.6l-6.24,16,10.69-13.07a61.13,61.13,0,0,1,7.13-7.13,3.4,3.4,0,0,1,1.64-2.23,4.58,4.58,0,0,1,1.33-.44,1.46,1.46,0,0,0,.75-.3,1,1,0,0,0,.44-.89c.79-.6,1.83-1.34,3.12-2.23a10.12,10.12,0,0,0,2.53-2.23,14.49,14.49,0,0,1,5.94-1.19q6.24,0,10.4,8a19.81,19.81,0,0,1,2.23,5.8,56.36,56.36,0,0,1,.44,8.46q-1.19,6.54-2.08,13.67c0,.79-.2,2.78-.59,5.94-1,2.18-1.49,5.55-1.49,10.1a19.19,19.19,0,0,0,.45,5.35c.29.8,1,1.19,2.23,1.19a54.58,54.58,0,0,0,11.73-4.31q7.27-3.41,10.55-6.68,4.45-4.45,8-4.46c2.18,0,3.56,1.19,4.16,3.57.59,1.18-.94,4.36-4.61,9.5s-6.19,7.73-7.57,7.73c-.4,0-1.14.59-2.23,1.78a16.2,16.2,0,0,1-2.53,2.38q-5.06,5.64-8.31,5.64a9.08,9.08,0,0,0-3.12.75,9.83,9.83,0,0,1-3.42.74,8.73,8.73,0,0,1-3,.29,17.09,17.09,0,0,1-8.62-2.37,10.87,10.87,0,0,1-5.34-7.13q-2.39-5.94-2.38-16.64c0-1.78.19-4.65.59-8.62l1.49-9.21q.59-5.64,1.19-6.83v-2.67c0-3.37-.3-5.05-.89-5.05q-2.39,0-15.75,15.3T1194.17,227a45.62,45.62,0,0,0-4.61,7.87q-2.52,5.2-3.12,5.5a3.69,3.69,0,0,1-2.67,1.19,6.18,6.18,0,0,1-3.86-1.78,16.09,16.09,0,0,1-3.57-4.46,13.45,13.45,0,0,1-1.18-4.46,36.87,36.87,0,0,1,1.78-8.17q1.79-6.08,5-16.19,3.27-9.81,5.49-16.93c1.49-4.76,2.43-7.92,2.83-9.51q0-2.07-14.86,10.69-3,3.57-6.83,7.43-6.84,7.14-15.3,16.64a232.86,232.86,0,0,0-14.71,18.12q-6.54,8.91-9.65,12.48c-2.08,2.38-3.82,3.57-5.2,3.57-1,0-2.28-.9-3.87-2.68A9.52,9.52,0,0,1,1117.52,240.37Z" fill="none"/>
    </clipPath>
    <clipPath id="clip-path-11">
      <path id="yagami_i" d="M1296.67,242.15c-1-.39-1.69-.69-2.08-.89a11.83,11.83,0,0,0-.75-3.12,12.94,12.94,0,0,1-.74-2.82c-1.59-.79-2.37-1.78-2.37-3a14,14,0,0,1,.89-4.16q3.86-6.84,13.66-31.05t11-28.67a6.93,6.93,0,0,1,.89-3,11,11,0,0,1,2.08-3,3.69,3.69,0,0,1,2.67-1.19q3.27,0,6.09,4.46a18,18,0,0,1,2.82,9.8q0,3.57-6.68,20.35t-15,33.72q-1.2,2.39-3.42,6.84t-3.42,5.34a5.29,5.29,0,0,1-3.27.9A6.78,6.78,0,0,1,1296.67,242.15Zm34.61-118.09q-5.79-6.09-5.79-12.63c0-1,1.18-3.27,3.56-6.83s3.57-5.55,3.57-5.95a15.47,15.47,0,0,1,7.13,1.49,47.48,47.48,0,0,0,8.32,12.18c1.18,1.59,2.27,3.07,3.26,4.46a6.55,6.55,0,0,1,1.49,3.56,33.52,33.52,0,0,1-.45,6.84,3.21,3.21,0,0,1-2.37,2.37,28.93,28.93,0,0,1-7.28.6Q1337.07,130.15,1331.28,124.06Z" fill="none"/>
    </clipPath>
  </defs>
  <title>LightName</title>
  <g id="L_MASK">
    <g clip-path="url(#clip-path)">
      <path id="L1" d="M143.5,41.5C142,26,38.39,181.6,45.5,226.5c3.68,23.25,22,32,40,36s76-24,76-24" fill="none" stroke="#000" stroke-width="35"/>
    </g>
  </g>
  <g id="I_MASK">
    <g clip-path="url(#clip-path-2)">
      <line id="I_2" x1="209" y1="121.35" x2="229.38" y2="90" fill="none" stroke="#000" stroke-width="32"/>
      <line id="I_1" x1="211.5" y1="145.5" x2="175.5" y2="258.5" fill="none" stroke="#000" stroke-miterlimit="10" stroke-width="27"/>
    </g>
  </g>
  <g id="G_MASK">
    <g clip-path="url(#clip-path-3)">
      <path id="G_2" d="M218.5,258.5c13.21,30.48,28,52,43,52s37-90.53,51-147" fill="none" stroke="#000" stroke-width="34"/>
      <path id="G_1" d="M312.5,163.5c-4.78-20.59-20.1-23.87-41-18-13.67,14.49-24.3,35.23-31,64,5.95,11,13.08,18.39,24,14C286.61,212.82,301.87,191.69,312.5,163.5Z" fill="none" stroke="#000" stroke-width="36"/>
    </g>
  </g>
  <g id="H_MASK">
    <g clip-path="url(#clip-path-4)">
      <path id="H_1" d="M425.5,35.5c-40.16,67.48-75,196.73-67,213,0,0,57-88,67-80s-15,65,0,69,32-6.66,49-22" fill="none" stroke="#000" stroke-width="31"/>
    </g>
  </g>
  <g id="T_MASK">
    <g clip-path="url(#clip-path-5)">
      <path id="T_2" d="M606.5,126.5c-1,4.6-135,12.95-136,8" fill="none" stroke="#000" stroke-width="19"/>
      <path id="T_1" d="M582.81,58.22C549,125.4,516.92,191.74,504.5,248.5l28,10" fill="none" stroke="#000" stroke-width="41"/>
    </g>
  </g>
  <g id="y-mask">
    <g clip-path="url(#clip-path-6)">
      <path id="y2" d="M679.5,39.5c-6,56.86-.71,100.78,20,127l-34,118" fill="none" stroke="#000" stroke-width="29"/>
      <path id="y1" d="M806.5,62.5c-40.8,45.42-79,85.31-107,104" fill="none" stroke="#000" stroke-width="28"/>
    </g>
  </g>
  <g id="a1_mask">
    <g clip-path="url(#clip-path-7)">
      <path id="a2" d="M844.5,170.5c-6.12,37.13-2.13,66.74,36,71" fill="none" stroke="#000" stroke-width="26"/>
      <path id="a1" d="M844.5,170.5a57.3,57.3,0,0,0-3.48-5.27A43.67,43.67,0,0,0,816.5,148.5c-22,19.5-40.7,47-56,83,2.58,7.34,7.17,12.49,16,13C799,228.52,821.74,201.48,844.5,170.5Z" fill="none" stroke="#000" stroke-width="26"/>
    </g>
  </g>
  <g id="g_mask-2" data-name="g_mask">
    <g clip-path="url(#clip-path-8)">
      <path id="g1" d="M962.5,176.5c-1.75-15.31-10.62-23.44-25-26-19.24,11.82-34.09,31.08-45,57,2.91,12.39,8.79,20.1,19,21C935.22,217.6,953.13,201.14,962.5,176.5Z" fill="none" stroke="#000" stroke-width="25"/>
      <path id="g2" d="M962.5,176.5c-14.73,55.11-29.35,111.05-49,131-19.84-1.5-30.11-16.22-36-37" fill="none" stroke="#000" stroke-width="23"/>
    </g>
  </g>
  <g id="a2_mask">
    <g clip-path="url(#clip-path-9)">
      <path id="a22" d="M1071.5,167.5c-4.1,26.42-2.37,48.55,3,68,8.07,2,19.49-2.82,34-14" fill="none" stroke="#000" stroke-width="27"/>
      <path id="a21" d="M1071.5,168.5c-.59-13.18-9.14-17.45-21-18-24.76,16.82-40.49,44.32-51,78,3.7,10,9.85,15.33,20,13C1044.45,224.19,1061.67,199.75,1071.5,168.5Z" fill="none" stroke="#000" stroke-width="20"/>
    </g>
  </g>
  <g id="m_mask">
    <g clip-path="url(#clip-path-10)">
      <path id="m" d="M1115.5,167.5s37-24,41-14-21.12,62.2-41,96c0,0,76-102,82-79s-18,79-18,79c-3.45-3,42.51-79.92,56-73,8.44,4.33,0,72,0,72l50-40" fill="none" stroke="#000" stroke-width="27"/>
    </g>
  </g>
  <g id="I_mask-2" data-name="I_mask">
    <g clip-path="url(#clip-path-11)">
      <line id="i_dot" x1="1322.5" y1="95.5" x2="1354.5" y2="134.5" fill="none" stroke="#000" stroke-width="28"/>
      <line id="i-2" data-name="i" x1="1330.5" y1="155.5" x2="1290.5" y2="246.5" fill="none" stroke="#000" stroke-width="24"/>
    </g>
  </g>
</svg>
