<svg xmlns="http://www.w3.org/2000/svg" xmlns:xlink="http://www.w3.org/1999/xlink" width="1368" height="385" viewBox="0 0 1368 385">
  <defs>
    <clipPath id="Lind-clip-path-1">
      <path d="M19.66,263Q11.33,255.37,9,246.78a132.42,132.42,0,0,1-1-17.43q0-6.24.78-7,.78-.52.78-3.12-.26-1.56,1.82-8.59,1.82-4.68,1-8.07l.91-1.82a14.69,14.69,0,0,1,1.69-2.6,4.46,4.46,0,0,0,1.43-2.73,4.16,4.16,0,0,0-.13-2v-.26a8.08,8.08,0,0,1,.65-2.73,11.34,11.34,0,0,1,1.43-2.73,8,8,0,0,0,1.43-2.08l.91-1.82q.26-1.82,4-11.58t5.07-11.84v-.52a33.18,33.18,0,0,1,2.86-5.46q.52-3.64,3.64-10.15a265.1,265.1,0,0,1,16.78-30.57q10.79-17.3,17-23.29a27.69,27.69,0,0,1,4.29-4,5.75,5.75,0,0,1,3.25-1.17q2.34,0,6,3.64a11.25,11.25,0,0,1,3.12,8.33c0,1.91-.35,2.86-1,2.86Q82.36,102.39,72.21,117a287.68,287.68,0,0,0-16.39,26Q52.44,150.26,50,155.2l-3.25,6.5-1,2.34Q39.43,177.32,34,192.67a7.8,7.8,0,0,0-1.69,3.25,13,13,0,0,0-.39,2.21c-.35-.17-.65.31-.91,1.43a20.49,20.49,0,0,1-.91,3q-1.82,1.56-1.82,7.54a85.66,85.66,0,0,0-4.68,17.69q-1.82,10.67-1.3,15.87,1,8.59,14.31,13.79,6,2.34,8.85,2.34a21.94,21.94,0,0,0,5.59-.26q3.77-.52,8.72-1.3h-.26q1.3-.26,14.31-3.12a46.5,46.5,0,0,0,10.41-2.34q7.81-2.34,10.15-2.34a3,3,0,0,1,2.08.52,4.71,4.71,0,0,1,2.08,3.9L98,257.19q-.78,2.09-8.33,6.24a74.05,74.05,0,0,1-14.57,6.24,59,59,0,0,1-12.62,3.64,78,78,0,0,1-13.92,1.3q-7,0-10.41-1.3A42.69,42.69,0,0,1,19.66,263Z" fill="none"/>
    </clipPath>
    <clipPath id="Lind-clip-path-2">
      <path d="M120.34,244.7a13.81,13.81,0,0,1,1.3-6.24,11.58,11.58,0,0,1,.52-3.12,11.72,11.72,0,0,0,.52-2.34q-.26-1.56,2.08-8.59,4.68-10.4,12.49-36.68a2.84,2.84,0,0,1,1-2.21,5.76,5.76,0,0,1,3.12-1.17,14.47,14.47,0,0,1,2.86-.52A3.75,3.75,0,0,1,147,185a31.19,31.19,0,0,1,3.25,4.29,6.36,6.36,0,0,1,1.56,4.68q0,4.95-3.38,12a60.48,60.48,0,0,0-4.42,13,113.86,113.86,0,0,0-4.94,13q-.52,1.56-1.56,6.24a23.75,23.75,0,0,1-2.86,7.54,56.19,56.19,0,0,1-2.86,10.15q-1.3,2.87-2.86,2.86-1.82,0-4.94-3.64Q120.33,251.47,120.34,244.7ZM146.1,143.24q-1.31-4.42,0-4.42,2.08-.26,4.81-4.55t2.47-7.15a3,3,0,0,1,.78-2A3.5,3.5,0,0,1,156,124a7.16,7.16,0,0,1,3.64-1.3q4.42,0,8.06,6.24a14.61,14.61,0,0,1,1.56,6,10.31,10.31,0,0,1-1.3,4.81,37.09,37.09,0,0,1-4.68,6.37q-4.43,6-8.33,6-2.6,0-5.72-2.6Q147.39,147.66,146.1,143.24Z" fill="none"/>
    </clipPath>
    <clipPath id="Lind-clip-path-3">
      <path d="M253.28,249.25q-3.38-2.21-5.72-7.41a61.23,61.23,0,0,1-2.34-16.65,13.39,13.39,0,0,1,.78-5.46q1-1,.91-4.55t-.13-5.07q-.26-6-3.64-6a9.94,9.94,0,0,0-5.2,1.82q-14.57,9.11-24.46,15.61a167.48,167.48,0,0,0-19,14.57A49,49,0,0,0,189,243.4q-1.82,3.12-2.6,4.29a2.4,2.4,0,0,1-2.08,1.17,8.4,8.4,0,0,1-2.08.52,5.43,5.43,0,0,1-3.12-1.43q-1.82-1.43-2.34-2-1-1-3.38-3.51t-2.6-3.51a60.59,60.59,0,0,1,1.69-9.63q1.69-7.54,2.73-9.63.78,0,2.34-3.25a35.18,35.18,0,0,1,2.86-5.07q.78-3.9,6.76-18A61.64,61.64,0,0,0,192.27,183a43.91,43.91,0,0,0,2-10.41v-.52a2.1,2.1,0,0,1,.78-1.69,2.46,2.46,0,0,1,1.56-.65,6,6,0,0,1,3.38-1.3q3.38,0,6.76,4.16a16.56,16.56,0,0,1,3.9,10.41q0,6.77-8.59,21.33-.78,1.82-2.21,5.2a14.91,14.91,0,0,0-1.43,4.68L213,204.38q2.08-2.34,11.19-8.33t12.75-6.76q6.24-2.86,7.8-2.86,3.12,0,8.46,4.68t6.37,7.81a12,12,0,0,0,.52,4.16,50.92,50.92,0,0,1,1.3,12.23,50.25,50.25,0,0,1-.65,8.46q-.65,3.77-1.69,4.29a2,2,0,0,0,.26.78,1,1,0,0,0,1,.52v1.3q-2.09,0-.52,4.42a16.09,16.09,0,0,0,4.16,6.76q2.6,2.6,2.6,5.2,0,3.12-4.68,4.42A15.37,15.37,0,0,1,253.28,249.25Z" fill="none"/>
    </clipPath>
    <clipPath id="Lind-clip-path-4">
      <path d="M347.2,258.23a35.27,35.27,0,0,1-4.29-6.37,13.55,13.55,0,0,1-1.17-5.85,34.08,34.08,0,0,1,.26-4.68l1-12q-.52-.52-2,.26a14.07,14.07,0,0,0-2.6,1.82c-.78.7-1.52,1.3-2.21,1.82l-4.42,3.64q-11.45,13-19.9,18.47t-15.74,5.46l-2.86-.26a9.69,9.69,0,0,1-8.06-5.33q-2.6-4.81-2.6-12.36a44.61,44.61,0,0,1,.26-5.72,72.84,72.84,0,0,1,3.9-16.91,83.89,83.89,0,0,1,8.85-16.91,58,58,0,0,1,12.88-15.09,52,52,0,0,1,16.78-10.15,42.49,42.49,0,0,1,14.57-2.86,31.27,31.27,0,0,1,8.85,1.3,12.05,12.05,0,0,0,4.94,1.56q2.08,0,3.12-2.6a24.94,24.94,0,0,0,2.34-5.72,62.15,62.15,0,0,1,3.38-8.06l5.72-16.91L375,128.67,382.59,111q5.2-10.4,8.85-10.41,2.08,0,4.94,2.86a8.38,8.38,0,0,1,2.34,5.72,19.76,19.76,0,0,1-1.43,6.5q-1.43,3.9-3.51,9.11a111,111,0,0,0-6.76,13l-3.9,8.85q-7,16.65-8.33,20l-2.08,7a116.37,116.37,0,0,0-3.38,12.49q-2.09,11.19-3.64,11.19-4.68,4.95-8.85,30.7-1,6.24-1,23.94a39.8,39.8,0,0,1-.39,7.42,1.81,1.81,0,0,1-2,1.43Q349,260.83,347.2,258.23Zm-38.9-17.56A155.28,155.28,0,0,0,322,229.35q7-6.76,16.91-21.07t9.89-16.65q0-1-2.6-1.82a19.86,19.86,0,0,0-5.72-.78,17.13,17.13,0,0,0-4.16.52,31.07,31.07,0,0,0-11.58,5.33,66.45,66.45,0,0,0-11.84,11.58,93.46,93.46,0,0,0-12,19.25q-4.68,10.15-4.68,15.61,0,3.12,1.82,3.12Q303,244.44,308.31,240.67Z" fill="none"/>
    </clipPath>
    <clipPath id="Lind-clip-path-5">
      <path d="M483.53,272.8a24.21,24.21,0,0,1-5.59-.65q-2.73-.65-4.81-1.3t-3.12-.91a48.19,48.19,0,0,1-6.11-4.42q-2.73-2.34-3.77-3.12a3.23,3.23,0,0,0-.52-1.82,8.39,8.39,0,0,0-.78-1q-1,0-1.69-4.16a66.86,66.86,0,0,1-.65-10.15,93.57,93.57,0,0,1,.78-12.36q.78-5.85,1.82-7.67a14.47,14.47,0,0,1,.65-3.38,15.14,15.14,0,0,0,.65-3.12,15.68,15.68,0,0,1,.26-3.25c.17-.78.52-1.17,1-1.17a2,2,0,0,0,.78-.26.83.83,0,0,0,.52-.78,16.52,16.52,0,0,1,1-4.42q1-3.12,1.56-4.94a96.11,96.11,0,0,0,4.16-10.67,76.28,76.28,0,0,1,2.86-8.07q.78-3.9,4.68-14l2.34-6.5q3.64-6.24,3.64-9.37,1.82-5.2,15-30.7t17-30.7q3.9-4.94,6-6.37A8.09,8.09,0,0,1,525.94,86q2.08.78,5.46,4.29T535,95.89q0,1-4.55,7.67a93.27,93.27,0,0,1-8.72,11.06,6.37,6.37,0,0,0-.78,1.56,4.21,4.21,0,0,0-.26,1q-1.82,3.12-6.63,12.1t-5.33,12.1q-3.12,3.65-12.23,25.5-4.16,9.63-4.68,10.15a8.36,8.36,0,0,1-1.3,4.94q-.52,1.31-2.73,8.07a108.57,108.57,0,0,1-5.33,13.27,101.62,101.62,0,0,1-4.29,13.4q-2.48,6.12-4,7.67a13.37,13.37,0,0,0-.91,2.6c-.09.52.22.7.91.52.52-.52.87-.78,1-.78s.26.17.26.52a7.18,7.18,0,0,1-1.3,2.86,36.17,36.17,0,0,0-2.6,13q.52,8.59,2.34,11.45t7.81,2.86q12.23,0,29.66-4.16a45.66,45.66,0,0,1,14.31-2.6q7,0,9.63,3.38a17.08,17.08,0,0,1,1.69,3.25,9.65,9.65,0,0,1,.39,3q-1.56,2.34-18.73,6.76t-26,4.94A76.59,76.59,0,0,1,483.53,272.8Z" fill="none"/>
    </clipPath>
    <clipPath id="Lind-clip-path-6">
      <path d="M656.28,269.94a9,9,0,0,1-6.63-2.73q-2.73-2.73-2.73-9.24,0-9.37,6-25l2.86-8.59q13-38,16.91-43.71a16.77,16.77,0,0,0,1.3-6.5,10,10,0,0,1,1.3-3.9l2.08-4.16q3.12-5.72,3.12-8.59,0-1,3.12-10.54a67.57,67.57,0,0,1,6.24-14.44q.52-1,3.38-7.8,3.12-7,3.12-8.59,0-.52-6.24-.52-8.59,0-21.46.78t-16.78,1.82q-5.46,1.3-6.5,1a7.64,7.64,0,0,1-2.47-3,10,10,0,0,1-1.43-5.07,4.77,4.77,0,0,1,2.6-4.68,28.57,28.57,0,0,1,7.68-3.12,55.94,55.94,0,0,1,9.24-1,94.39,94.39,0,0,0,10.93-.78,76.54,76.54,0,0,0,10.28-.65q4.81-.65,5.59-.65a22.23,22.23,0,0,0,5.2-.78,69.15,69.15,0,0,1,9.89-1.3,34.76,34.76,0,0,0,7.28-.78q4.16-.52,5.46-.52h16.13a58.21,58.21,0,0,0,9.37-1q6-1,10.67-2.08A76.75,76.75,0,0,1,765.29,92q10.93,0,14,8.33.52,3.65-3.12,5.85t-12.36,3.38q-8.72,1.17-25.11,2.21-2.34.26-9,.78t-8.59,1.3q-2,.78-2,2.34a4.24,4.24,0,0,1-1.43,3,16.53,16.53,0,0,0-2,2.21q-2.09.78-7.41,14.83t-5.33,16.91l-1,2.08a6,6,0,0,0-.78,2.34,114.86,114.86,0,0,1-5.72,12q-7.81,20.55-9.89,25.5l-2.86,7q-5.73,19-8.33,25.76a9.92,9.92,0,0,1-2,2.34,3.64,3.64,0,0,0-1.17,2.86q0,1.31-5.59,18.86t-6.37,17.82A14,14,0,0,1,656.28,269.94Z" fill="none"/>
    </clipPath>
    <clipPath id="Lind-clip-path-7">
      <path d="M726.13,250.82c-1.13-1.13-1.69-1.86-1.69-2.21a6.74,6.74,0,0,0-1.3-4.42,3.52,3.52,0,0,1-.52-2.34q0-4.16,4-14.18a195.45,195.45,0,0,1,10.54-21.72,34.22,34.22,0,0,0,4-5.46q2.47-3.9,3.25-4.42a3,3,0,0,1,.78-2,2.34,2.34,0,0,1,1.82-.91v-1.56q0-2.34,8.59-11.32t14-12.36A23.36,23.36,0,0,1,783,163.53a12.86,12.86,0,0,1,8.07,2.6q1.3,1.56,12,11.19l9.63,8.59-4.68,13a40.71,40.71,0,0,0-2.34,12.75,35.15,35.15,0,0,0,5.72,19,13.86,13.86,0,0,0,5.2,5.46,18.46,18.46,0,0,0,7.8,3.12q5.72,1,5.72,5.72,0,5.21-4.68,6.24a13.81,13.81,0,0,1-3.12.26q-15.35,0-26.54-21.59a35.89,35.89,0,0,1-2.73-5.72,32.9,32.9,0,0,1-2-5.72q-1.56,2.08-3.9,4.94t-4.42,4.94Q754.36,256.67,738,256.67a17.28,17.28,0,0,1-9.37-2.6A13,13,0,0,0,726.13,250.82Zm14.57-10.54a26.13,26.13,0,0,0,6.76-2.6,47.94,47.94,0,0,0,8.2-5.46Q778,213,787.92,198.65l5.72-9.37a24.25,24.25,0,0,0-5.46-7.93q-2.87-2.47-5.2-2.47-5.46,0-17.17,13.66a169.46,169.46,0,0,0-21.33,32.13,92.85,92.85,0,0,0-4.16,9L738,239.5Q738,240.8,740.7,240.28Z" fill="none"/>
    </clipPath>
    <clipPath id="Lind-clip-path-8">
      <path d="M847.11,250.43a23.82,23.82,0,0,1-3.51-9.89q1-9.88,1.56-14,2.08-9.62,6.63-26.41t5.59-18.86a2.56,2.56,0,0,1,2.34-1.3,6.92,6.92,0,0,1,3.38,1,14.9,14.9,0,0,1,3.12,2.34,10.8,10.8,0,0,1,2.08,6.5q0,5.46-5.2,22.89-3.65,13-4.68,18.47a51,51,0,0,0-.78,11.71q-.26,1.82-.91,6.11a24.1,24.1,0,0,1-1.17,5.33,1.67,1.67,0,0,1-1.56,1Q850.1,255.37,847.11,250.43Zm34.73-98.08a7.59,7.59,0,0,1-3.38-1.56q-2.6-.26-6.89-4.55t-4.29-5.59a26,26,0,0,1,1.56-11.19q2.08-6,7.54-6.24a7.72,7.72,0,0,1,2.08.39q1.3.39,4.42,1.69l2.21,4.42a39.46,39.46,0,0,1,2.6,6.5,20.64,20.64,0,0,1,.91,5.72,10.82,10.82,0,0,1-5.2,9.63A2.25,2.25,0,0,1,881.84,152.34Z" fill="none"/>
    </clipPath>
    <clipPath id="Lind-clip-path-9">
      <path d="M894.33,263.69q-4.16,0-6.5-4.16t-2.34-11.45A71.35,71.35,0,0,1,887,234.3q2.86-7.54,2.86-10.93.78-4.94,5.33-17.82t5.85-15.48c.69,0,1.3-.56,1.82-1.69a8.88,8.88,0,0,0,.78-3.77,13.82,13.82,0,0,1,.91-4.81,9.83,9.83,0,0,1,2-3.51,11.73,11.73,0,0,1,.65-2.86,11.91,11.91,0,0,0,.65-2.86,6,6,0,0,1,.65-2,5.94,5.94,0,0,0,.65-2.21q4.16-8.06,14.57-36.29t10.41-31.35q0-4.16,4.16-4.16a5.7,5.7,0,0,1,4.16-1.3l4.16,4.16a8.56,8.56,0,0,1,2.34,3.77,24.52,24.52,0,0,1,.52,5.85,19.87,19.87,0,0,1-1,6.76q-1,2.87-5.2,11.71-.78,1.82-2.08,4.29T938.3,136q-.52,1.3-4.16,9.37-2.6,5.21-2.6,6a11.43,11.43,0,0,1-1,3.25,50.5,50.5,0,0,0-1.82,5.07q-2.09,4.16-6.63,14.7t-4.55,11.58a5.7,5.7,0,0,1-1.3,4.16c-.52,0-.87.39-1,1.17a8.82,8.82,0,0,0-.26,1.69q0,2.6-4.16,13.79l-2.34,7.54q-4.95,16.91-6.89,24.72a56.24,56.24,0,0,0-2,13.27,52.58,52.58,0,0,1-.39,8.33,4.26,4.26,0,0,1-2.21,2.86A9.24,9.24,0,0,1,894.33,263.69Z" fill="none"/>
    </clipPath>
    <clipPath id="Lind-clip-path-10">
      <path d="M954.29,261.48a27.94,27.94,0,0,1-5.59-3q-11.19-9.1-10.93-18a8,8,0,0,0,.26-2.34,9.46,9.46,0,0,0-.26-2.47,5.7,5.7,0,0,1-.26-1.17,3.46,3.46,0,0,1-1.17-1.17,1,1,0,0,1,.26-.91,6.75,6.75,0,0,0,.65-1c.69-.17,1-.52,1-1a4.21,4.21,0,0,0-.52-1.82q-.78-2.08.91-9.5a76.67,76.67,0,0,1,4.55-13.92,116.5,116.5,0,0,1,6.63-12.75,75.17,75.17,0,0,1,18.47-21.59,39.12,39.12,0,0,1,10.54-5.46q5.46-2.34,7.54-2.34,2.6,0,6.5,3.12a21.89,21.89,0,0,1,9.5,5.07q3.25,3.26,5.07,10a44.48,44.48,0,0,1,1.56,12.23q0,14.57-9.11,32a69.88,69.88,0,0,1-9.11,14.44,126.15,126.15,0,0,1-12.23,11.84,77.52,77.52,0,0,1-9.5,6.76,30,30,0,0,1-9.76,3.38A12.91,12.91,0,0,1,954.29,261.48Zm34.21-45.27a77.88,77.88,0,0,0,4.68-16.52,21.21,21.21,0,0,0,.26-4.16,45.65,45.65,0,0,0-1-9.89q-1-4.68-2.6-4.94a11.17,11.17,0,0,0-3.9-.78q-6,0-12.75,7a70.86,70.86,0,0,0-10.8,17.56,213.29,213.29,0,0,0-9,25.11,36.16,36.16,0,0,0-1.3,8.33,13.2,13.2,0,0,0,1.82,7.41,5.88,5.88,0,0,0,5.2,2.73q4.16,0,9.63-4.29t11.45-12.88A91.27,91.27,0,0,0,988.51,216.21Z" fill="none"/>
    </clipPath>
    <clipPath id="Lind-clip-path-11">
      <path d="M1035.86,254.33a11.2,11.2,0,0,1-3.64-1.82,8.22,8.22,0,0,1-2.6-6q0-5.72,5.72-13.79,1.56-3.12,7.8-21.59l5.2-14.31q.52-4.42-.52-6.37t-4.42-2.21h-1.56c-1.56,0-2.6-.3-3.12-.91s-.78-2.21-.78-4.81a8.27,8.27,0,0,1,1.56-4.68,21.35,21.35,0,0,1,4.42-3.64,19,19,0,0,1,8.59-2.08q4.16,0,6.24,1.82,1.56,1,2.21,4.55a50.1,50.1,0,0,1,.78,7.29,46.4,46.4,0,0,0,.39,5.33q1.3-1.3,6.37-5.33a102.89,102.89,0,0,0,8.72-7.67,78.44,78.44,0,0,1,10.15-6q5.72-2.86,8.06-2.86a12.75,12.75,0,0,1,5.72,1.43,8.28,8.28,0,0,1,3.9,3.51,15.7,15.7,0,0,1,2.34,7.54,11.78,11.78,0,0,1-2.86,7.29,15.43,15.43,0,0,1-6,4.42,15.74,15.74,0,0,1-5.2,1.56q-1.56,0-3.9-2.34t-2.6-3.9q0-1-6.63,4a106.21,106.21,0,0,0-10.28,8.72,75.3,75.3,0,0,0-8.46,13q-4.29,8.07-12.62,24.46-.78,1.82-3.64,8.85a28.72,28.72,0,0,1-2.34,5.85,3,3,0,0,1-2.6,1.69A14.11,14.11,0,0,1,1035.86,254.33Z" fill="none"/>
    </clipPath>
  </defs>
  <title>Lind_name</title>
  <g id="Lind_name">
    <g clip-path="url(#Lind-clip-path-1)">
      <path id="Lind_l" d="M98.5,71.5c-49.52,60.35-85,121.85-76,187,25.59,11.94,53.61,7.15,83-7" fill="none" stroke="#000" stroke-width="31"/>
    </g>
    <g clip-path="url(#Lind-clip-path-2)">
      <line id="Lind_i1" x1="149.5" y1="175.5" x2="122.5" y2="260.5" fill="none" stroke="#000" stroke-width="22"/>
      <line id="Lind_i2" x1="170.5" y1="119.5" x2="147.5" y2="152.5" fill="none" stroke="#000" stroke-width="25"/>
    </g>
    <g clip-path="url(#Lind-clip-path-3)">
      <path id="Lind_n" d="M207.5,161.5l-33,93c24.86-31.63,50.52-48,83-69-10.86,29.71-7.27,48.2,9,75" fill="none" stroke="#000" stroke-width="25"/>
    </g>
    <g clip-path="url(#Lind-clip-path-4)">
      <path id="Lind_d" d="M359.5,185.5c-25.16-11.69-53.8,11.55-73,59,3,6.38,7.88,9.66,14,11,46.5-43.3,77.28-99.41,101-159-33.67,62-57.63,121-53,171" fill="none" stroke="#000" stroke-width="25"/>
    </g>
    <g clip-path="url(#Lind-clip-path-5)">
      <path id="Lind_l2" d="M534.5,81.5s-100,171-65,181,82-10,82-10" fill="none" stroke="#000" stroke-width="27"/>
    </g>
    <g clip-path="url(#Lind-clip-path-6)">
      <line id="Lind_t1" x1="631.5" y1="113.5" x2="788.5" y2="97.5" fill="none" stroke="#000" stroke-width="21"/>
      <line id="Lind_t2" x1="649.5" y1="271.5" x2="715.5" y2="91.5" fill="none" stroke="#000" stroke-width="27"/>
    </g>
    <g clip-path="url(#Lind-clip-path-7)">
      <path id="Lind_a" d="M802.5,183.5l-23-14c-20.81,19.49-38.6,42.29-51,71l14,10c29.46-15.88,49.44-42,63-75-13.58,37.82-8.38,65.14,28,75" fill="none" stroke="#000" stroke-width="25"/>
    </g>
    <g clip-path="url(#Lind-clip-path-8)">
      <line id="Lind_i4" x1="867.5" y1="116.5" x2="888.5" y2="157.5" fill="none" stroke="#000" stroke-width="26"/>
      <line id="Lind_i3" x1="865.5" y1="173.5" x2="846.5" y2="259.5" fill="none" stroke="#000" stroke-width="20"/>
    </g>
    <g clip-path="url(#Lind-clip-path-9)">
      <path id="Lind_l3" data-name="Lind_l3" d="M947,88c-26.81,58-44.6,118.24-56,180" fill="none" stroke="#000" stroke-width="27"/>
    </g>
    <g clip-path="url(#Lind-clip-path-10)">
      <path id="Lind_o" d="M1002.5,184.5c-4.14-8.65-12.39-12.6-22-15-16.36,11.5-29.28,34.56-40,65,7.3,15.45,16.12,25,29,19C985.06,228.54,1003.37,202.39,1002.5,184.5Z" fill="none" stroke="#000" stroke-width="25"/>
    </g>
    <g clip-path="url(#Lind-clip-path-11)">
      <path id="Lind_r" d="M1037,181.5h25c11.58,11.42-11.55,49.41-25,80,27.19-53.25,52-88.56,71-80" fill="none" stroke="#000" stroke-width="37"/>
    </g>
  </g>
</svg>
