<svg xmlns="http://www.w3.org/2000/svg" xmlns:xlink="http://www.w3.org/1999/xlink" width="1368" height="385" viewBox="0 0 1368 385">
  <defs>
    <clipPath id="clip-path">
      <path d="M152.66,263q-8.34-7.67-10.67-16.26a131.55,131.55,0,0,1-1-17.43q0-6.24.78-7,.78-.53.78-3.12c-.18-1,.43-3.91,1.82-8.59q1.81-4.68,1-8.07l.91-1.82a15.1,15.1,0,0,1,1.69-2.6,4.41,4.41,0,0,0,1.43-2.73,4,4,0,0,0-.13-2v-.26a8.19,8.19,0,0,1,.65-2.73,11.47,11.47,0,0,1,1.44-2.73,8.12,8.12,0,0,0,1.43-2.09l.91-1.82q.26-1.81,4-11.57t5.07-11.84v-.52a33,33,0,0,1,2.87-5.47c.34-2.42,1.56-5.81,3.64-10.14a264.34,264.34,0,0,1,16.78-30.57q10.78-17.31,17-23.29a27.89,27.89,0,0,1,4.29-4,5.76,5.76,0,0,1,3.25-1.17c1.57,0,3.56,1.21,6,3.64a11.26,11.26,0,0,1,3.12,8.33c0,1.91-.35,2.86-1,2.86q-3.39,2.34-13.53,16.91a287.35,287.35,0,0,0-16.39,26q-3.39,7.28-5.85,12.22l-3.26,6.51-1,2.34q-6.24,13.27-11.7,28.62a7.8,7.8,0,0,0-1.7,3.25,13.09,13.09,0,0,0-.39,2.21c-.35-.17-.65.31-.91,1.43a19.74,19.74,0,0,1-.91,3c-1.21,1-1.82,3.56-1.82,7.55a85.54,85.54,0,0,0-4.68,17.69q-1.83,10.68-1.3,15.87,1,8.59,14.31,13.79c4,1.56,6.93,2.34,8.84,2.34a21.73,21.73,0,0,0,5.6-.26c2.51-.34,5.42-.78,8.71-1.3h-.26q1.31-.25,14.31-3.12a46.65,46.65,0,0,0,10.41-2.34q7.8-2.34,10.15-2.34a3,3,0,0,1,2.08.52,4.72,4.72,0,0,1,2.08,3.9l-.52,2.34q-.78,2.08-8.33,6.24a73.37,73.37,0,0,1-14.57,6.25,58.94,58.94,0,0,1-12.62,3.64,77.48,77.48,0,0,1-13.91,1.3q-7,0-10.41-1.3A42.64,42.64,0,0,1,152.66,263Z" fill="none"/>
    </clipPath>
    <clipPath id="clip-path-2">
      <path d="M253.34,244.7a13.79,13.79,0,0,1,1.3-6.24,11.48,11.48,0,0,1,.52-3.12,11.51,11.51,0,0,0,.52-2.34q-.26-1.58,2.08-8.59,4.68-10.41,12.49-36.68a2.86,2.86,0,0,1,1-2.22,5.84,5.84,0,0,1,3.12-1.17,14.9,14.9,0,0,1,2.86-.52A3.76,3.76,0,0,1,280,185a31.4,31.4,0,0,1,3.25,4.3,6.36,6.36,0,0,1,1.56,4.68c0,3.3-1.13,7.28-3.38,12A60.62,60.62,0,0,0,277,219a114,114,0,0,0-4.94,13q-.52,1.58-1.56,6.25a23.82,23.82,0,0,1-2.86,7.54,56.77,56.77,0,0,1-2.86,10.15c-.87,1.91-1.82,2.86-2.87,2.86q-1.82,0-4.94-3.64Q253.34,251.47,253.34,244.7ZM279.1,143.24q-1.31-4.43,0-4.43c1.38-.17,3-1.69,4.81-4.55s2.64-5.24,2.47-7.15a2.94,2.94,0,0,1,.78-2A3.54,3.54,0,0,1,289,124a7.22,7.22,0,0,1,3.64-1.3q4.42,0,8.07,6.25a14.59,14.59,0,0,1,1.56,6,10.24,10.24,0,0,1-1.3,4.81,36.76,36.76,0,0,1-4.68,6.38q-4.42,6-8.33,6c-1.73,0-3.64-.86-5.72-2.6Q280.39,147.67,279.1,143.24Z" fill="none"/>
    </clipPath>
    <clipPath id="clip-path-3">
      <path d="M386.28,249.25q-3.37-2.2-5.72-7.41a61.28,61.28,0,0,1-2.34-16.65,13.39,13.39,0,0,1,.78-5.46c.69-.69,1-2.22.91-4.56s-.13-4-.13-5.07c-.17-4-1.39-6-3.64-6a10,10,0,0,0-5.21,1.82q-14.56,9.1-24.45,15.61a166.33,166.33,0,0,0-19,14.57A48.84,48.84,0,0,0,322,243.4q-1.81,3.12-2.6,4.29a2.4,2.4,0,0,1-2.08,1.18,8.93,8.93,0,0,1-2.08.52,5.41,5.41,0,0,1-3.12-1.44c-1.22-.95-2-1.6-2.35-1.95q-1-1-3.38-3.51t-2.6-3.51a60.43,60.43,0,0,1,1.69-9.63q1.69-7.54,2.73-9.62c.52,0,1.3-1.09,2.35-3.26a35.57,35.57,0,0,1,2.86-5.07q.78-3.9,6.76-18A60.75,60.75,0,0,0,325.27,183a43.39,43.39,0,0,0,2-10.4v-.52a2.12,2.12,0,0,1,.78-1.7,2.46,2.46,0,0,1,1.56-.65,6,6,0,0,1,3.38-1.3c2.25,0,4.51,1.39,6.76,4.17a16.49,16.49,0,0,1,3.91,10.4q0,6.77-8.59,21.34c-.52,1.21-1.26,3-2.21,5.2a14.82,14.82,0,0,0-1.43,4.68L346,204.38q2.07-2.34,11.19-8.33t12.74-6.76q6.25-2.86,7.81-2.87,3.12,0,8.45,4.69t6.38,7.8a12.08,12.08,0,0,0,.52,4.17,51.15,51.15,0,0,1,1.3,12.22,50.35,50.35,0,0,1-.65,8.46c-.44,2.52-1,4-1.69,4.29a1.83,1.83,0,0,0,.26.78,1,1,0,0,0,1,.52v1.3q-2.08,0-.52,4.43a16.11,16.11,0,0,0,4.16,6.76q2.6,2.61,2.6,5.2c0,2.09-1.56,3.56-4.68,4.43A15.38,15.38,0,0,1,386.28,249.25Z" fill="none"/>
    </clipPath>
    <clipPath id="clip-path-4">
      <path d="M480.2,258.23a35.23,35.23,0,0,1-4.29-6.37,13.58,13.58,0,0,1-1.17-5.86,34.94,34.94,0,0,1,.26-4.68l1-12c-.35-.34-1-.26-2,.26a14.22,14.22,0,0,0-2.6,1.82c-.78.7-1.52,1.3-2.21,1.82l-4.43,3.65q-11.44,13-19.9,18.47t-15.74,5.46l-2.86-.26a9.7,9.7,0,0,1-8.07-5.33q-2.59-4.81-2.6-12.36a45.43,45.43,0,0,1,.26-5.72,72.73,72.73,0,0,1,3.91-16.91,83.37,83.37,0,0,1,8.84-16.91,57.8,57.8,0,0,1,12.88-15.09,51.91,51.91,0,0,1,16.78-10.15,42.41,42.41,0,0,1,14.57-2.86,31.19,31.19,0,0,1,8.85,1.3,12,12,0,0,0,4.94,1.56c1.39,0,2.43-.87,3.12-2.6a25,25,0,0,0,2.34-5.73,62.78,62.78,0,0,1,3.38-8.06l5.73-16.91L508,128.67,515.59,111q5.2-10.41,8.84-10.41,2.09,0,5,2.86a8.38,8.38,0,0,1,2.34,5.72,19.79,19.79,0,0,1-1.43,6.51q-1.44,3.9-3.52,9.1a112.29,112.29,0,0,0-6.76,13l-3.9,8.85q-7,16.65-8.33,20l-2.08,7a116.1,116.1,0,0,0-3.38,12.48q-2.08,11.19-3.64,11.19-4.69,5-8.85,30.7-1,6.24-1,23.94a39.77,39.77,0,0,1-.39,7.41,1.81,1.81,0,0,1-1.95,1.43C483.5,260.83,481.42,260,480.2,258.23Zm-38.89-17.56A155.29,155.29,0,0,0,455,229.35q7-6.76,16.91-21.07t9.89-16.65c0-.69-.87-1.3-2.61-1.82a19.83,19.83,0,0,0-5.72-.78,16.87,16.87,0,0,0-4.16.52,31,31,0,0,0-11.58,5.33,66.37,66.37,0,0,0-11.84,11.58,93.75,93.75,0,0,0-12,19.25q-4.68,10.14-4.68,15.61c0,2.08.61,3.12,1.82,3.12Q436,244.44,441.31,240.67Z" fill="none"/>
    </clipPath>
    <clipPath id="clip-path-5">
      <path d="M616.53,272.8a24.36,24.36,0,0,1-5.6-.65q-2.73-.66-4.81-1.3c-1.39-.44-2.43-.74-3.12-.91a48.81,48.81,0,0,1-6.12-4.42c-1.82-1.56-3.08-2.61-3.77-3.13a3.19,3.19,0,0,0-.52-1.82,9,9,0,0,0-.78-1c-.69,0-1.26-1.38-1.69-4.16a67.57,67.57,0,0,1-.65-10.15,93.79,93.79,0,0,1,.78-12.36c.52-3.9,1.13-6.45,1.82-7.67a14.72,14.72,0,0,1,.65-3.38,15.16,15.16,0,0,0,.65-3.12,16.09,16.09,0,0,1,.26-3.26c.17-.78.52-1.17,1-1.17a1.92,1.92,0,0,0,.78-.26.82.82,0,0,0,.52-.78,16.47,16.47,0,0,1,1-4.42q1-3.12,1.56-4.94a97.09,97.09,0,0,0,4.16-10.67,77.83,77.83,0,0,1,2.86-8.07q.78-3.9,4.68-14.05l2.35-6.5q3.63-6.24,3.64-9.37,1.82-5.19,15-30.7t17-30.7a34.18,34.18,0,0,1,6-6.37A8.12,8.12,0,0,1,658.94,86q2.07.78,5.46,4.29c2.25,2.34,3.47,4.21,3.64,5.6q0,1-4.55,7.67a94.38,94.38,0,0,1-8.72,11.06,6.32,6.32,0,0,0-.78,1.56,4.46,4.46,0,0,0-.26,1q-1.82,3.12-6.63,12.1t-5.34,12.1q-3.12,3.65-12.22,25.49-4.17,9.63-4.69,10.15a8.32,8.32,0,0,1-1.3,4.94q-.52,1.31-2.73,8.07a110,110,0,0,1-5.33,13.27,101.77,101.77,0,0,1-4.3,13.39q-2.48,6.12-4,7.68a13.83,13.83,0,0,0-.91,2.6c-.09.52.22.7.91.52.52-.52.87-.78,1-.78s.26.18.26.52a7.08,7.08,0,0,1-1.3,2.86,36.34,36.34,0,0,0-2.6,13q.53,8.6,2.34,11.45t7.81,2.86q12.22,0,29.66-4.16a45.66,45.66,0,0,1,14.3-2.6q7,0,9.63,3.38a16.78,16.78,0,0,1,1.69,3.25,9.64,9.64,0,0,1,.39,3q-1.56,2.34-18.73,6.77t-26,4.94A76.4,76.4,0,0,1,616.53,272.8Z" fill="none"/>
    </clipPath>
    <clipPath id="clip-path-6">
      <path d="M789.28,269.94a9,9,0,0,1-6.64-2.73q-2.73-2.73-2.73-9.24,0-9.36,6-25l2.87-8.59q13-38,16.91-43.71a16.87,16.87,0,0,0,1.3-6.5,10,10,0,0,1,1.3-3.91l2.08-4.16q3.12-5.72,3.12-8.58,0-1.05,3.12-10.54a67.6,67.6,0,0,1,6.25-14.44q.51-1,3.38-7.81,3.12-7,3.12-8.58,0-.53-6.24-.52-8.6,0-21.47.78t-16.78,1.82q-5.46,1.3-6.5,1a7.55,7.55,0,0,1-2.47-3,10,10,0,0,1-1.43-5.07,4.77,4.77,0,0,1,2.6-4.69,28.53,28.53,0,0,1,7.67-3.12,55.49,55.49,0,0,1,9.24-1,94.53,94.53,0,0,0,10.93-.78,77.38,77.38,0,0,0,10.27-.65q4.82-.64,5.6-.65a22.26,22.26,0,0,0,5.2-.78,68.44,68.44,0,0,1,9.89-1.3,34.73,34.73,0,0,0,7.28-.78c2.77-.35,4.59-.52,5.46-.52h16.13a58.73,58.73,0,0,0,9.37-1q6-1,10.67-2.09A76.82,76.82,0,0,1,898.29,92q10.92,0,14.05,8.33.51,3.64-3.13,5.85t-12.35,3.38q-8.73,1.18-25.11,2.22-2.34.26-9,.78t-8.58,1.3q-2,.78-2,2.34a4.23,4.23,0,0,1-1.43,3,17.11,17.11,0,0,0-2,2.21q-2.08.78-7.41,14.83t-5.33,16.91l-1,2.08a6,6,0,0,0-.79,2.35,113.8,113.8,0,0,1-5.72,12q-7.8,20.57-9.89,25.5l-2.86,7q-5.71,19-8.32,25.75a9.88,9.88,0,0,1-2,2.34,3.65,3.65,0,0,0-1.17,2.87q0,1.31-5.6,18.86t-6.37,17.82A14.14,14.14,0,0,1,789.28,269.94Z" fill="none"/>
    </clipPath>
    <clipPath id="clip-path-7">
      <path d="M859.13,250.82c-1.13-1.13-1.69-1.87-1.69-2.22a6.77,6.77,0,0,0-1.3-4.42,3.49,3.49,0,0,1-.52-2.34q0-4.16,4-14.18a195.64,195.64,0,0,1,10.54-21.72,33.92,33.92,0,0,0,4-5.47q2.47-3.9,3.25-4.42a3,3,0,0,1,.78-2,2.33,2.33,0,0,1,1.82-.91v-1.56q0-2.34,8.59-11.32T902.71,168A23.33,23.33,0,0,1,916,163.53a12.84,12.84,0,0,1,8.06,2.6q1.31,1.56,12,11.19l9.63,8.58-4.69,13a40.8,40.8,0,0,0-2.34,12.75,35.14,35.14,0,0,0,5.73,19,13.88,13.88,0,0,0,5.2,5.47,18.56,18.56,0,0,0,7.8,3.12q5.73,1,5.73,5.72c0,3.47-1.56,5.56-4.68,6.25a14.18,14.18,0,0,1-3.13.26q-15.35,0-26.53-21.6a35.33,35.33,0,0,1-2.74-5.72,32.78,32.78,0,0,1-2-5.72c-1,1.39-2.34,3-3.9,4.94s-3,3.56-4.42,4.94Q887.35,256.68,871,256.67a17.37,17.37,0,0,1-9.37-2.6A12.88,12.88,0,0,0,859.13,250.82Zm14.57-10.54a26.29,26.29,0,0,0,6.76-2.6,48.11,48.11,0,0,0,8.2-5.47Q911,213,920.92,198.65l5.73-9.36a24.2,24.2,0,0,0-5.47-7.94c-1.91-1.64-3.64-2.47-5.2-2.47q-5.46,0-17.17,13.66a169.35,169.35,0,0,0-21.34,32.13,91.93,91.93,0,0,0-4.16,9q-1.83,4.54-2.34,5.85Q871,240.81,873.7,240.28Z" fill="none"/>
    </clipPath>
    <clipPath id="clip-path-8">
      <path d="M980.11,250.43a23.72,23.72,0,0,1-3.51-9.89q1-9.89,1.56-14,2.07-9.62,6.63-26.41t5.6-18.86a2.57,2.57,0,0,1,2.34-1.3,6.94,6.94,0,0,1,3.38,1,15.32,15.32,0,0,1,3.12,2.34,10.78,10.78,0,0,1,2.08,6.51q0,5.46-5.2,22.89-3.65,13-4.68,18.47a50.47,50.47,0,0,0-.78,11.71c-.18,1.22-.48,3.25-.92,6.12a23.52,23.52,0,0,1-1.17,5.33,1.68,1.68,0,0,1-1.56,1Q983.1,255.37,980.11,250.43Zm34.73-98.09a7.61,7.61,0,0,1-3.38-1.56c-1.74-.17-4-1.69-6.9-4.55s-4.29-4.73-4.29-5.6a26,26,0,0,1,1.56-11.18q2.08-6,7.55-6.25a7.7,7.7,0,0,1,2.08.39c.86.26,2.34.83,4.42,1.7.35.69,1.08,2.17,2.21,4.42a38.11,38.11,0,0,1,2.6,6.5,20.51,20.51,0,0,1,.92,5.73,10.82,10.82,0,0,1-5.21,9.62A2.25,2.25,0,0,1,1014.84,152.34Z" fill="none"/>
    </clipPath>
    <clipPath id="clip-path-9">
      <path d="M1027.33,263.69c-2.78,0-4.94-1.38-6.51-4.16s-2.34-6.59-2.34-11.45A71.34,71.34,0,0,1,1020,234.3q2.87-7.55,2.87-10.93.78-4.94,5.33-17.82t5.85-15.48c.69,0,1.3-.56,1.82-1.69a8.94,8.94,0,0,0,.78-3.78,13.83,13.83,0,0,1,.92-4.81,9.6,9.6,0,0,1,2-3.51,11.48,11.48,0,0,1,.65-2.86,12,12,0,0,0,.65-2.87,6,6,0,0,1,.65-2,6,6,0,0,0,.65-2.21q4.15-8.05,14.57-36.29t10.4-31.35c0-2.77,1.39-4.17,4.17-4.17a5.71,5.71,0,0,1,4.16-1.3l4.16,4.17a8.55,8.55,0,0,1,2.34,3.77,24.24,24.24,0,0,1,.52,5.85,20,20,0,0,1-1,6.77q-1,2.86-5.2,11.7c-.52,1.22-1.22,2.65-2.08,4.3s-1.82,3.69-2.86,6.11q-.52,1.31-4.17,9.37-2.6,5.2-2.6,6a11.39,11.39,0,0,1-1,3.25,51.93,51.93,0,0,0-1.82,5.08q-2.09,4.16-6.63,14.7t-4.56,11.57a5.71,5.71,0,0,1-1.3,4.17c-.52,0-.87.39-1,1.17a9.14,9.14,0,0,0-.26,1.69q0,2.61-4.16,13.79l-2.34,7.54q-5,16.92-6.9,24.72a56.2,56.2,0,0,0-2,13.27,52.62,52.62,0,0,1-.39,8.32,4.25,4.25,0,0,1-2.21,2.86A8.9,8.9,0,0,1,1027.33,263.69Z" fill="none"/>
    </clipPath>
    <clipPath id="clip-path-10">
      <path d="M1087.29,261.48a28.05,28.05,0,0,1-5.59-3q-11.19-9.11-10.93-18a8,8,0,0,0,.26-2.34,9.5,9.5,0,0,0-.26-2.47,6.23,6.23,0,0,1-.26-1.17,3.47,3.47,0,0,1-1.17-1.18,1,1,0,0,1,.26-.91,6.15,6.15,0,0,0,.65-1c.69-.17,1-.52,1-1a4.17,4.17,0,0,0-.52-1.82c-.52-1.38-.22-4.55.91-9.49a76.7,76.7,0,0,1,4.56-13.92,115.41,115.41,0,0,1,6.63-12.75,75.44,75.44,0,0,1,18.47-21.6,39.31,39.31,0,0,1,10.54-5.46q5.46-2.34,7.55-2.34,2.6,0,6.5,3.12,6.24,1.83,9.5,5.08t5.07,10a44.51,44.51,0,0,1,1.56,12.23q0,14.58-9.11,32a69.73,69.73,0,0,1-9.1,14.44,127,127,0,0,1-12.23,11.84,77.2,77.2,0,0,1-9.5,6.76,30,30,0,0,1-9.75,3.38A12.77,12.77,0,0,1,1087.29,261.48Zm34.22-45.27a78.4,78.4,0,0,0,4.68-16.52,21.26,21.26,0,0,0,.26-4.16,45.79,45.79,0,0,0-1-9.89c-.7-3.12-1.56-4.76-2.6-4.94a11.17,11.17,0,0,0-3.9-.78q-6,0-12.75,7a70.44,70.44,0,0,0-10.8,17.56,213.15,213.15,0,0,0-9,25.1,36.18,36.18,0,0,0-1.3,8.33,13.23,13.23,0,0,0,1.82,7.41,5.9,5.9,0,0,0,5.21,2.73q4.16,0,9.62-4.29t11.45-12.88A91,91,0,0,0,1121.51,216.21Z" fill="none"/>
    </clipPath>
    <clipPath id="clip-path-11">
      <path d="M1168.86,254.33a11.25,11.25,0,0,1-3.65-1.82,8.24,8.24,0,0,1-2.6-6q0-5.72,5.73-13.79,1.56-3.12,7.8-21.59l5.21-14.31c.34-3,.17-5.07-.53-6.37s-2.17-2-4.42-2.21h-1.56c-1.56,0-2.6-.3-3.12-.92s-.78-2.21-.78-4.81a8.25,8.25,0,0,1,1.56-4.68,21.5,21.5,0,0,1,4.42-3.64,19,19,0,0,1,8.59-2.08c2.77,0,4.85.6,6.24,1.82q1.56,1,2.21,4.55a50.23,50.23,0,0,1,.78,7.28,48.82,48.82,0,0,0,.39,5.34q1.3-1.31,6.38-5.34a101.75,101.75,0,0,0,8.71-7.67,78.63,78.63,0,0,1,10.15-6q5.72-2.87,8.07-2.87a12.77,12.77,0,0,1,5.72,1.43,8.25,8.25,0,0,1,3.9,3.52,15.68,15.68,0,0,1,2.34,7.54,11.78,11.78,0,0,1-2.86,7.29,15.45,15.45,0,0,1-6,4.42,15.72,15.72,0,0,1-5.21,1.56q-1.56,0-3.9-2.34t-2.6-3.9q0-1-6.63,4a106.54,106.54,0,0,0-10.28,8.71,75.87,75.87,0,0,0-8.46,13q-4.29,8.07-12.61,24.46-.78,1.82-3.65,8.84a28.85,28.85,0,0,1-2.34,5.86,3,3,0,0,1-2.6,1.69A14.18,14.18,0,0,1,1168.86,254.33Z" fill="none"/>
    </clipPath>
  </defs>
  <title>Lind_name</title>
  <g id="Lind_name">
    <g clip-path="url(#clip-path)">
      <path id="Lind_l" d="M231.5,71.5c-49.52,60.35-85,121.85-76,187,25.59,11.94,53.61,7.15,83-7" fill="none" stroke="#000" stroke-width="31"/>
    </g>
    <g clip-path="url(#clip-path-2)">
      <line id="Lind_i1" x1="282.5" y1="175.5" x2="255.5" y2="260.5" fill="none" stroke="#000" stroke-width="22"/>
      <line id="Lind_i2" x1="303.5" y1="119.5" x2="280.5" y2="152.5" fill="none" stroke="#000" stroke-width="25"/>
    </g>
    <g clip-path="url(#clip-path-3)">
      <path id="Lind_n" d="M340.5,161.5l-33,93c24.86-31.63,50.52-48,83-69-10.86,29.71-7.27,48.2,9,75" fill="none" stroke="#000" stroke-width="25"/>
    </g>
    <g clip-path="url(#clip-path-4)">
      <path id="Lind_d" d="M492.5,185.5c-25.16-11.69-53.8,11.55-73,59,3,6.38,7.88,9.66,14,11,46.5-43.3,77.28-99.41,101-159-33.67,62-57.63,121-53,171" fill="none" stroke="#000" stroke-width="25"/>
    </g>
    <g clip-path="url(#clip-path-5)">
      <path id="Lind_l2" d="M667.5,81.5s-100,171-65,181,82-10,82-10" fill="none" stroke="#000" stroke-width="27"/>
    </g>
    <g clip-path="url(#clip-path-6)">
      <line id="Lind_t1" x1="764.5" y1="113.5" x2="921.5" y2="97.5" fill="none" stroke="#000" stroke-width="21"/>
      <line id="Lind_t2" x1="782.5" y1="271.5" x2="848.5" y2="91.5" fill="none" stroke="#000" stroke-width="27"/>
    </g>
    <g clip-path="url(#clip-path-7)">
      <path id="Lind_a" d="M935.5,183.5l-23-14c-20.81,19.49-38.6,42.29-51,71l14,10c29.46-15.88,49.44-42,63-75-13.58,37.82-8.38,65.14,28,75" fill="none" stroke="#000" stroke-width="25"/>
    </g>
    <g clip-path="url(#clip-path-8)">
      <line id="Lind_i4" x1="1000.5" y1="116.5" x2="1021.5" y2="157.5" fill="none" stroke="#000" stroke-width="26"/>
      <line id="Lind_i3" x1="998.5" y1="173.5" x2="979.5" y2="259.5" fill="none" stroke="#000" stroke-width="20"/>
    </g>
    <g clip-path="url(#clip-path-9)">
      <path id="Lind_l2-2" data-name="Lind_l2" d="M1080,88c-26.81,58-44.6,118.24-56,180" fill="none" stroke="#000" stroke-width="27"/>
    </g>
    <g clip-path="url(#clip-path-10)">
      <path id="Lind_o" d="M1135.5,184.5c-4.14-8.65-12.39-12.6-22-15-16.36,11.5-29.28,34.56-40,65,7.3,15.45,16.12,25.05,29,19C1118.06,228.54,1136.37,202.39,1135.5,184.5Z" fill="none" stroke="#000" stroke-width="25"/>
    </g>
    <g clip-path="url(#clip-path-11)">
      <path id="Lind_r" d="M1170,181.5h25c11.58,11.42-11.55,49.41-25,80,27.19-53.25,52-88.56,71-80" fill="none" stroke="#000" stroke-width="37"/>
    </g>
  </g>
</svg>
