<svg xmlns="http://www.w3.org/2000/svg" xmlns:xlink="http://www.w3.org/1999/xlink" width="1368" height="385" viewBox="0 0 1368 385">
  <defs>
    <clipPath id="clip-path">
      <path d="M1221.48,260.86a29.35,29.35,0,0,1-14-3.54,31.91,31.91,0,0,1-11.06-9.74A30.47,30.47,0,0,1,1190.8,237a50.82,50.82,0,0,1-1.77-14.45q0-2.94.59-11.8.89-10.9,7.23-22.71a87.57,87.57,0,0,1,15.78-21.09q9.43-9.3,18.59-12.84c3.14-2,6-2.95,8.55-2.95a28.69,28.69,0,0,1,4.13.3c1.38.2,2.85.4,4.43.59a34.79,34.79,0,0,1,9.88,2.51,15.18,15.18,0,0,1,5.75,4.86,23.5,23.5,0,0,1,7.37,17.11q-1.17,7.08-9.14,16.23A61.92,61.92,0,0,1,1243,207.47a38.22,38.22,0,0,1-12.1,1.77q-9.15,0-14.75-3.84a14.13,14.13,0,0,0-4.13-.88c-1.77,0-3.09,1.18-4,3.54s-1.72,6.68-2.51,13a45.86,45.86,0,0,0-.29,5.9q0,15,10,16.51a52.12,52.12,0,0,0,9.73,1.48,17.21,17.21,0,0,0,8-2.36l5.6-3.25a12.43,12.43,0,0,0,3.25-2.36l2.65-2.65q.59-.59,1.77-1.92a6.73,6.73,0,0,1,2.21-1.77,5,5,0,0,1,1.92-.44,4.24,4.24,0,0,1,2.66,1.33,22.18,22.18,0,0,0,2.36,1.91c1.77,0,2.16,1.24,1.18,3.69s-3.1,5.31-6.35,8.56a60.6,60.6,0,0,1-11.06,8.7A25.88,25.88,0,0,1,1221.48,260.86Zm27.58-76.4q5.16-5.31,5.17-8.85a7.57,7.57,0,0,0-2.66-5.9,10.73,10.73,0,0,0-7.37-2.36,18,18,0,0,0-5.31.59q-4.14,1.19-9.74,6.34a85.91,85.91,0,0,0-9.73,10.47q-4.14,5.31-3.25,6.2,1.47,2.66,11.51,2.65a30.46,30.46,0,0,0,11.21-1.77A31.08,31.08,0,0,0,1249.06,184.46Z" fill="none"/>
    </clipPath>
    <clipPath id="clip-path-2">
      <path d="M1065.58,250.24a23.57,23.57,0,0,1-3.68-3,8.39,8.39,0,0,1-2.51-4.43A78.44,78.44,0,0,1,1059,232a63.08,63.08,0,0,1,3.68-20.06q3.69-10.9,13.13-31.56l9.73-20.65a27.42,27.42,0,0,1,4.13-5.9h3c1.38,0,2.9.88,4.58,2.65a16.45,16.45,0,0,1,3.68,6.2,28.88,28.88,0,0,1-1.32,8.85q-1.34,4.13-6.94,11.5a72.81,72.81,0,0,0-5.6,11.21,78.07,78.07,0,0,0-4.43,13,36.1,36.1,0,0,0-2.21,5q-1.32,3.54-3.09,7.37l-1.48,6.49,19.76-20.35q13-13,21.1-18.88t13.42-5.9q6.2,0,10,8a42.45,42.45,0,0,1,3.54,6.93,25.4,25.4,0,0,1,.88,7.82c0,1.18-.2,4.53-.59,10V232a39.25,39.25,0,0,0,7.52-2.36c2.26-1,4-1.67,5.17-2.06a45.38,45.38,0,0,1,15-3.54,26.22,26.22,0,0,1-4.42,10.91,36.16,36.16,0,0,1-9.44,9.88q-5.61,4-10.92,4-4.12,0-8.7-3.83a23.52,23.52,0,0,1-6.64-8.55,25.85,25.85,0,0,1-1.33-8q-.15-4.71-.14-13.27V204.22c0-2-.59-2.95-1.77-2.95q-1.18,0-5.61,3.54-5.9,5.31-19.17,19.18a213,213,0,0,1-22,20.5q-9.29,7.23-12.83,7.22A7.21,7.21,0,0,1,1065.58,250.24Z" fill="none"/>
    </clipPath>
    <clipPath id="clip-path-3">
      <path d="M940.37,251.71c-4.13-3-6.6-6.19-7.38-9.73a17.45,17.45,0,0,1-.29-3.84q0-10.9,8.4-28.17a159,159,0,0,1,20.5-31.85q12.1-14.61,22.13-18.44c4.13-2.16,6.78-3.25,8-3.25s3.84,1.09,8,3.25a20.94,20.94,0,0,1,6.19,2.65,27.86,27.86,0,0,1,5.31,5.9,65,65,0,0,1,5.61,18.88,37.5,37.5,0,0,1,1.77,8.85,5.65,5.65,0,0,1-1.77,4.13c-.2.2-.55.59-1,1.18a2.55,2.55,0,0,0-.73,1.33c0,.29.19.44.59.44a6.53,6.53,0,0,1-.3,1.33,17.83,17.83,0,0,1-1.18,2.8q-3.54,11.22-3.54,19.17a28.79,28.79,0,0,0,.59,5.61q3,7.68,10,7.67,5.89,0,11.21-5.31c3.14-2.16,5.46-3.69,6.93-4.57s2.22-.64,2.22.73a7.79,7.79,0,0,0,1.18.89,3.12,3.12,0,0,0,1.77.59c1.37,0,2.06.88,2.06,2.65a11.26,11.26,0,0,1-2.06,5.9,44.39,44.39,0,0,0-3.25,3.54,4.33,4.33,0,0,0-1.18,2.36l-4.42,4.13a26,26,0,0,1-13.28,3.25q-8,0-12.68-3.25a40,40,0,0,1-13-18.58L995.23,229l-8.55,5.6a84.67,84.67,0,0,1-6.79,6.05q-3.84,3.1-5,4.28c-1.58,2-3,2.95-4.13,2.95h-3q0,2.07-5.75,4.57A25.9,25.9,0,0,1,951.87,255Q946.56,256.15,940.37,251.71Zm25.07-22q13.27-9.3,16.81-13.72l8.56-8.85a42.63,42.63,0,0,0,7.52-12.09,32.79,32.79,0,0,0,2.8-12.39q0-5-1.47-7.08-1.18-3.54-3.54-3.54-1.18,0-6.79,2.06-5.61,3.54-15.78,16.23a226.76,226.76,0,0,0-18.14,26.1q-8,13.42-8,19.62a3.12,3.12,0,0,0,.59,1.77,7.93,7.93,0,0,0,.88,1.18Q952.16,239,965.44,229.74Z" fill="none"/>
    </clipPath>
    <clipPath id="clip-path-4">
      <path d="M759,247.88c0-1.57-.49-2.36-1.48-2.36q-1.77-1.77,6.79-20.21T779,197.14a5.35,5.35,0,0,0,1.77-2.51c.39-1.07.39-1.62,0-1.62.39-.59,1-1.57,1.77-2.95a27.5,27.5,0,0,1,2.36-3.54q5-9.74,4.13-15.63a2.64,2.64,0,0,0-2.51-.89,4.07,4.07,0,0,0-1.62.59,25.21,25.21,0,0,1-3.1,1,15.81,15.81,0,0,0-4.28,1.91Q770.75,178,769,178a3.84,3.84,0,0,1-3.1-1.77,23.82,23.82,0,0,1-2.8-5.9,14.1,14.1,0,0,1-.89-3.84q0-2.06,2.36-4.13a13,13,0,0,1,4.28-2.8,23,23,0,0,0,3.39-1.62q6.19-3.54,8.85-4.13a33.9,33.9,0,0,1,8.56-1.48q8.85,0,12.39,8.26a17.62,17.62,0,0,1,4.13,11.51q0,5.61-4.13,14.45L799.07,191a7.2,7.2,0,0,0-.89,2.36c0,.39.1.59.3.59.78,0,1.67-.69,2.65-2.07q1.47-1.47,3.84-3.69c1.57-1.47,2.65-2.21,3.24-2.21a1.85,1.85,0,0,0,.89-.44c.39-.3.59-1,.59-2.21l2.95-2.66q1.17,0,7.08-5l5.6-4.43a10.38,10.38,0,0,1,5.9-2.36,9.25,9.25,0,0,1,2.66-.29q5.6,0,9.14,6.05t3.54,15.48L840.37,206,851,193a60.27,60.27,0,0,1,7.08-7.08,3.38,3.38,0,0,1,1.63-2.21,4.55,4.55,0,0,1,1.32-.44,1.4,1.4,0,0,0,.74-.3,1,1,0,0,0,.44-.88c.79-.59,1.82-1.33,3.1-2.22a9.94,9.94,0,0,0,2.51-2.21,14.46,14.46,0,0,1,5.9-1.18q6.19,0,10.32,8a19.6,19.6,0,0,1,2.22,5.75,55.67,55.67,0,0,1,.44,8.41q-1.18,6.48-2.07,13.57c0,.78-.19,2.75-.59,5.9q-1.47,3.24-1.47,10a19.4,19.4,0,0,0,.44,5.3c.3.79,1,1.18,2.21,1.18a54.83,54.83,0,0,0,11.66-4.27q7.21-3.39,10.47-6.64,4.42-4.42,8-4.42,3.24,0,4.13,3.54.89,1.77-4.57,9.44t-7.52,7.66c-.4,0-1.14.59-2.21,1.77a16.37,16.37,0,0,1-2.51,2.36q-5,5.61-8.26,5.61a9.22,9.22,0,0,0-3.1.74,9.65,9.65,0,0,1-3.39.73,8.53,8.53,0,0,1-3,.3,17,17,0,0,1-8.56-2.36A10.85,10.85,0,0,1,871,242q-2.35-5.89-2.36-16.52,0-2.66.59-8.55l1.48-9.15c.39-3.73.78-6,1.18-6.78v-2.66c0-3.34-.3-5-.89-5q-2.35,0-15.63,15.19a241.07,241.07,0,0,0-20.35,26.1,45.82,45.82,0,0,0-4.58,7.82q-2.51,5.18-3.09,5.46a3.68,3.68,0,0,1-2.66,1.18,6.09,6.09,0,0,1-3.83-1.77,15.86,15.86,0,0,1-3.54-4.43,13.22,13.22,0,0,1-1.18-4.42,36.74,36.74,0,0,1,1.77-8.11q1.77-6,5-16.08,3.24-9.74,5.46-16.81t2.8-9.44q0-2.07-14.75,10.62-3,3.54-6.78,7.37-6.8,7.08-15.19,16.52t-14.61,18q-6.48,8.85-9.58,12.39t-5.17,3.54q-1.47,0-3.83-2.65A9.39,9.39,0,0,1,759,247.88Z" fill="none"/>
    </clipPath>
    <clipPath id="clip-path-5">
      <path d="M595.82,274.43a17.55,17.55,0,0,1-4.57-3.25,5.48,5.48,0,0,1-1.33-3.83q0-3,2.51-8.41t8.7-17.26q1.77-3.83,6.79-13.56Q625,195.38,625,192.42a4,4,0,0,1-.3-1.77q0-2.94,4.72-5.31a69.86,69.86,0,0,0,11.21-14.45q2.94-6.49,8-15.49T661,134q3.54-6.19,10.62-18a400.9,400.9,0,0,1,28-42.48q6.78-9.14,11.21-8.85,5.6,0,12.53,5.17A27.88,27.88,0,0,1,733,81.51c.78,1.37,1.18,4.32,1.18,8.85q0,9.14-2.06,31-.6,3.84-1.18,12.09-.88,13.28-2.66,28.32-3.25,33-4.72,51.63t-1.47,34.8q0,8.27.29,12.1v2.06l-.29,6.79a7.21,7.21,0,0,1-5.31,1.77,17.59,17.59,0,0,1-8-1.92Q705,267,704.38,264.4a3.9,3.9,0,0,0-.89-.59c-.39-.19-.59-1.08-.59-2.66l.3-6.49.88-16.52,1.48-47.78-3.84.29q-5.9,0-26.25,2.36t-25.37,3.84c-1.77,0-3.94,1.18-6.49,3.54a33.42,33.42,0,0,0-6.78,9.14,42.27,42.27,0,0,1-4.13,8.41q-3.26,5.46-3.25,6.34a11.71,11.71,0,0,0-3.1,3.1,28.65,28.65,0,0,0-1.62,2.5q0,3.26-6.05,16.52a159.8,159.8,0,0,1-11.94,22.13l-6.2,9.44Zm68.73-96.31a98.44,98.44,0,0,1,10.62-1.33q21.24-5,26-5a8.47,8.47,0,0,1,3.84.89,4.75,4.75,0,0,0,1.91,1.62,4.58,4.58,0,0,0,1.33.44q.59-1.77,3.69-32t3.39-40.27l.89-14.75q-1.77,0-7.67,6.79A178.84,178.84,0,0,0,695.38,112a198.59,198.59,0,0,0-12.83,22q-3,5.31-5.75,9.89c-1.88,3-3.2,4.57-4,4.57q-2.05,2.07-9.73,15.93t-6.2,15Q658.65,179.16,664.55,178.12Z" fill="none"/>
    </clipPath>
    <clipPath id="clip-path-6">
      <path d="M435.06,256.73A32,32,0,0,1,428,256q-3.24-.74-3.24-1.92a1.69,1.69,0,0,0-.3-1.18,1.75,1.75,0,0,0-1.18-.29c-.2-.19-.79-.69-1.77-1.48a15.34,15.34,0,0,0-3.54-2.06,16.05,16.05,0,0,1-2.65-8.85q0-5,2.65-15.63.89-9.45,8.85-23.6a171,171,0,0,1,18.73-26.85q10.77-12.67,19.33-17.7a15.15,15.15,0,0,1,11.2-4.42,20.12,20.12,0,0,1,10,2.65,33.13,33.13,0,0,1,8.71,8,52.41,52.41,0,0,1,7.22,11.5,33.07,33.07,0,0,1,1.18,8.56A123.83,123.83,0,0,1,502,196.55a97.88,97.88,0,0,0-2.5,13,99.69,99.69,0,0,0-1,13.28,11.81,11.81,0,0,0,.59,6.63c.79,1.68,1.87,2.51,3.25,2.51a7.22,7.22,0,0,0,3.24-.89,14.36,14.36,0,0,1,6.49-1.47,7.88,7.88,0,0,1,5.31,1.77,6.6,6.6,0,0,1,2.07,5.31q0,5.31-7.23,10.62t-13.72,5.31q-4.43,0-8.11-6.93a112.48,112.48,0,0,1-7.23-17.85L481.37,221l-12.68,12.09-6.78,6.78a70.54,70.54,0,0,0-5.31,5.61q-3.25,5.61-16.23,10.62A26.89,26.89,0,0,1,435.06,256.73Zm23.6-32.45a163.53,163.53,0,0,0,17.11-19.76q9.14-12.09,11.5-23.9a24.92,24.92,0,0,0-3.83-7.08c-1.77-2.36-3.35-3.63-4.72-3.83q-5.91,0-12.39,6.78A193.39,193.39,0,0,0,451,195.37l-9.73,14.46q-1.77,2.35-6.2,12.53t-4.42,12.24c0,4.33,1.27,6.49,3.83,6.49a13.37,13.37,0,0,0,6.79-2.36Q448.34,234.61,458.66,224.28Z" fill="none"/>
    </clipPath>
    <clipPath id="clip-path-7">
      <path d="M322.38,259.83c-3.35-2.66-5.6-5-6.78-6.94v-2.06a1.94,1.94,0,0,1,.88-1.92,8.22,8.22,0,0,1,3.25-.44q5,0,15.92,1.18A77.45,77.45,0,0,0,350.4,248q8.27-1.62,9.15-3.69c.59,0,.88-.1.88-.3,0-.39-.78-1.37-2.36-2.95a8.54,8.54,0,0,1-2.65-1,8.84,8.84,0,0,0-2.66-1c0-.78-.88-1.82-2.65-3.1a35.38,35.38,0,0,0-5.9-3.39q-8.56-7.08-12.1-10.47t-2.65-4.87v-1.47q-2.07,0-4.57-5.76a26.88,26.88,0,0,1-2.51-10.76q0-5.31,4.57-14.75a56.09,56.09,0,0,1,10.47-15.34,161.51,161.51,0,0,1,21.39-16.23q13.13-8.55,20.8-10.91a26.26,26.26,0,0,1,10-2.07,14.59,14.59,0,0,1,8,2.07,31.59,31.59,0,0,1,7.52,6.78,25.92,25.92,0,0,1,4.87,8,58,58,0,0,1-1.33,12.54q-1.32,6-4,6a2.19,2.19,0,0,0-.88.3c-.4.2-.59.69-.59,1.47a6.54,6.54,0,0,1-1.18,3.1,15.9,15.9,0,0,1-3.25,3.69q-6.5,4.73-10.62,4.72a3.94,3.94,0,0,1-4.13-3.25,6.75,6.75,0,0,1-1.18-1.77c-.39-.78-.88-1.18-1.47-1.18-.2,0-.55-.34-1-1a4.74,4.74,0,0,1-.73-2.8,3.38,3.38,0,0,1,.73-1.92,12.15,12.15,0,0,1,1-1.33q1.77,0,5.9-6.93t4.13-9.29q0-1.77-.45-2.07a7.39,7.39,0,0,0-2.8-.29q-23,10.32-28.61,15.63a17.16,17.16,0,0,1-1.33,2.36,1.89,1.89,0,0,1-1.62.59q0-2.66-15.64,20.06a9.71,9.71,0,0,0-1.32,3.54,20.88,20.88,0,0,0-.74,5,22.9,22.9,0,0,0-.59,2.65,3.57,3.57,0,0,0,1,2.36,18.57,18.57,0,0,0,2.8,2.51c1.18.88,2.36,1.82,3.54,2.8q15.35,11.5,21.39,17.26t7.23,9.58q3.82,5.91,3.83,10.62a8.5,8.5,0,0,1-2.65,6.2,26.47,26.47,0,0,1-8,5q-3.24,1.49-10.91,2.51a112.53,112.53,0,0,1-15.05,1,72,72,0,0,1-8.84-.59A39.77,39.77,0,0,1,322.38,259.83Z" fill="none"/>
    </clipPath>
    <clipPath id="clip-path-8">
      <path d="M258.66,243.45a15.54,15.54,0,0,1,1.48-7.07,13,13,0,0,1,.59-3.55,13.33,13.33,0,0,0,.59-2.65q-.3-1.77,2.36-9.73,5.31-11.8,14.16-41.6a3.23,3.23,0,0,1,1.18-2.51,6.58,6.58,0,0,1,3.54-1.32,16.45,16.45,0,0,1,3.24-.59,4.25,4.25,0,0,1,3.1,1.32,35.51,35.51,0,0,1,3.69,4.87,7.21,7.21,0,0,1,1.77,5.31q0,5.61-3.84,13.57a68.25,68.25,0,0,0-5,14.75A130.47,130.47,0,0,0,279.9,229q-.58,1.77-1.77,7.08a26.76,26.76,0,0,1-3.24,8.55,62.93,62.93,0,0,1-3.25,11.51q-1.47,3.24-3.24,3.24c-1.38,0-3.25-1.37-5.61-4.13Q258.67,251.13,258.66,243.45Zm29.21-115c-1-3.34-1-5,0-5q2.36-.28,5.46-5.16t2.8-8.11a3.35,3.35,0,0,1,.88-2.21,4,4,0,0,1,2.07-1.33,8.12,8.12,0,0,1,4.13-1.47q5,0,9.14,7.08a16.53,16.53,0,0,1,1.77,6.78,11.73,11.73,0,0,1-1.47,5.46,42.15,42.15,0,0,1-5.31,7.22q-5,6.79-9.44,6.79-3,0-6.49-2.95Q289.34,133.44,287.87,128.41Z" fill="none"/>
    </clipPath>
    <clipPath id="clip-path-9">
      <path d="M207.64,280a7.39,7.39,0,0,1-3.54-1.18,8.64,8.64,0,0,1-3.25-3.24,29.1,29.1,0,0,1-2.36-12.39l.3-12.1q9.14-53.68,21.53-108,4.13-14.44,6.93-27.43t3.4-16.52c0-.59-.55-.34-1.63.73a25.14,25.14,0,0,0-3.09,3.84c-1,1.47-1.38,2.51-1.18,3.1l-7.38,10.91q-1.77,1.77-8.26,13.57a116.71,116.71,0,0,1-8,14.75l-8.26,15.63q-9.15,16.81-11.21,20.36a175.23,175.23,0,0,0-8.56,15.34q-2.94,7.08-10.62,16.81a84,84,0,0,0-4.57,7.08c-1.47,2.56-2.41,4.23-2.8,5q0,1.49-6,10A159.61,159.61,0,0,1,138,250.53a82.64,82.64,0,0,1-11.21,10.18q-4.43,3.1-8.26,3.1-5,0-10.91-5.61a23.71,23.71,0,0,1-5.46-9.73,50.66,50.66,0,0,1-1.62-13.87q0-7.36,2.06-24.77.3-1.49,5.61-31.57,5.59-30.37,6.78-33.33a24.94,24.94,0,0,0,.3-4.13c0-1.77-.3-2.66-.89-2.66s-1.67,1.29-3.24,3.84q-.89,1.19-10.47,16.52T80.2,197.73q-17.1,31.58-25.37,47.35T42.74,267.64q-5,9.74-5.9,10.62-4.43,0-11.21-7.37a7.33,7.33,0,0,1-.88-3.25c0-1.38.63-3.63,1.91-6.78s3.1-7.28,5.46-12.39q9.14-18,12.1-20.35a20.61,20.61,0,0,0,4.13-10.33q3.82-5.31,10.91-19.17,4.43-7.08,10.47-17.7T80.5,160.56l8.26-14.45q11.51-20.06,18.43-31t10.48-14.46q4.71-5.59,4.72-8.85a25.7,25.7,0,0,1,2.5-11.36c1.67-3.43,3.4-5,5.17-4.57a18.63,18.63,0,0,1,5.75.74,10.66,10.66,0,0,1,4.57,3.69c.39.59,1,1.52,1.92,2.8a16.28,16.28,0,0,1,2.06,4.13,17.44,17.44,0,0,1,.74,5.46,55.54,55.54,0,0,1-.88,8.85q-.3,3.83-2.36,17.4a66.84,66.84,0,0,0-1.18,8Q133,150.24,127,185.19t-6,49.12a11.16,11.16,0,0,0,.59,4.42q2.07,1.49,3.69.3t4.87-7.67q3.83-7.08,13-18.29.59-.88,11.5-19.47,27.14-44.53,52.8-89.38L215,92.13q4.43-7.08,8.56-13.13t6.49-7.82a9.14,9.14,0,0,1,5.6-2.36q5.61,0,10,6.79t4.43,17.11q0,8-3.25,24.33a295.59,295.59,0,0,1-8.55,32.89q-1.77,8.26-5,20.65T226.52,193a123.88,123.88,0,0,1-2.36,12.69q-.3,1.47-1.63,9t-.73,10.18q-4.43,8-4.43,31.86l-.88,6.78a111.06,111.06,0,0,1-1.18,11.21c-.4,2-1,2.85-1.77,2.66a4.09,4.09,0,0,0-1.77-.3q-2.07,0-2.07,1.77C209.7,279.64,209,280,207.64,280Z" fill="none"/>
    </clipPath>
  </defs>
  <title>Misa_name</title>
  <g id="Misa_name">
    <g id="Misa_mask_e">
      <g clip-path="url(#clip-path)">
        <path id="Misa_e2" d="M1202.5,193.5c-8.78,28.26-5.36,50,16,62,13.36-1.34,29.32-10.92,47-26" fill="none" stroke="#000" stroke-width="24"/>
        <path id="Misa_e1" d="M1202.5,193.5c12.52,8.8,25.82,12,40,9,12.43-6.57,18.3-16.48,23-27-2.74-11.72-11.15-17.64-24-19C1228.19,164,1215.21,176.51,1202.5,193.5Z" fill="none" stroke="#000" stroke-width="23"/>
      </g>
    </g>
    <g id="Misa_mask_n">
      <g clip-path="url(#clip-path-2)">
        <path id="Misa_n" d="M1105.5,146.5a570,570,0,0,0-47,105,521.08,521.08,0,0,1,72-59c7.66,13.63,9.79,31.14,10,50l36-17" fill="none" stroke="#000" stroke-width="29"/>
      </g>
    </g>
    <g id="Misa_mask_a_third">
      <g clip-path="url(#clip-path-3)">
        <path id="Misa_a_5" d="M1010.5,192.5c-2-17.55-10.13-25.78-21-30-21.31,19.23-38.38,43.19-52,71-.13,9.91,6.3,15,17,17C978.84,235.11,996.43,215,1010.5,192.5Z" fill="none" stroke="#000" stroke-width="26"/>
        <path id="Misa_a_4" d="M1010.5,192.5q-14.79,39.08,3,56c13.29.45,25.34-7.92,37-19" fill="none" stroke="#000" stroke-width="26"/>
      </g>
    </g>
    <g id="Misa_mask_m">
      <g clip-path="url(#clip-path-4)">
        <path id="Misa_m" d="M757.5,174.5l37-12c1,22.1-16,58.45-37,98,25.27-42.36,50.89-71,77-81,4.23,22.62-2.68,48.92-15,77,19.11-35.81,38.07-67.25,56-70a246.49,246.49,0,0,1,0,69l48-39" fill="none" stroke="#000" stroke-width="28"/>
      </g>
    </g>
    <g id="Misa_mask_a_second">
      <g clip-path="url(#clip-path-5)">
        <path id="Misa_a_3" d="M589.5,277.5c44.49-86.86,93.79-169.32,138-213l-16,213" fill="none" stroke="#000" stroke-width="30"/>
        <line id="Misa_a_4-2" data-name="Misa_a_4" x1="718.5" y1="179.5" x2="639.5" y2="186.5" fill="none" stroke="#000" stroke-width="21"/>
      </g>
    </g>
    <g id="Misa_mask_a_first">
      <g clip-path="url(#clip-path-6)">
        <path id="Misa_a_2" d="M494.5,174.5c.77,24.41-7.48,66,0,69,12.39,5,33-13,33-13" fill="none" stroke="#000" stroke-width="27"/>
        <path id="Misa_a_1" d="M494.5,174.5c-3.76-10.86-10.83-16.19-20-18-19.35,20.56-37.47,47.32-54,82,5.09,6.12,12,10.53,22,12C462.77,233.07,479.48,206.05,494.5,174.5Z" fill="none" stroke="#000" stroke-width="21"/>
      </g>
    </g>
    <g id="Misa_mask_s">
      <g clip-path="url(#clip-path-7)">
        <path id="Misa_s" d="M390.5,192.5s16-29,9-44-81,37-69,56,40,37,38,48-57,11-57,11" fill="none" stroke="#000" stroke-width="36"/>
      </g>
    </g>
    <g id="Misa_mask_i">
      <g clip-path="url(#clip-path-8)">
        <line id="misa_i_2" x1="291.5" y1="166.5" x2="258.5" y2="263.5" fill="none" stroke="#000" stroke-width="27"/>
        <line id="misa_i_1" x1="315.5" y1="101.5" x2="287.5" y2="138.5" fill="none" stroke="#000" stroke-width="28"/>
      </g>
    </g>
    <g id="Misa_mask_m-2" data-name="Misa_mask_m">
      <g clip-path="url(#clip-path-9)">
        <path id="Misa_M-2" data-name="Misa_M" d="M24.5,285.5C65,208,104.71,136.7,143.5,73.5c-20.15,58.21-30.65,127-31,207q63.63-112.11,135-216l-43,221" fill="none" stroke="#000" stroke-width="26"/>
      </g>
    </g>
  </g>
</svg>
