<svg id="Assets" xmlns="http://www.w3.org/2000/svg" width="150" height="150" viewBox="0 0 617 528">
  <title>Music_knap_on</title>
  <text transform="translate(154.15 327.01)" font-size="100" fill="#fff" font-family="Caveat-Regular, Caveat"><tspan letter-spacing="-0.01em">M</tspan><tspan x="71" y="0">usic On </tspan></text>
  <path id="Apple_1" d="M283.09,158c-40.14-16.84-84.58-5.38-125.69,18.78-39.83,17-70.4,70.4-70.4,129.33s37,112.12,54,127.51,77.44,63.36,129.33,68.84,84.78.36,126.2-13c34.2-12.95,66.7-31.45,96-60.49,24.89-21.16,39.67-53.75,46.41-95.44,7.12-24.89,6.52-55,0-83.44s-22.16-54.5-49.54-75.1-47.58-28.56-72-32.33c-34.87-1.66-67.44,1.07-95.89,17.45l10-88.81a.23.23,0,0,0-.46-.07l-6.5,38.05c-48-49-103.51-52.91-106.65-50.32" fill="none" stroke="#fff" stroke-miterlimit="10" stroke-width="19"/>
  <path id="Apple_2" d="M278,102c.86,5.73-56.18,24.85-87.93-4.48s-56.27-21.21-77.92-49.07c41.69-20.49,103-28.92,131.26-24.5s52.86,36,52.86,36" fill="none" stroke="#fff" stroke-miterlimit="10" stroke-width="15"/>
</svg>
