<svg xmlns="http://www.w3.org/2000/svg" xmlns:xlink="http://www.w3.org/1999/xlink" width="1368" height="385" viewBox="0 0 1368 385">
  <defs>
    <clipPath id="clip-path">
      <path d="M24,272.76a21.67,21.67,0,0,1,1-5.44q1-3.49,1.54-5.44a106.12,106.12,0,0,1,6.7-18.71q2.22-5.29,4.46-11.72A95.15,95.15,0,0,0,41.3,217.5q5.58-12.84,9.91-25T56.65,177q.29-1.4,6.14-13.67,4.74-9.21,8.66-17.59,1.38-3.9,7-20.65,3.92-12.57,7-20.1a96.79,96.79,0,0,1,7.82-15.07q5-8.37,12-8.38a9.42,9.42,0,0,1,6,2.1,13,13,0,0,1,4,6.28,58.27,58.27,0,0,1,3.49,13q1.24,7.68,1.81,25.82.27,5.58.28,16.46v26.52q0,14.24.56,23.45a73.22,73.22,0,0,0,2.51,15.91q2.23,12.84,6.14,27.77t6.14,14.93q3.35,0,11.17-20t19.81-68.52q1.68-5.58,3.91-16.19t3.35-20.65q3.08-11.45,6-23.87t2.93-13.54c0-.92,0-1.85.14-2.79a14.14,14.14,0,0,0-.14-3.35c.74,0,1.54-1.2,2.38-3.62a20.77,20.77,0,0,0,1.25-6.7q0-8.1,3.91-12c.56-1.3,2-1.95,4.19-1.95a13.25,13.25,0,0,1,6.55,1.81A9.74,9.74,0,0,1,206,66.77q.84,5.87-7.81,42.71,0,3.34-3.91,20.09-2.52,9.5-3.91,18.15a123.11,123.11,0,0,1-2.65,13.95q-1.55,5.87-2.65,5.58-11.45,49.14-29.31,89.88-8.1,19.26-17.86,19.26-6.7,0-13.68-8.93a60.35,60.35,0,0,1-10.47-19.82q-2.92-10-7.67-35.17-4.75-13.11-4.75-30.42a227.33,227.33,0,0,1,1.4-23.45l1.11-19.26c-.18-7.44-.42-12.6-.69-15.49s-.8-4.33-1.54-4.33-1.86,1.68-3.35,5-3.63,9-6.42,17q-4.47,11.16-12.28,29.58L72.28,189a96.05,96.05,0,0,0-7.53,20.37Q53,239.83,45.21,265.23L42.7,273q-4.19,11.16-8.1,11.17c-1.86,0-4-1.31-6.42-3.91C25.39,277.51,24,275,24,272.76Z" fill="none"/>
    </clipPath>
    <clipPath id="clip-path-2">
      <path d="M341.35,253.22a5.22,5.22,0,0,1-2.79-.69,19.9,19.9,0,0,1-3.07-2.66,23.12,23.12,0,0,1-9.63-8.79q-3.5-5.72-2.93-10.19,1.11-12.82,7.4-28.19a125.16,125.16,0,0,1,14.93-27.07q8.65-11.73,16.75-14.52a24.17,24.17,0,0,1,8.37-2q6.71,0,9.49,5.58c1.3,2.61,2,4.56,2,5.86,0,2.24-1.31,3.73-3.91,4.47a3.46,3.46,0,0,0-2,.84,2.23,2.23,0,0,0-1.11,1.67,5.53,5.53,0,0,0,2.51.28,60.89,60.89,0,0,0,11.72-1.4c4.65-.92,7.63-2,8.93-3.07a6.7,6.7,0,0,1,2.8-.83l3.9.56c3.17.93,4.75,2,4.75,3.34a3.16,3.16,0,0,0,.84,2.1,2.49,2.49,0,0,0,1.95,1c1.12.18,1,.93-.42,2.23s-4.05,3.44-7.95,6.42c-.94.56-2.28,1.39-4.05,2.51s-2.79,2.05-3.07,2.79a5,5,0,0,0,.14,3.07A15.21,15.21,0,0,1,398,202.7q0,9.21-7.95,20.38a82.55,82.55,0,0,1-19.82,19.54q-11.87,8.37-22.75,9.77A35.81,35.81,0,0,1,341.35,253.22Zm9.77-16.47q3.63-3.62,5.86-4.46,1.95,0,5.31-2.93t10.32-11.86a91.9,91.9,0,0,0,8-10.33,15.13,15.13,0,0,0,2.65-8.1,8.35,8.35,0,0,0-.28-2.51,3.08,3.08,0,0,0-1.81-1.53c-1-.47-2-.88-2.93-1.26a8.78,8.78,0,0,1-4.61-1.26,62.52,62.52,0,0,1-6-4.32l-4.47-5.58-4.74,4.74q-6.7,6.71-13.68,21.91t-7.81,23.59q-.28,3.92,1.25,5.44a7.16,7.16,0,0,0,4.61,1.81C343.87,240.1,346.66,239,351.12,236.75Z" fill="none"/>
    </clipPath>
    <clipPath id="clip-path-3">
      <path d="M535.2,244.43q-3.5-5.44-3.49-17.72l.28-12.84a18.58,18.58,0,0,0-.42-4.75c-.28-.93-.79-1.39-1.53-1.39q-3.63,0-15.49,9.49a210.81,210.81,0,0,0-23.87,22.61q-1.4,1.39-3.77,4a22.4,22.4,0,0,1-4.32,3.91A6.84,6.84,0,0,1,479,249a7.08,7.08,0,0,1-4.75-2l-3.07-2.51a5,5,0,0,1-1.95-3.91l.56-2.51,6.42-18.42q6.13-14.23,7.25-18c.75-2.52.65-3.68-.27-3.49a21.36,21.36,0,0,0-7,2.65c-3,1.58-4.84,3.12-5.59,4.6q-.56,0-3.62,2.93a34.81,34.81,0,0,1-5.31,4.33q-2.5,3.63-12.28,13.12l-6.7,6.42Q438.49,235.64,431,246q-3.92,5-4.47,5-8.66,0-10.88-8.37a10.64,10.64,0,0,1-1.12-5.31q0-4.45,3.35-18.42,2.52-9.48,2.79-11.72l1.4-5.58a42.45,42.45,0,0,1,2.51-8.66q2-5,6.7-15.91,2.79-7.8,2.79-11.72a7.05,7.05,0,0,1,2.51-5.72,8.48,8.48,0,0,1,5.58-2.09,8.73,8.73,0,0,1,6.7,3.07,11.56,11.56,0,0,1,2.79,8.09,23.93,23.93,0,0,1-2.23,9.77L446.3,186a135.24,135.24,0,0,0-5.72,14.37q-3.49,9.91-3.49,11c.18.55.84.41,2-.42s2.42-1.91,3.91-3.21a55.47,55.47,0,0,1,5.86-5,132.77,132.77,0,0,1,20-15.07q11.58-7.26,17.72-9.21a11.88,11.88,0,0,1,5.45,1,17,17,0,0,1,4,3.35q2.24,2.37,3.35,3.48,2.52,2.52,2.52,7.26a15.85,15.85,0,0,1-.56,3.63q-1.12,3.91-2.93,9.49c-1.21,3.72-2.1,6.42-2.65,8.09q1.95-1.66,7-5.86t9.21-7.81q14-10.89,22.05-10.89,5.87,0,10,6.14a10.45,10.45,0,0,1,3.07,5.17,36.15,36.15,0,0,1,.56,7.11v7a53.8,53.8,0,0,1,.28,6.7c.18,1.49.42,4.38.7,8.65s.7,6.7,1.25,7.26q1.39,1.68,9.49,3.07,5,.84,5,4.47c0,1.67-1.21,3.35-3.63,5a16.74,16.74,0,0,1-8.93,2.23,24.5,24.5,0,0,1-9.21-1.67Q538.68,249.88,535.2,244.43Z" fill="none"/>
    </clipPath>
    <clipPath id="clip-path-4">
      <path d="M576.09,248.76q-1.4-.56-2-.84a11.32,11.32,0,0,0-.7-2.93,11.91,11.91,0,0,1-.7-2.65c-1.49-.74-2.23-1.68-2.23-2.79a13.34,13.34,0,0,1,.84-3.91q3.61-6.42,12.84-29.17t10.32-26.93a6.59,6.59,0,0,1,.84-2.8A11,11,0,0,1,597.3,174a3.49,3.49,0,0,1,2.52-1.11q3.06,0,5.72,4.18a16.93,16.93,0,0,1,2.65,9.21q0,3.36-6.28,19.12T587.81,237c-.74,1.5-1.81,3.63-3.21,6.42s-2.46,4.47-3.21,5a5,5,0,0,1-3.07.84A6.52,6.52,0,0,1,576.09,248.76Zm32.52-110.95q-5.45-5.72-5.44-11.87c0-.92,1.11-3.07,3.35-6.42s3.34-5.2,3.34-5.58a14.44,14.44,0,0,1,6.7,1.4,44.89,44.89,0,0,0,7.82,11.44q1.68,2.24,3.07,4.19a6.13,6.13,0,0,1,1.39,3.35,31.91,31.91,0,0,1-.41,6.42,3,3,0,0,1-2.24,2.23,27,27,0,0,1-6.84.56Q614.06,143.53,608.61,137.81Z" fill="none"/>
    </clipPath>
    <clipPath id="clip-path-5">
      <path d="M847.67,266.9q-1.39-1.68-3.91-5-3.35-8.38-3.35-25.13c0-3.9.1-7,.28-9.21a25.15,25.15,0,0,1-.28-4.74q0-11.16,3.21-33.63t6.28-34.48q1.13-17.3,2.24-24.14t1.11-8q-.56-1.11-5.3,5.45a180.72,180.72,0,0,0-10.33,16.33q-4.18,7-10.6,15.91a90.42,90.42,0,0,0-5.31,10l-7.81,16.19q-15.07,23.18-21.49,30.85T781,225a8.35,8.35,0,0,1-2.51-.28q-8.1-2-11-6.56t-3.48-16.88q-.29-5-.28-20.66a12.31,12.31,0,0,0,.55-5.58,16.78,16.78,0,0,1,0-4.47,35.84,35.84,0,0,1,1.12-4.6,43.5,43.5,0,0,0,1.4-6.84q.82-6.42,1.53-14.51t.7-13.4q0-5.31-.56-5.58v.27c0,.94-1.12,3.07-3.35,6.42a70.9,70.9,0,0,0-7.67,12.43q-4.05,8-11.87,24.14l-10.6,22a74.31,74.31,0,0,1-4.61,15.49,185.64,185.64,0,0,1-7.95,17.72q-2.8,7.55-6.42,15.91c-2.42,5.59-4.47,9.49-6.14,11.73A68.62,68.62,0,0,1,705.18,262q-1.81,2.93-4,2.93c-1.3,0-3.35-.94-6.14-2.79a43.26,43.26,0,0,1-4.32-4.89,7.56,7.56,0,0,1-1.54-4.6,14.09,14.09,0,0,1,2.23-6.7c2.42-2.8,5.17-7.58,8.24-14.38s4.51-10.75,4.32-11.86c-.18-.74.28-2,1.4-3.77s2.79-4.33,5-7.67c-.18-.75.65-3.49,2.52-8.24S717.13,190,720.11,184c1.68-3,2.42-5.21,2.24-6.7a22.87,22.87,0,0,0,1.53-3.07,6.47,6.47,0,0,1,2.37-3.07,34.49,34.49,0,0,1,2-5.3,34.91,34.91,0,0,1,1.11-3.35,25.15,25.15,0,0,0,1.12-3.63,41.69,41.69,0,0,1,4.47-8.09,15.93,15.93,0,0,0,1.81-2.79,15.84,15.84,0,0,1,2.09-3.08A52.32,52.32,0,0,1,744,134.6q4-6.7,8.79-14l3.35-5.3a45.83,45.83,0,0,0,2.93-5.72,34.13,34.13,0,0,1,4.05-6.84l2.37-3.63q1.81-2.79,4-6.7,1.4-2,5-7.68c2.42-3.81,4.09-5.72,5-5.72q2.5-.55,8.79,4.89t6.28,8.79a83.33,83.33,0,0,1-1.54,10.61,152.17,152.17,0,0,1-3.49,15.07q-.27,4.47-1.25,11.58t-1.54,10.47q-2.79,15.35-3.35,23.17A75,75,0,0,1,781,178.7q-2,7-2.51,8.93a17.32,17.32,0,0,1,1.4,6.7v6.14L790.45,189a45,45,0,0,1,2.51-3.91c.93-1.3,1.77-2.61,2.52-3.91a142.93,142.93,0,0,0,8.65-13.12,8.24,8.24,0,0,1,1.39-3.49,23,23,0,0,0,2-4,9.48,9.48,0,0,0,3.35-3.49,7.2,7.2,0,0,0,1.11-4.61q11.44-16.74,27.36-38.38t20.37-25.26q4.74-3.34,8.66-3.35,4.74,0,8.93,4.47,4.18,4.74,4.18,8.93a24.17,24.17,0,0,1-2,8.37l-4.19,13.4q-5.85,16.76-5.58,21.21a47.49,47.49,0,0,0-2.51,12,22.3,22.3,0,0,0-1.54,4.46c-.46,1.86-1.07,3.07-1.81,3.63a20.53,20.53,0,0,0,.56,3.77,23,23,0,0,1,.56,4.6,10.06,10.06,0,0,1-.28,2.8q-6.15,37.68-6.14,56.94,0,18.13,5.58,19.53h.28q.84,0,.84,1.68a46.86,46.86,0,0,1-.84,6.14,16,16,0,0,1-.56,5.72,14.08,14.08,0,0,1-1.67,4.33,13,13,0,0,1-2.24,2.23,4.06,4.06,0,0,1-2.51.84,77.51,77.51,0,0,1-8.09-1.4A17.16,17.16,0,0,0,847.67,266.9Z" fill="none"/>
    </clipPath>
    <clipPath id="clip-path-6">
      <path d="M892.88,242.9a14.83,14.83,0,0,1,1.4-6.7,12.21,12.21,0,0,1,.56-3.35,12.67,12.67,0,0,0,.56-2.52q-.28-1.67,2.23-9.21,5-11.16,13.4-39.35a3,3,0,0,1,1.11-2.37,6.2,6.2,0,0,1,3.35-1.26,15.59,15.59,0,0,1,3.07-.56,4,4,0,0,1,2.93,1.26,32.61,32.61,0,0,1,3.49,4.6,6.82,6.82,0,0,1,1.68,5q0,5.29-3.63,12.84a65.52,65.52,0,0,0-4.75,13.95,123,123,0,0,0-5.3,14c-.37,1.11-.93,3.35-1.67,6.7a25.48,25.48,0,0,1-3.07,8.09,61.61,61.61,0,0,1-3.07,10.89Q903.76,258,902.1,258q-2,0-5.31-3.91Q892.88,250.16,892.88,242.9ZM920.52,134c-.94-3.16-.94-4.75,0-4.75,1.48-.18,3.21-1.81,5.16-4.88s2.84-5.63,2.65-7.68a3.16,3.16,0,0,1,.84-2.09,3.8,3.8,0,0,1,2-1.26A7.79,7.79,0,0,1,935,112q4.74,0,8.65,6.7a15.63,15.63,0,0,1,1.68,6.42,11.07,11.07,0,0,1-1.4,5.16,39.89,39.89,0,0,1-5,6.84q-4.76,6.42-8.93,6.42-2.79,0-6.14-2.79C922.56,139.44,921.45,137.21,920.52,134Z" fill="none"/>
    </clipPath>
    <clipPath id="clip-path-7">
      <path d="M951.78,256.85a18.81,18.81,0,0,1-9.21-10.6,38.46,38.46,0,0,1-2-5.59,2.71,2.71,0,0,1,2-2.51,9,9,0,0,1,4.6,1.68,21.58,21.58,0,0,0,4.33,2.23q4.18,3.91,11.44,3.91a23,23,0,0,0,10.19-2.24q4.61-2.22,5.16-5.3,0-1.4-2.79-9.77a88.73,88.73,0,0,1-10.74-20.51Q961,197.68,961,190.42a22.48,22.48,0,0,1,3.07-10.88,29.2,29.2,0,0,1,8.37-9.5,79,79,0,0,1,16.89-13.11,75.6,75.6,0,0,1,18-8.1,50,50,0,0,1,8.24.84,23,23,0,0,1,6.83,2q3.08,1.13,5.87,6.14a19.78,19.78,0,0,1,2.79,9.49q0,4.47-4.75,12.29a32.65,32.65,0,0,1-2.23,5.3,14.61,14.61,0,0,0-1.68,4.19q-1.11,2.79-3.62,2.79a6.92,6.92,0,0,1-4.89-2.38,17.33,17.33,0,0,1-3.77-5.72,24.91,24.91,0,0,1-.83-5.86,12,12,0,0,1,2.23-6.7c2-2,3.07-3.44,3.07-4.19s-1-1.11-3.07-1.11q-3.35,0-12.84,5.3a63.35,63.35,0,0,0-15.07,11.17c-3.35,3.16-5.4,5.54-6.14,7.11a17.38,17.38,0,0,0-1.12,7.12,33.51,33.51,0,0,0,1.81,9.91q1.82,5.73,3.77,7.68l2.37,4.74a45.89,45.89,0,0,0,4.33,7q5.58,12.56,5.58,19.54,0,8.1-6.28,11.72t-19.67,3.63A33.11,33.11,0,0,1,951.78,256.85Z" fill="none"/>
    </clipPath>
    <clipPath id="clip-path-8">
      <path d="M1064.26,253.22a5.2,5.2,0,0,1-2.79-.69,19.44,19.44,0,0,1-3.07-2.66,23,23,0,0,1-9.63-8.79q-3.49-5.72-2.93-10.19,1.11-12.82,7.39-28.19a125.18,125.18,0,0,1,14.94-27.07q8.64-11.73,16.74-14.52a24.21,24.21,0,0,1,8.38-2q6.69,0,9.49,5.58,2,3.91,2,5.86,0,3.36-3.91,4.47a3.44,3.44,0,0,0-2,.84,2.22,2.22,0,0,0-1.12,1.67,5.59,5.59,0,0,0,2.52.28,60.89,60.89,0,0,0,11.72-1.4c4.65-.92,7.63-2,8.93-3.07a6.7,6.7,0,0,1,2.79-.83l3.91.56c3.16.93,4.74,2,4.74,3.34a3.16,3.16,0,0,0,.84,2.1,2.52,2.52,0,0,0,2,1c1.11.18,1,.93-.42,2.23s-4,3.44-8,6.42c-.93.56-2.28,1.39-4,2.51s-2.8,2.05-3.07,2.79a5,5,0,0,0,.13,3.07,15,15,0,0,1,1.12,6.14q0,9.21-8,20.38a82.73,82.73,0,0,1-19.82,19.54q-11.87,8.37-22.75,9.77A35.81,35.81,0,0,1,1064.26,253.22Zm9.77-16.47c2.41-2.41,4.37-3.9,5.86-4.46q2,0,5.3-2.93t10.33-11.86a93.12,93.12,0,0,0,8-10.33,15.22,15.22,0,0,0,2.65-8.1,8.69,8.69,0,0,0-.28-2.51A3.11,3.11,0,0,0,1104,195c-1-.47-2-.88-2.93-1.26a8.74,8.74,0,0,1-4.6-1.26,61.28,61.28,0,0,1-6-4.32l-4.47-5.58-4.74,4.74q-6.7,6.71-13.68,21.91t-7.82,23.59c-.18,2.61.23,4.42,1.26,5.44a7.16,7.16,0,0,0,4.61,1.81C1066.77,240.1,1069.56,239,1074,236.75Z" fill="none"/>
    </clipPath>
    <clipPath id="clip-path-9">
      <path d="M1150.79,258.53a6.6,6.6,0,0,1-3.49-1.12,16.47,16.47,0,0,1-2.1-1.4c-2.79,0-4.56-1.48-5.3-4.46a6.82,6.82,0,0,1-.28-2.51q0-3.63,3.35-14.24l2-8.93q2.79-12.28,5-20.66.84-1.38,3.35-9.49a71.49,71.49,0,0,1,4.46-12,99.2,99.2,0,0,1,10.61-24.84,12.28,12.28,0,0,1,2.23-2.23,4.93,4.93,0,0,1,2.52-1.4,5.06,5.06,0,0,1,3.62-1.67q2,0,5,2.51,2.79,3.34,2.79,6.42,0,5.31-7,15.91l-4.46,10.88c-.38.94-1.31,3.12-2.8,6.56a35.85,35.85,0,0,0-2.79,9.35q3.63-5,13.12-14.51a85,85,0,0,1,9.21-8.23q3.63-2.66,10.61-7.12a48.39,48.39,0,0,1,8.93-5.31,21.84,21.84,0,0,1,8.65-1.67,21.58,21.58,0,0,1,3.91.28q3.9-.27,6.14,3.91a28.1,28.1,0,0,1,2.79,10.88,33.82,33.82,0,0,0-4.74-.56,21.25,21.25,0,0,0-9.91,2.24,51.24,51.24,0,0,0-7.12,4.32c-1.86,1.4-3.07,2.28-3.63,2.66q-15.08,9.77-23.44,18.42-8.65,9.49-12.14,13.95a34.07,34.07,0,0,0-5.17,8.94q-.84,2-4.74,11.58t-6.42,11.58A3.24,3.24,0,0,1,1150.79,258.53Z" fill="none"/>
    </clipPath>
    <clipPath id="clip-path-10">
      <path d="M1246.52,250.71q-5.87-4.19-7-9.21a16.32,16.32,0,0,1-.28-3.63q0-10.32,8-26.65a149.47,149.47,0,0,1,19.4-30.15q11.43-13.81,20.93-17.44,5.87-3.07,7.54-3.07c1.11,0,3.63,1,7.53,3.07a19.41,19.41,0,0,1,5.86,2.51,26.5,26.5,0,0,1,5,5.58,61.56,61.56,0,0,1,5.3,17.86,35.39,35.39,0,0,1,1.68,8.38,5.36,5.36,0,0,1-1.68,3.91c-.19.18-.51.55-1,1.11a2.46,2.46,0,0,0-.69,1.26c0,.28.18.42.56.42a6.88,6.88,0,0,1-.28,1.25,16.34,16.34,0,0,1-1.12,2.65q-3.35,10.62-3.35,18.15a26.49,26.49,0,0,0,.56,5.3q2.79,7.26,9.49,7.26,5.58,0,10.6-5c3-2,5.17-3.49,6.56-4.32s2.1-.61,2.1.69a7.73,7.73,0,0,0,1.11.84,3,3,0,0,0,1.68.56c1.3,0,2,.84,2,2.51a10.62,10.62,0,0,1-2,5.58,43.59,43.59,0,0,0-3.07,3.35,4.11,4.11,0,0,0-1.12,2.24l-4.18,3.9a24.64,24.64,0,0,1-12.56,3.08q-7.55,0-12-3.08a31.44,31.44,0,0,1-7.53-8.09,32,32,0,0,1-4.75-9.49l-1.39-2.79-8.1,5.3a80.63,80.63,0,0,1-6.42,5.72q-3.63,2.94-4.74,4-2.23,2.79-3.91,2.79h-2.79c0,1.31-1.82,2.75-5.44,4.33a24.64,24.64,0,0,1-9.63,2.37Q1252.38,254.91,1246.52,250.71Zm23.73-20.79q12.55-8.8,15.9-13l8.1-8.38a40.36,40.36,0,0,0,7.12-11.44A31.17,31.17,0,0,0,1304,185.4c0-3.16-.47-5.4-1.4-6.7-.74-2.24-1.86-3.35-3.35-3.35q-1.11,0-6.42,2-5.3,3.36-14.93,15.35a215.2,215.2,0,0,0-17.17,24.71q-7.53,12.7-7.53,18.56a2.93,2.93,0,0,0,.56,1.67,8.37,8.37,0,0,0,.83,1.12Q1257.69,238.71,1270.25,229.92Z" fill="none"/>
    </clipPath>
    <clipPath id="clip-path-11">
      <path d="M195.51,249.46c-1.21-1.21-1.81-2-1.81-2.38a7.2,7.2,0,0,0-1.4-4.74,3.81,3.81,0,0,1-.55-2.51q0-4.47,4.32-15.22a209.75,209.75,0,0,1,11.31-23.3,37.29,37.29,0,0,0,4.32-5.86c1.77-2.8,2.93-4.37,3.49-4.75a3.16,3.16,0,0,1,.84-2.09,2.52,2.52,0,0,1,1.95-1V186q0-2.52,9.21-12.15t15.08-13.25a25,25,0,0,1,14.23-4.75,13.77,13.77,0,0,1,8.65,2.79q1.39,1.68,12.84,12l10.33,9.21-5,14a43.53,43.53,0,0,0-2.51,13.68,37.66,37.66,0,0,0,6.14,20.37,14.75,14.75,0,0,0,5.58,5.86,19.68,19.68,0,0,0,8.37,3.35q6.14,1.13,6.14,6.14,0,5.6-5,6.7a14.67,14.67,0,0,1-3.35.28q-16.47,0-28.47-23.16a38.57,38.57,0,0,1-2.93-6.15,36.17,36.17,0,0,1-2.1-6.14C264,216.2,262.64,218,261,220s-3.26,3.81-4.75,5.3q-30.42,30.42-48,30.43a18.45,18.45,0,0,1-10-2.8A14,14,0,0,0,195.51,249.46Zm15.63-11.31a28,28,0,0,0,7.26-2.79,51.44,51.44,0,0,0,8.79-5.86q24-20.66,34.62-36L268,183.44q-2.81-5.85-5.87-8.51c-2.05-1.77-3.9-2.65-5.58-2.65q-5.87,0-18.42,14.65a181.85,181.85,0,0,0-22.89,34.47,101.71,101.71,0,0,0-4.46,9.63l-2.52,6.28C208.21,238.25,209.19,238.53,211.14,238.15Z" fill="none"/>
    </clipPath>
  </defs>
  <title>Naomi_name</title>
  <g id="Naomi_name">
    <g clip-path="url(#clip-path)">
      <path id="Naomi_n" d="M23.5,288.5c26.91-72.08,54.5-138.68,83-198,6.73,86.3,12.44,151.56,32,176,21.86-32.18,43.45-119,65-212" fill="none" stroke="#000" stroke-width="33"/>
    </g>
     <g clip-path="url(#clip-path-11)">
      <path id="Naomi_a1" d="M279.5,178.5l-27-16c-21.5,19.81-39.77,44.57-55,74l19,13c29.27-24.21,57.89-48.68,67-81-15.34,38.55-13.52,70,28,85" fill="none" stroke="#0d0300" stroke-width="24"/>
    </g>
    <g clip-path="url(#clip-path-2)">
      <path id="Naomi_o" d="M417,172l-2.52.26C397,182.41,378,183.25,358,178l29-19c-27.44,11.43-47.78,35.82-60,75l17,15c20.14-11.83,41.92-21.59,48.5-50.5l-7-11Z" fill="none" stroke="#000" stroke-width="30"/>
    </g>
    <g clip-path="url(#clip-path-3)">
      <path id="Naomi_m1" d="M445.5,143.5l-29,106c26.87-30.71,55.36-56.88,86-77l-28,81c21.16-28.6,45.09-52.78,74-69-5.94,20.83-8.86,41-6,60l22,1" fill="none" stroke="#000" stroke-width="31"/>
    </g>
    <g clip-path="url(#clip-path-4)">
      <line id="Naomi_i2" x1="603.5" y1="111.5" x2="628.5" y2="147.5" fill="none" stroke="#000" stroke-width="25"/>
      <line id="Naomi_i1" x1="608.5" y1="169.5" x2="570.5" y2="251.5" fill="none" stroke="#000" stroke-width="24"/>
    </g>
    <g clip-path="url(#clip-path-5)">
      <path id="Naomi_m2" d="M684,271,790,73c-12.31,55.11-21.14,109.57-19,162,34.44-60.77,71.37-111.74,110-156-17.86,57.47-30.48,115.34-33,174l17,18" fill="none" stroke="#000" stroke-width="31"/>
    </g>
    <g clip-path="url(#clip-path-6)">
      <line id="Naomi_i5" x1="896.5" y1="264.5" x2="924.5" y2="172.5" fill="none" stroke="#000" stroke-width="26"/>
      <line id="Naomi_i4" x1="945.5" y1="105.5" x2="924.5" y2="143.5" fill="none" stroke="#000" stroke-width="27"/>
    </g>
    <g clip-path="url(#clip-path-7)">
      <path id="Naomi_s" d="M1016.5,196.5l5-37c-19.18-3-37.28,10.58-55,30l23,62c-11.22,5.79-31.37.69-52-5" fill="none" stroke="#000" stroke-width="26"/>
    </g>
    <g clip-path="url(#clip-path-8)">
      <path id="Naomi_02" d="M1140,175c-30.93,9.48-50.43,10.8-53,0l25-16c-30.7,11.3-47.87,39.4-59,75l14,14c24.26-15.35,46.55-30.62,48-45l-11.5-16.5Z" fill="none" stroke="#000" stroke-width="28"/>
    </g>
    <g clip-path="url(#clip-path-9)">
      <path id="Naomi_r" d="M1182.5,146.5l-43,114c25.88-48.13,58.74-80.52,100-94" fill="none" stroke="#000" stroke-width="26"/>
    </g>
    <g clip-path="url(#clip-path-10)">
      <path id="Naomi_a2" d="M1315.5,181.5,1292,166c-18.68,19.6-36.66,40-48,68,2.19,7.44,7.69,10.17,16.5,15.5,26.82-24.1,43.08-48.21,60-76-24.64,54.14-22.56,93.55,30,58" fill="none" stroke="#000" stroke-width="27"/>
    </g>
   
  </g>
</svg>
