<svg id="Layer_1" data-name="Layer 1" xmlns="http://www.w3.org/2000/svg" width="568.47" height="278.99" viewBox="0 0 568.47 278.99">
  <title>paper</title>
  <path id="Right_side" d="M534.23,20.14c3.09,2.79.61,11.32.44,16l1.11,229.32a.35.35,0,0,1,0,.2c-2.11,2.94-7.43.2-17.33,1.31l-477-1.92c-9-2.51-12.21-6.35-13-10.68,8.28-6.08,11.16-13.29,1.16-23.21,21.14-8.86,17-15.7,1.08-21.61,8-7.78,9.14-16.23,1.28-25.58,18.34-1.54,7.93-18.17,1.63-32.64,11.77-5.22,12-12.45,1.08-21.61,6.42-5.78,7.31-12.32,1-19.86C50,104,46.74,93.46,37,81.2c24.39-8.78,22-18.26,1.41-28.22,5.89-10.22,11.29-20.41,1.48-29.76,3.77-7.71,12-9.36,21.82-8.87C145.38,21.43,531.49,17.66,534.23,20.14Z" fill="#ffffe1" stroke="#000" stroke-miterlimit="3.33" stroke-width="2"/>
</svg>
