<svg xmlns="http://www.w3.org/2000/svg" xmlns:xlink="http://www.w3.org/1999/xlink" width="1368" height="359" viewBox="0 0 1368 359">
  <defs>
    <clipPath id="clip-path">
      <path d="M215.58,105.17a39.79,39.79,0,0,1-3.22,14.93q-4.7,11.72-23.72,27.67t-35.43,23q-6.44,2.93-14.93,5.85t-16.69,5.56a39.91,39.91,0,0,1-11.71,1.18l.58.58q6.74,14.94,26.06,36.31,9.07,10.55,24.89,24.16t27.23,19.17a4.78,4.78,0,0,1,1.17,3.52,12.48,12.48,0,0,1-1.61,5.71q-1.6,3.07-2.78,3.36a11.54,11.54,0,0,1-1.46.59,6.67,6.67,0,0,1-2.05.29q-4.11,0-11.71-5a194,194,0,0,1-26.65-19.17,270.52,270.52,0,0,1-28.11-28.55,146.94,146.94,0,0,1-10.69-13.91,107.37,107.37,0,0,1-8.34-16.25l-.59,1.76q-8.77,29.87-26.64,77-1.47,3.53-4.39,3.52c-2.15,0-4.79-1.28-7.91-3.81l-2.05-2a12.89,12.89,0,0,1-2-2.49,4.35,4.35,0,0,1-.58-2.19q0-2.64,4.68-13.18l3.52-7.91q1.76-10.53,8.49-24.3,2-7,23.71-59.73l5.27-12.88,3.22-7.62Q109,120.4,122.47,90.82a25.59,25.59,0,0,0,1.46-5.56q0-3.81-5-3.81c-2.15-2.53-3.23-4.88-3.23-7A4.35,4.35,0,0,1,118.66,70l15.23-6.15a89.32,89.32,0,0,1,19.91-2.34A75.43,75.43,0,0,1,189.52,70Q215.58,85.56,215.58,105.17Zm-34,28q16.69-14.49,15.82-28.25,0-5.56-5.86-11.72t-12-7.9q-17.85-4.1-24-4.1-5.28,0-8.35,2.19A11.48,11.48,0,0,0,143,90.24c0,.58-1.28,3.41-3.81,8.49q-8.5,18.43-10.83,25.18l-6.74,13.76q-9.37,18.74-11.27,23.42t-.44,6.15q12-.87,34-10A156.74,156.74,0,0,0,181.61,133.13Z" fill="none"/>
    </clipPath>
    <clipPath id="clip-path-2">
      <path d="M211,241.17c-1.27-1.26-1.9-2.09-1.9-2.48a7.55,7.55,0,0,0-1.47-5,4,4,0,0,1-.58-2.64q0-4.68,4.54-15.95a218.46,218.46,0,0,1,11.85-24.45,38.56,38.56,0,0,0,4.54-6.15c1.85-2.93,3.08-4.59,3.66-5a3.32,3.32,0,0,1,.88-2.2,2.65,2.65,0,0,1,2.05-1v-1.76q0-2.62,9.66-12.73t15.81-13.91a26.29,26.29,0,0,1,14.94-5,14.46,14.46,0,0,1,9.07,2.93q1.47,1.75,13.47,12.59l10.84,9.66-5.27,14.64a45.77,45.77,0,0,0-2.64,14.35,39.6,39.6,0,0,0,6.44,21.37q1.47,3.22,5.86,6.15a20.67,20.67,0,0,0,8.78,3.51c4.29.79,6.44,2.93,6.44,6.45,0,3.9-1.75,6.25-5.27,7a15.21,15.21,0,0,1-3.51.3q-17.28,0-29.87-24.31a40.55,40.55,0,0,1-3.07-6.44,38.12,38.12,0,0,1-2.2-6.44q-1.75,2.35-4.39,5.56t-5,5.57q-31.92,31.92-50.36,31.91a19.39,19.39,0,0,1-10.54-2.93A14.57,14.57,0,0,0,211,241.17Zm16.4-11.85a29.66,29.66,0,0,0,7.61-2.93,53.93,53.93,0,0,0,9.22-6.15q25.18-21.66,36.31-37.77L287,171.93q-2.92-6.15-6.15-8.93T275,160.21q-6.15,0-19.33,15.38a190.55,190.55,0,0,0-24,36.16,103.13,103.13,0,0,0-4.68,10.1l-2.64,6.59C224.36,229.42,225.39,229.71,227.44,229.32Z" fill="none"/>
    </clipPath>
    <clipPath id="clip-path-3">
      <path d="M424.05,157q0,5.28-7,18.45A127.85,127.85,0,0,1,411.9,188a42.91,42.91,0,0,1-4.24,7.61l-6.74,15.52q-4.4,9.66-10.83,22.55Q382.19,250.1,379,258l-3.8,6.15Q360.51,287.57,352.61,297q-16.11,14.34-24.89,16.69a31.07,31.07,0,0,1-9.07,1.17,41,41,0,0,1-18.3-4.24q-8.64-4.24-9.81-9.81a5.93,5.93,0,0,1,1.46-4.39q1.75-2.36,3.81-2.35a2.76,2.76,0,0,1,2.34,1.18,26.48,26.48,0,0,0,6.88,3.36,29.22,29.22,0,0,0,9.81,1.61,35.77,35.77,0,0,0,5.56-.58q5.85-1.17,12.3-7a92.44,92.44,0,0,0,11.71-12.88,369.66,369.66,0,0,0,21.38-36.6q-4.11-1.17-7.91-5.71a39.69,39.69,0,0,1-6-9.52q-2.2-5-1.61-7.32v-3.22q-2.64,0-4.25-9.95a147,147,0,0,1-1.61-23.14q0-5,.59-12.59a54,54,0,0,0,1.31-11.56c.1-4.59.15-7.56.15-8.93V150a12,12,0,0,1,.73-5,7.18,7.18,0,0,1,2.49-2.64,10.52,10.52,0,0,1,4.69-1.17q8.19,0,8.2,21.67,0,3.22-.59,12.59-.3,4.11-.29,12.3a124,124,0,0,0,2.63,26.94q2.64,11.72,7.91,16.1l1.75-4.1q3.22-8.49,5-10.83,4.1-8.49,4.69-10.84a37.19,37.19,0,0,1,3.22-6.73l3.8-7.91q.58-1.76,3.81-11.27a97.75,97.75,0,0,1,6.44-15.37q1.17-2.34,3.52-6.88a57.38,57.38,0,0,1,3.8-6.59,6.82,6.82,0,0,1,3.22-2.64q2.34-2,3.81-2c.78,0,2.15.58,4.1,1.75Q424.05,152,424.05,157Z" fill="none"/>
    </clipPath>
    <clipPath id="clip-path-4">
      <path d="M441,246.88q-8.2-9.36-8.2-23.42t6.3-30.89a123.27,123.27,0,0,1,16.25-30.31q9.94-13.45,20.2-18.15a27,27,0,0,1,13.18-3.22,30.92,30.92,0,0,1,12.59,3.22,20.62,20.62,0,0,1,7.61,5q2.64,2.92,4.69,9.08a53.29,53.29,0,0,1,.87,7.32,41.33,41.33,0,0,1-1.46,7.61,60.83,60.83,0,0,1-9.22,18.3,49.73,49.73,0,0,1-14.79,12.73,21.64,21.64,0,0,1-11.71,2.93,30.58,30.58,0,0,1-11.57-2.19,17.71,17.71,0,0,1-8.34-6.59l-2.05-2.34-.88,2.34q-6.15,15.81-6.15,26.94,0,7.6,2.93,12.29,2,3.23,10,3.22c3.9,0,6.73-.38,8.49-1.17a33.35,33.35,0,0,0,7.76-3.66q3.36-2.19,6.58-4.53l1.18-.59H485q3.51-1.75,5.86-3.22c1.56-1,2.63-1.66,3.22-2.05a2.66,2.66,0,0,0,1.17-.29,3.4,3.4,0,0,0,1.17-1.17q2.64-1.17,6.15.87t3.51,5.27c-.39,1.57-2.15,4.1-5.27,7.62s-5.46,5.37-7,5.56a9,9,0,0,0-2.05.88,9.81,9.81,0,0,0-2.35,1.46h.3q-2.64,3.53-5.27,3.52H482q-1.17,2.34-7.75,4.68a37.32,37.32,0,0,1-12.45,2.34A26.41,26.41,0,0,1,441,246.88Zm50.07-65q7-9.36,7-18.74c0-3.31-.69-5.66-2.05-7a7.25,7.25,0,0,0-3.22-.88,23.7,23.7,0,0,0-5,.88q-3.81.87-11.71,8a76.81,76.81,0,0,0-11.71,12.73l-3.81,6.15a16.16,16.16,0,0,1,4.54-1c1.46-.1,2.29.05,2.49.44a10.6,10.6,0,0,0,2.05,6.73,6.37,6.37,0,0,0,5.27,2.64Q483.78,191.84,491.1,181.88Z" fill="none"/>
    </clipPath>
    <clipPath id="clip-path-5">
      <path d="M608.8,259.77q-3.22-2.94-3.22-6.15a18.74,18.74,0,0,0-.29-2.34,12.67,12.67,0,0,0-1.17-3.52,38,38,0,0,1,1.46-11.71,31.19,31.19,0,0,1,.88-7,28.77,28.77,0,0,1,2-6.15,23.53,23.53,0,0,1,1.17-6.29c.78-2.64,1.27-4.44,1.47-5.42L612.9,205l5-14.93a43.33,43.33,0,0,0,2-5.86,18.11,18.11,0,0,0,.58-4.39q1.77-5.85,4.4-14.93t4.39-15.81a6,6,0,0,0,1.46-4.39c.39-1.17,1.27-4,2.64-8.35s2.93-9,4.68-13.91q4.39-12.87,6.74-21.08t2.34-11.42a8.92,8.92,0,0,0-.73-3.66c-.49-1.07-.84-1.8-1-2.19a16.11,16.11,0,0,1-1.17-3.52,3.39,3.39,0,0,1,1.17-2.34,11.33,11.33,0,0,0,1.91-2.49c.48-.88.82-1.51,1-1.9,0-.59,4-2.24,12.15-5s15.37-5.07,21.82-7h12a61.1,61.1,0,0,1,16.1,4.69,43.19,43.19,0,0,1,13.18,8.78,46.39,46.39,0,0,1,6.3,7.91,127.17,127.17,0,0,1,7.17,14.05,36.9,36.9,0,0,0,.73,5.13,38.24,38.24,0,0,1,.73,6.88q0,13.17-9.66,28.11t-27.23,29.28a78,78,0,0,1-20.35,11.71,56.92,56.92,0,0,1-20.35,4.1,39.42,39.42,0,0,1-8.2-.88c-2.15-.78-3.85-2.78-5.12-6s-1.42-5.32-.44-6.3a40,40,0,0,1,6.44-.29q5.26,0,15.52-3.81a61.53,61.53,0,0,0,12.3-5.56q17.85-11.13,27.52-26.94a95.53,95.53,0,0,0,7.91-16.1q3.79-9.66,3.8-14.94a24.61,24.61,0,0,0,.59-4.39,12,12,0,0,0-5.13-9.81q-5.11-3.95-14.49-4.83a10.52,10.52,0,0,0-2.93-.29q-6.44,0-17.27,2.78t-13.76,4.83c-.59,0-1.08.69-1.47,2a22.32,22.32,0,0,1-1.46,3.81q0,2.34-1.91,8.78t-4,12l-3.81,11.12a149.16,149.16,0,0,0-5.27,15.23,77.24,77.24,0,0,1-2.34,8.05q-1.47,4.24-2.05,5.42a34.61,34.61,0,0,1-1.75,5.27c-1.18,3.12-2,5.76-2.64,7.9a131.92,131.92,0,0,1-7.32,25.19q-6.74,22-6.73,30.74a9.5,9.5,0,0,0,.87,4.68c1.76,0,2.64,1.08,2.64,3.23q0,4.68-5.56,15.81-2.94,7.61-4.25,10.24c-.88,1.76-1.66,2.74-2.34,2.93a17.47,17.47,0,0,1-4,.3C612.8,262.7,611,261.72,608.8,259.77Z" fill="none"/>
    </clipPath>
    <clipPath id="clip-path-6">
      <path d="M739.39,238.54q-3.81-6-3.81-16.84a101.78,101.78,0,0,1,.88-12.29l.59-10.55a11.35,11.35,0,0,0-.59-4.09,9.19,9.19,0,0,0-2.63-3.23c-.4-.38-1.37-1.36-2.93-2.92s-2.25-2.83-2-3.81l-.29-1.46a9.76,9.76,0,0,1,.73-3.81c.48-1.17,1-1.76,1.61-1.76a8.43,8.43,0,0,0,2.34-.44,5,5,0,0,1,2.64-.14c2.73,0,4.1.58,4.1,1.75q1.15,2.36,3.95.44t5.42-7.46a67.62,67.62,0,0,1,12.15-13.62,80.45,80.45,0,0,1,13.32-10.1,25.75,25.75,0,0,1,6.73-2.2,39.21,39.21,0,0,1,8.2-1,17.72,17.72,0,0,1,9.22,2.34,37.59,37.59,0,0,1,8.06,6.74q5.55,4.1,5.56,12.88a30.32,30.32,0,0,1-2.93,12.59q-1.17,4.4-9.22,11.13T785.65,200a77.84,77.84,0,0,1-18.74,2.05c-4.68,0-7.71-.39-9.07-1.18q-3.52-2-5,15.82a40.55,40.55,0,0,0-.29,5.56,17.73,17.73,0,0,0,1.46,7.9c.19.2.88.93,2.05,2.2a15,15,0,0,0,4.39,3.22,12.26,12.26,0,0,0,5.56,1.32,11.19,11.19,0,0,0,4.1-.59,15.86,15.86,0,0,0,6.15-3.36q2.93-2.49,8.2-7.76,4.68-4.68,6.74-6.45,1.46-2.62,5.85-2.63a24.86,24.86,0,0,1,4.1.59c1.76,1.36,2.64,2.83,2.64,4.39s-1,4.49-2.93,8.78q-1.47,2.92-7.18,8A91.12,91.12,0,0,1,783.6,246a37.42,37.42,0,0,1-18.15,5,38.86,38.86,0,0,1-12.88-2.63Q743.2,244.54,739.39,238.54Zm38.94-51.09a18.6,18.6,0,0,0,9.23-4q3.65-3.08,8.63-10.68a13.15,13.15,0,0,0,.88-4.69c0-2.93-.58-5-1.76-6.15a6.45,6.45,0,0,0-4.68-2.05c-2.74,0-5.56,1.17-8.49,3.52q-2.92.87-8.64,6.44a97.8,97.8,0,0,0-9.81,11q-4.1,5.41-2.63,6.29c-.4.59.58,1,2.93,1.32a49.26,49.26,0,0,0,5.85.44Q772.76,188.33,778.33,187.45Z" fill="none"/>
    </clipPath>
    <clipPath id="clip-path-7">
      <path d="M909.07,245a24.58,24.58,0,0,1-4.54-13.61q0-4.68,2.19-16.84t5.42-23.86a28,28,0,0,0,1.76-7.62c0-1-.4-1.46-1.17-1.46s-3.13,1.17-7,3.51q-9.37,5-12.88,9.08-1.47,1.17-4.69,4.1a51.82,51.82,0,0,1-5.85,4.68q-5.56,4.39-14.79,12.74t-15.08,14.2a5.45,5.45,0,0,1-5,3.22,9.26,9.26,0,0,1-2.63-.58,11.81,11.81,0,0,1-6.15-4A9.93,9.93,0,0,1,836,222q0-4.4,5.13-18.45t12.73-30.74a22.14,22.14,0,0,0,2-6,34.14,34.14,0,0,0,.88-7.46,15,15,0,0,1,.88-4.69,9.85,9.85,0,0,1,2.05-3.8,2.88,2.88,0,0,1,2.64-1.47c2.53,0,4.68,1.47,6.44,4.39a14.61,14.61,0,0,1,4.68,11.13q0,5.57-3.22,14.35c-1.37,2.73-2.39,4.93-3.07,6.58s-1.13,2.79-1.32,3.37c.58,0,3.12-1.36,7.61-4.1l7.32-4.39L889.6,174q6.72-5.28,7.61-5.27a7,7,0,0,0,2.93-.88,11.23,11.23,0,0,0,2.92-2.05,5.07,5.07,0,0,1,1.61-1.17,3.6,3.6,0,0,1,1-.3,8.23,8.23,0,0,0,1.46-.29,4.24,4.24,0,0,0,2.05-1.17c.78-.78,2.15-1.17,4.1-1.17a15.14,15.14,0,0,1,8.2,2.63q4.1,2.64,4.1,5.86a2.45,2.45,0,0,0,.59,1.61c.38.49.68.83.87,1,.78,0,1.47,1,2,3.07a27.33,27.33,0,0,1,.88,7.47,34.8,34.8,0,0,1-1.46,10.83,37.92,37.92,0,0,1-1.17,8.2q-1.18,5-1.47,6.44l-1.75,7.61q-3.81,11.72-3.81,19.33c0,3.9.78,6.93,2.34,9.07a5.27,5.27,0,0,1,.59,2.35A4.72,4.72,0,0,1,922,250.4a5,5,0,0,1-4,1.46Q913.61,251.86,909.07,245Z" fill="none"/>
    </clipPath>
    <clipPath id="clip-path-8">
      <path d="M1069.08,173.68q0,6.75-7.61,21.38a134.13,134.13,0,0,1-11.42,17.42,123.76,123.76,0,0,1-12.3,13.91,35.71,35.71,0,0,0-5.12,3.8,41.7,41.7,0,0,0-5.42,5.57,47,47,0,0,1-16.25,9.51,55.44,55.44,0,0,1-18.59,3.37,31.45,31.45,0,0,1-12-2,11.65,11.65,0,0,1-6.73-6.15,18.34,18.34,0,0,0-.44-3.8,6.34,6.34,0,0,1-.15-2.93q-6.74-.59-7-2.34.29-8.79,2-12c0-1,.78-3.61,2.35-7.9a59.16,59.16,0,0,0,2.34-7.33q.59-2.34,2.63-13.32a99.72,99.72,0,0,1,6.15-20.64q7.62-26.94,12.59-38.36a206,206,0,0,1,7.18-23.13q3.36-8.49,8.93-20.49l4.39-9.08q.89-1.76,4.39-12.3a5.24,5.24,0,0,1,2.34-2.49,7.48,7.48,0,0,1,3.81-1,8.15,8.15,0,0,1,5.86,2.63q3.51,3.52,3.51,6.45t-4.68,14.05L1025.45,97q-2.34,2.93-5.27,11.13t-3.8,10.83q-6.75,16.11-12,32.5-3.81,15.81-8.78,31.62l8.2-8.78a120.79,120.79,0,0,1,24-16q13.46-6.87,21.37-6.88a11,11,0,0,1,3.51.59q3.81,1.17,8.93,6.29t6,9.23A16.45,16.45,0,0,1,1069.08,173.68Zm-20.64,10q3.94-8.79,4-13.76c0-1.76-.49-2.64-1.46-2.64s-4.39,1.17-10.25,3.52-9.47,4.2-10.83,5.56c0,.58-.49,1.12-1.47,1.61l-2.05,1q-16.39,12.3-23.13,20.79-5.87,7.9-15.52,22.84a33.63,33.63,0,0,1-7.9,10.25l4.39.29a88.47,88.47,0,0,0,15.66-3.07,62.61,62.61,0,0,0,13.91-6.88q17-13.18,25.77-24.31A75.75,75.75,0,0,0,1048.44,183.64Z" fill="none"/>
    </clipPath>
    <clipPath id="clip-path-9">
      <path d="M1120.32,251.57a29.17,29.17,0,0,1-13.91-3.51,31.75,31.75,0,0,1-11-9.67,30.25,30.25,0,0,1-5.56-10.54,50.51,50.51,0,0,1-1.76-14.35q0-2.91.59-11.71.87-10.83,7.17-22.54a87,87,0,0,1,15.67-20.94q9.36-9.23,18.44-12.73,4.68-2.93,8.49-2.93a29.64,29.64,0,0,1,4.1.29c1.37.2,2.83.39,4.39.59a34.34,34.34,0,0,1,9.81,2.48,15,15,0,0,1,5.71,4.84,23.3,23.3,0,0,1,7.32,17q-1.17,7-9.07,16.1a61.18,61.18,0,0,1-19,14.64,37.87,37.87,0,0,1-12,1.76q-9.07,0-14.64-3.81a14.31,14.31,0,0,0-4.1-.88c-1.76,0-3.07,1.17-4,3.52s-1.71,6.64-2.49,12.88a43.62,43.62,0,0,0-.29,5.86q0,14.92,10,16.39a52.1,52.1,0,0,0,9.66,1.47,17.15,17.15,0,0,0,7.91-2.34l5.56-3.23a12.21,12.21,0,0,0,3.22-2.34l2.64-2.63c.39-.39,1-1,1.76-1.91a6.49,6.49,0,0,1,2.19-1.75,4.73,4.73,0,0,1,1.9-.44,4.21,4.21,0,0,1,2.64,1.32,23.37,23.37,0,0,0,2.34,1.9q2.64,0,1.17,3.66t-6.29,8.49a60.52,60.52,0,0,1-11,8.64A25.72,25.72,0,0,1,1120.32,251.57Zm27.38-75.84q5.11-5.26,5.12-8.78a7.55,7.55,0,0,0-2.63-5.86,10.66,10.66,0,0,0-7.32-2.34,17.71,17.71,0,0,0-5.27.59q-4.11,1.17-9.67,6.29a85.5,85.5,0,0,0-9.66,10.4q-4.11,5.26-3.22,6.14,1.46,2.64,11.42,2.64a30.27,30.27,0,0,0,11.13-1.76A30.91,30.91,0,0,0,1147.7,175.73Z" fill="none"/>
    </clipPath>
    <clipPath id="clip-path-10">
      <path d="M1183.86,241.91a8.68,8.68,0,0,1-.88-4.4,26.93,26.93,0,0,1,.29-4.39,139.54,139.54,0,0,1,4.39-23.13l1.47-5.86q.87-7.31,10.25-30.74t15.22-31.91a9.2,9.2,0,0,1,5-1.47,8.77,8.77,0,0,1,6.44,2.64q1.76,1.17,1.76,4.39c0,2-.74,4.83-2.2,8.64s-3.95,9.42-7.47,16.83q-1.17,2.36-3.95,8.79c-1.86,4.29-2.78,6.83-2.78,7.61,0,.39.1.59.29.59a2,2,0,0,0,1.17-.44,7.2,7.2,0,0,1,1.18-.74q3.21-5.55,15.66-15.22t17.13-12a35.33,35.33,0,0,1,5.27-2.34,46.24,46.24,0,0,0,4.39-1.76,24.63,24.63,0,0,1,11.13-2.34,18.06,18.06,0,0,1,7.17,1.32,7.77,7.77,0,0,1,4.25,3.95,5,5,0,0,0,1.61,3.22,10.44,10.44,0,0,0,1.9,1.47,1.13,1.13,0,0,1,1.17.73,3.53,3.53,0,0,1,.29,1q0,2.05-2.34,2.49a70.4,70.4,0,0,1-8.49.73,30.13,30.13,0,0,0-6.73,1.47,53.2,53.2,0,0,0-7,2.93Q1243,183.36,1235,188.62A85.25,85.25,0,0,0,1218.7,203q-3.23,3.53-8.49,12.59-2.06,2.05-4.25,10.69t-2.19,10.69c-.2.58-.59,1.71-1.17,3.37a18.23,18.23,0,0,1-2.64,4.83q-3.51,4.68-5.86,4.68-2.62,0-7-4.68A12.1,12.1,0,0,1,1183.86,241.91Z" fill="none"/>
    </clipPath>
  </defs>
  <title>Raye_name</title>
  <g id="Raye_name">
    <g id="Raye_r_mask">
      <g clip-path="url(#clip-path)">
        <path id="Raye_r" d="M52.5,281.5l84-208-30,8c47.92-16.73,85-13.2,101,23-15.75,37.05-50,61.65-110,69,13.37,44.2,46.52,79,98,105" fill="none" stroke="#000" stroke-width="28"/>
      </g>
    </g>
    <g id="Raye_a_mask">
      <g clip-path="url(#clip-path-2)">
        <path id="Raye_a" d="M296.5,169.5c-4.78-12.63-14.46-17-25-20-20.85,13.45-41.09,41.66-61,78,4.92,7.67,10.15,14.07,17,14,26.8-8.57,50-41.41,73-75-16.29,34.78-9.64,61,32,74" fill="none" stroke="#000" stroke-width="28"/>
      </g>
    </g>
    <g id="Raye_y_mask">
      <g clip-path="url(#clip-path-3)">
        <path id="Raye_y" d="M353,128c-2,51-.85,97.76,21.5,116.5l50-103c-26.91,66-57.34,124.35-96,165-12.64,3.05-30.2-3.73-48-11" fill="none" stroke="#000" stroke-width="29"/>
      </g>
    </g>
    <g id="Raye_e1_mask">
      <g clip-path="url(#clip-path-4)">
        <path id="Raye_e1" d="M451.5,185.5c8.78,9.61,21,13.74,35,15,9.77-8.7,17.74-23.63,25-41-9.23-10.46-19.33-14-30-13-24.67,24.73-52.42,63.17-34,101,15.73-1.51,20.41,11.11,64-26" fill="none" stroke="#000" stroke-width="30"/>
      </g>
    </g>
    <g id="Raye_p_mask">
      <g clip-path="url(#clip-path-5)">
        <path id="Raye_p" d="M634,252l-18.5-14.5,41-157c19.4-7.89,39.71-9,61-3,7.21,8.88,13.31,19.51,15,37-20.22,35.16-45.8,62.39-88,65" fill="none" stroke="#000" stroke-width="48"/>
      </g>
    </g>
    <g id="Raye_e2_mask">
      <g clip-path="url(#clip-path-6)">
        <path id="Raye_e2" d="M720.5,172.5c18.58,12.35,36.53,23.25,50,24,21.48-.48,30.45-14,38-29-3.89-11.14-11.48-16.15-21-18-39.59,13.71-41.69,50.8-42,89,9.08,6.15,18.85,7.84,29,7,12.67-5.22,22-19.1,31-34" fill="none" stroke="#000" stroke-width="27"/>
      </g>
    </g>
    <g id="Raye_n_mask">
      <g clip-path="url(#clip-path-7)">
        <path id="Raye_n" d="M863.5,138.5c3.23,34.11-5.33,67-23,99,17.66-31.6,72-78,78-68s-4.89,60.9,0,90" fill="none" stroke="#000" stroke-width="31"/>
      </g>
    </g>
    <g id="Raye_b_mask">
      <g clip-path="url(#clip-path-8)">
        <path id="Raye_b" d="M1035.5,50.5a1359,1359,0,0,0-65,179c27.35-40.49,55.31-70.24,85-69,4.33,12.26,5,25.95-8,45-16.34,17-33.21,32.94-56,38-9.89-2.45-16.78-8.67-22-17" fill="none" stroke="#000" stroke-width="29"/>
      </g>
    </g>
    <g id="Raye_e3_mask">
      <g clip-path="url(#clip-path-9)">
        <path id="Raye_e3" d="M1091.5,177.5a130.69,130.69,0,0,0,42,17c14-6.3,23.11-17.53,31-30-5.92-12.17-16.61-16.6-31-15-24.21,14.92-33.77,43.9-38,78,7.29,9.42,15.33,17,26,18,12.27-4.75,25.09-15.38,38-27" fill="none" stroke="#000" stroke-width="29"/>
      </g>
    </g>
    <g id="Raye_r_mask-2" data-name="Raye_r_mask">
      <g clip-path="url(#clip-path-10)">
        <path id="Raye_r-2" data-name="Raye_r" d="M1224.5,131.5a737.46,737.46,0,0,0-40,120c17.68-48,51.28-81.61,105-97" fill="none" stroke="#000" stroke-width="29"/>
      </g>
    </g>
  </g>
</svg>
