<svg xmlns="http://www.w3.org/2000/svg" xmlns:xlink="http://www.w3.org/1999/xlink" width="793" height="385" viewBox="0 0 793 385">
  <defs>
    <clipPath id="clip-path">
      <path d="M143.07,285.77a10.42,10.42,0,0,1-4.38-5,27.17,27.17,0,0,1-3.93-5.44,21.5,21.5,0,0,1-2.72-6.95q-1.2-14.5-1.21-21.15,0-8.46.91-23a184.56,184.56,0,0,1,3.48-26.14q2.55-12.24,7.1-30.07,1.81-5.75,2.72-9.83t0-4.08q-1.51.32-5.44,7.71t-7.86,15.87c-1.21,2.22-2.37,4.58-3.48,7.1s-2.26,4.89-3.47,7.1q-8.46,18.75-31.13,56.82-2.72,3.33-7.55,10.58Q76.74,273.54,70.69,279q-7.56,7.25-15.11,7.25a12.31,12.31,0,0,1-9.06-3.62c-2.63-3.23-3.93-6.35-3.93-9.37a25.51,25.51,0,0,1,.6-4.23q-.9-7.56,1.66-31t5.29-39.14q2.11-14.5,9.37-47.75l6.65-32.64Q68,114,71.9,100.36l2.72-10q.3-5.44,2.42-8a6.44,6.44,0,0,1,5.14-2.57c2.82,0,5.23,1.31,7.25,3.93a18.91,18.91,0,0,1,4.84,13,31.34,31.34,0,0,1-2.72,12.39q-13.6,33.25-21.76,87.65-3,17.83-5.59,38.23t-1.37,20.7c1.62.4,3.83-.86,6.65-3.78A41.63,41.63,0,0,0,77,240.29q20.55-34.15,48.05-87.65.6-.9,13.3-24.78l7.25-13.6c.61-1.21,1.36-2.57,2.27-4.08s1.86-3.07,2.87-4.68q6.65-12.39,10.43-18.44t5.89-7a16.5,16.5,0,0,1,8.46,2.57q3.33,2.26,5.74,7.71a13.89,13.89,0,0,1-.45,5,41.89,41.89,0,0,1-2,6.5c-.41,1.21-1.36,4.23-2.88,9.07s-2.77,9.67-3.77,14.5a175.4,175.4,0,0,0-8.46,29.32q-2.13,10.88-4.54,21.15-5.15,23.28-7.7,38.38a191.69,191.69,0,0,0-2.88,27.21q-.3,15.41,1.82,20.85.9,3,4.53,3a5.7,5.7,0,0,0,4.53-2.12q8.78-11.48,14.51-20.24t12.39-20.86q18.44-34.46,43.82-94.59,9.68-27.79,13.15-36.27t8-10.88a6.54,6.54,0,0,1,3.62-1.2,8.89,8.89,0,0,1,6,2.41,11.77,11.77,0,0,1,2.27,3.93,13.29,13.29,0,0,1,.75,6q-3,10.58-14.05,39.44T233,172.89q-1.22,2.12-4.83,8.16c-.41.61-1.26,2.07-2.57,4.38s-2,4.08-2,5.29q0,3-15.86,31.58t-23.42,38.23q-10,12.71-20.1,19.8t-14,7.1A11.5,11.5,0,0,1,143.07,285.77Z" fill="none"/>
    </clipPath>
    <clipPath id="clip-path-2">
      <path d="M246.73,256.76c-1.31-1.31-2-2.17-2-2.57a7.8,7.8,0,0,0-1.51-5.14,4.13,4.13,0,0,1-.6-2.72q0-4.83,4.68-16.47a227.31,227.31,0,0,1,12.24-25.24,39.32,39.32,0,0,0,4.69-6.34q2.87-4.53,3.78-5.14a3.47,3.47,0,0,1,.9-2.27,2.74,2.74,0,0,1,2.12-1.05V188q0-2.72,10-13.14t16.32-14.36a27.15,27.15,0,0,1,15.41-5.14,14.89,14.89,0,0,1,9.37,3q1.51,1.8,13.9,13l11.19,10-5.44,15.11a47.11,47.11,0,0,0-2.72,14.81,40.83,40.83,0,0,0,6.64,22.06q1.51,3.33,6.05,6.35a21.34,21.34,0,0,0,9.07,3.63q6.65,1.22,6.64,6.65,0,6-5.44,7.25a16.13,16.13,0,0,1-3.62.3q-17.83,0-30.83-25.08a42,42,0,0,1-3.17-6.65,38.72,38.72,0,0,1-2.27-6.65q-1.81,2.43-4.53,5.74c-1.81,2.22-3.53,4.13-5.14,5.75q-32.94,32.94-52,32.94a20.06,20.06,0,0,1-10.88-3A15,15,0,0,0,246.73,256.76Zm16.92-12.24a30.49,30.49,0,0,0,7.86-3,56.67,56.67,0,0,0,9.52-6.35q26-22.36,37.47-39l6.65-10.88q-3-6.34-6.34-9.22c-2.22-1.91-4.23-2.87-6.05-2.87q-6.35,0-19.94,15.87A196.7,196.7,0,0,0,268,226.38a107.62,107.62,0,0,0-4.84,10.43c-1.41,3.53-2.32,5.79-2.72,6.8C260.48,244.62,261.54,244.92,263.65,244.52Z" fill="none"/>
    </clipPath>
    <clipPath id="clip-path-3">
      <path d="M393.6,262.8q-5-5.58-6.49-10.43a2.34,2.34,0,0,0-.61-1.36c-.4-.5-.71-.85-.9-1-.81-.61-1.21-3.93-1.21-10q0-7.24.75-15.11a88.64,88.64,0,0,1,2-12.69l5.44-16,4.23-12.09,8.16-17.53-12.09-3.32a5.16,5.16,0,0,1-3.48-2.11,5.77,5.77,0,0,1-1.36-3.33q0-2.42,2.57-5.89t4.08-3.48a21.32,21.32,0,0,0,4.84.3,75.67,75.67,0,0,0,13.6-.9,7.37,7.37,0,0,0,4.23-4.84q1.2-2.41,2.87-6c1.1-2.42,2.16-4.63,3.17-6.65.61-1.21,1.56-3.07,2.87-5.59s3-5.39,5-8.61q.6-.92,2.72-4.39a22.47,22.47,0,0,1,5.14-5.89,7,7,0,0,1,5.14-2.12c2,0,4.63,1.32,7.85,3.93.41.61,1,1.42,1.67,2.42a5,5,0,0,1,1.05,2.72q0,1.22-2.41,5.14c-1.21,2.42-2.37,4.58-3.48,6.5s-2.07,3.58-2.87,5q-3.63,6.06-5.14,9.07c-2,2.62-3,4.64-3,6s1.31,2.12,3.93,2.12a92.74,92.74,0,0,0,14.2-1.81,48.42,48.42,0,0,1,5.74-.61q10.58,0,11.49,8.77a26.15,26.15,0,0,1,.3,4.23q0,4.23-2.87,5.13t-12.84.91a128.8,128.8,0,0,1-19.95,1.51q-1.81,0-4.08.15a27.77,27.77,0,0,0-4.68.76,6.63,6.63,0,0,0-3.48,1.81,16.3,16.3,0,0,0-2.27,3.93,49.33,49.33,0,0,0-4.23,7q-4.23,8.78-5.44,10.58a296.68,296.68,0,0,0-12.09,49.56c-.4,3.23-.6,5.24-.6,6.05,0,3,1,5.13,3,6.34s5.44,1.82,10.28,1.82a66.64,66.64,0,0,0,17.83-2.12,122,122,0,0,0,13.6-6.65q2.72-1.5,5-2.87c1.51-.91,2.57-1.56,3.18-2,.6-1.21,1.31-1.82,2.11-1.82,1.61,0,3,1.62,4.23,4.84a16.5,16.5,0,0,1-2.11,8.46Q456,254.19,447.55,259,430,270.21,412.49,270.21a43.47,43.47,0,0,1-9.06-.91Q398.59,268.39,393.6,262.8Z" fill="none"/>
    </clipPath>
    <clipPath id="clip-path-4">
      <path d="M499.83,263.25a32.88,32.88,0,0,1-7.25-.75c-2.22-.5-3.33-1.16-3.33-2a1.21,1.21,0,0,0-1.51-1.51c-.2-.19-.8-.7-1.81-1.51a15.76,15.76,0,0,0-3.63-2.11,16.49,16.49,0,0,1-2.72-9.07q0-5.13,2.72-16,.92-9.66,9.07-24.17a174.62,174.62,0,0,1,19.19-27.51q11-13,19.8-18.13A15.55,15.55,0,0,1,541.84,156a20.59,20.59,0,0,1,10.28,2.72,34,34,0,0,1,8.91,8.16,53.91,53.91,0,0,1,7.41,11.78,34.3,34.3,0,0,1,1.2,8.77,128.6,128.6,0,0,1-1.2,14.2,98.13,98.13,0,0,0-2.57,13.3,103.12,103.12,0,0,0-1.06,13.6,12,12,0,0,0,.6,6.8c.81,1.71,1.92,2.57,3.33,2.57a7.47,7.47,0,0,0,3.32-.91,14.74,14.74,0,0,1,6.65-1.51,8,8,0,0,1,5.44,1.81,6.79,6.79,0,0,1,2.12,5.44q0,5.45-7.41,10.88T564.81,259c-3,0-5.8-2.36-8.31-7.1a115.54,115.54,0,0,1-7.41-18.28l-1.81-6.95-13,12.39-7,6.95a76.29,76.29,0,0,0-5.44,5.74q-3.33,5.74-16.62,10.88A27.42,27.42,0,0,1,499.83,263.25ZM524,230a167,167,0,0,0,17.53-20.25q9.36-12.39,11.78-24.48A25.74,25.74,0,0,0,549.4,178q-2.73-3.63-4.84-3.93-6,0-12.69,7a197.8,197.8,0,0,0-15.72,19.34l-10,14.81c-1.21,1.62-3.33,5.89-6.35,12.85s-4.53,11.13-4.53,12.54q0,6.65,3.93,6.65a13.76,13.76,0,0,0,6.95-2.42Q513.42,240.59,524,230Z" fill="none"/>
    </clipPath>
    <clipPath id="clip-path-5">
      <path d="M613.46,260.84a13,13,0,0,1-4.23-2.12,9.52,9.52,0,0,1-3-7q0-6.65,6.65-16,1.82-3.63,9.06-25.08L628,194.05q.6-5.15-.61-7.41c-.81-1.51-2.52-2.36-5.14-2.57h-1.81c-1.81,0-3-.35-3.62-1s-.91-2.57-.91-5.6a9.58,9.58,0,0,1,1.81-5.43,25,25,0,0,1,5.14-4.24,22,22,0,0,1,10-2.41q4.83,0,7.26,2.11c1.2.81,2.06,2.57,2.56,5.29a56.32,56.32,0,0,1,.91,8.46,55,55,0,0,0,.45,6.2q1.51-1.52,7.41-6.2a118.92,118.92,0,0,0,10.12-8.91,91.77,91.77,0,0,1,11.79-6.95q6.65-3.33,9.37-3.33a14.89,14.89,0,0,1,6.65,1.66,9.65,9.65,0,0,1,4.53,4.08,18.3,18.3,0,0,1,2.72,8.77,13.71,13.71,0,0,1-3.32,8.46,18,18,0,0,1-7,5.14q-4.23,1.81-6,1.81t-4.53-2.72q-2.73-2.72-3-4.53c0-.8-2.57.75-7.71,4.68a123.22,123.22,0,0,0-11.94,10.13,87.23,87.23,0,0,0-9.82,15.11q-5,9.36-14.66,28.41c-.6,1.41-2,4.83-4.23,10.27a33.36,33.36,0,0,1-2.72,6.8,3.51,3.51,0,0,1-3,2A16.49,16.49,0,0,1,613.46,260.84Z" fill="none"/>
    </clipPath>
    <clipPath id="clip-path-6">
      <path d="M712.89,256c-1-.4-1.72-.7-2.12-.91a11.88,11.88,0,0,0-.76-3.17,13,13,0,0,1-.75-2.87c-1.62-.8-2.42-1.81-2.42-3a14.3,14.3,0,0,1,.91-4.23q3.91-7,13.9-31.59t11.18-29.16a7.08,7.08,0,0,1,.91-3,11.4,11.4,0,0,1,2.11-3,3.75,3.75,0,0,1,2.72-1.21c2.22,0,4.28,1.51,6.2,4.53a18.3,18.3,0,0,1,2.87,10q0,3.63-6.8,20.71t-15.26,34.3l-3.48,6.95q-2.26,4.53-3.47,5.44a5.49,5.49,0,0,1-3.33.91A6.79,6.79,0,0,1,712.89,256Zm35.2-120.13q-5.88-6.19-5.89-12.84,0-1.52,3.63-7c2.42-3.63,3.62-5.64,3.62-6a19,19,0,0,1,3.63.3,20.15,20.15,0,0,1,3.63,1.21,48.33,48.33,0,0,0,8.46,12.39c1.21,1.62,2.31,3.13,3.32,4.54a6.63,6.63,0,0,1,1.51,3.62,34.56,34.56,0,0,1-.45,6.95,3.27,3.27,0,0,1-2.42,2.42,29.17,29.17,0,0,1-7.4.61Q754,142.07,748.09,135.87Z" fill="none"/>
    </clipPath>
  </defs>
  <title>Watari_name</title>
  <g id="Watari_name">
    <g clip-path="url(#clip-path)">
      <path id="Watari_w" d="M94.5,64.5c-25.82,81-47.06,159.83-52,231C85,244,131.65,162.85,179.5,73.5c-7.73-8-63.68,208.42-40,222,23.2,13.31,134.51-220.43,128-224" fill="none" stroke="#000" stroke-width="37"/>
    </g>
    <g clip-path="url(#clip-path-2)">
      <path id="Watari_a1" d="M339.5,180.5l-34-17c-21.92,20.59-39.25,48.68-54,81l9,12q50.06-29.77,83-83c-21.15,40.91-15.1,70.13,29,83" fill="none" stroke="#000" stroke-width="29"/>
    </g>
    <g clip-path="url(#clip-path-3)">
      <path id="Watari_t1" d="M453.5,99.5c-35.52,45.58-58.72,96.05-58,156,17.49,12.3,41.63,4.53,70-16" fill="none" stroke="#000" stroke-width="40"/>
      <path id="Watari_t2" d="M380.5,150.5c33.37,5.85,67,7.49,101,3" fill="none" stroke="#000" stroke-width="21"/>
    </g>
    <g clip-path="url(#clip-path-4)">
      <path id="Watari_a2" d="M567.5,179.5,540,162c-22.21,17.71-40,45.84-54,83l17,10c24.68-16.05,49.26-32.5,66-80-19.66,76.07-9.91,93.23,23,64" fill="none" stroke="#000" stroke-width="28"/>
    </g>
    <g clip-path="url(#clip-path-5)">
      <path id="Watari_r" d="M606.5,172.5c13.1-.74,23.67.79,29,7-2,23.08-12.76,52.43-28,85,31.85-62.1,61.22-100.85,85-87" fill="none" stroke="#000" stroke-width="38"/>
    </g>
    <g clip-path="url(#clip-path-6)">
      <line id="Watari_i1" x1="747.5" y1="170.5" x2="706.5" y2="259.5" fill="none" stroke="#000" stroke-width="26"/>
      <line id="Watari_i2" x1="742.5" y1="108.5" x2="773.5" y2="145.5" fill="none" stroke="#000" stroke-width="31"/>
    </g>
  </g>
</svg>
